<ttFont>
    <TTGlyph name="A" xMin="17" yMin="-114" xMax="717" yMax="481">
      <contour>
        <pt x="249" y="147" on="1"/>
        <pt x="284" y="148" on="1"/>
        <pt x="317" y="148" on="1"/>
        <pt x="362" y="184" on="0"/>
        <pt x="490" y="312" on="0"/>
        <pt x="516" y="350" on="1"/>
        <pt x="547" y="395" on="1"/>
        <pt x="551" y="395" on="0"/>
        <pt x="551" y="384" on="1"/>
        <pt x="551" y="339" on="0"/>
        <pt x="480" y="261" on="1"/>
        <pt x="376" y="151" on="1"/>
        <pt x="495" y="163" on="1"/>
        <pt x="527" y="232" on="0"/>
        <pt x="603" y="375" on="0"/>
        <pt x="622" y="412" on="0"/>
        <pt x="641" y="449" on="0"/>
        <pt x="665" y="481" on="0"/>
        <pt x="686" y="481" on="0"/>
        <pt x="717" y="468" on="0"/>
        <pt x="717" y="461" on="1"/>
        <pt x="704" y="442" on="0"/>
        <pt x="673" y="390" on="0"/>
        <pt x="655" y="360" on="1"/>
        <pt x="478" y="64" on="0"/>
        <pt x="478" y="-55" on="1"/>
        <pt x="478" y="-69" on="0"/>
        <pt x="486" y="-90" on="1"/>
        <pt x="496" y="-114" on="0"/>
        <pt x="492" y="-114" on="1"/>
        <pt x="472" y="-114" on="0"/>
        <pt x="447" y="-65" on="0"/>
        <pt x="447" y="12" on="0"/>
        <pt x="488" y="138" on="1"/>
        <pt x="474" y="138" on="0"/>
        <pt x="348" y="118" on="0"/>
        <pt x="333" y="114" on="1"/>
        <pt x="169" y="-28" on="0"/>
        <pt x="77" y="-28" on="1"/>
        <pt x="38" y="-28" on="0"/>
        <pt x="17" y="-2" on="1"/>
        <pt x="21" y="-1" on="0"/>
        <pt x="22" y="-1" on="1"/>
        <pt x="51" y="-6" on="1"/>
        <pt x="125" y="-6" on="0"/>
        <pt x="273" y="110" on="1"/>
        <pt x="273" y="111" on="1"/>
        <pt x="219" y="109" on="1"/>
        <pt x="195" y="109" on="0"/>
        <pt x="160" y="136" on="0"/>
        <pt x="160" y="156" on="1"/>
        <pt x="162" y="158" on="1"/>
        <pt x="162" y="159" on="0"/>
        <pt x="163" y="159" on="1"/>
        <pt x="166" y="157" on="1"/>
        <pt x="176" y="147" on="0"/>
      </contour>
    </TTGlyph>
    <TTGlyph name="AE" xMin="17" yMin="-76" xMax="1012" yMax="505">
      <contour>
        <pt x="477" y="183" on="1"/>
        <pt x="503" y="178" on="1"/>
        <pt x="557" y="291" on="0"/>
        <pt x="603" y="375" on="0"/>
        <pt x="622" y="412" on="0"/>
        <pt x="641" y="449" on="0"/>
        <pt x="665" y="481" on="0"/>
        <pt x="686" y="481" on="0"/>
        <pt x="717" y="468" on="0"/>
        <pt x="717" y="461" on="1"/>
        <pt x="705" y="446" on="0"/>
        <pt x="671" y="387" on="1"/>
        <pt x="784" y="471" on="0"/>
        <pt x="897" y="471" on="1"/>
        <pt x="934" y="471" on="0"/>
        <pt x="948" y="463" on="1"/>
        <pt x="949" y="465" on="0"/>
        <pt x="952" y="477" on="0"/>
        <pt x="953" y="480" on="1"/>
        <pt x="962" y="501" on="0"/>
        <pt x="970" y="504" on="1"/>
        <pt x="973" y="505" on="0"/>
        <pt x="977" y="505" on="1"/>
        <pt x="1012" y="505" on="0"/>
        <pt x="1012" y="492" on="1"/>
        <pt x="1010" y="492" on="0"/>
        <pt x="969" y="436" on="0"/>
        <pt x="929" y="366" on="0"/>
        <pt x="929" y="351" on="1"/>
        <pt x="932" y="336" on="1"/>
        <pt x="932" y="334" on="0"/>
        <pt x="930" y="334" on="1"/>
        <pt x="915" y="334" on="0"/>
        <pt x="915" y="406" on="0"/>
        <pt x="938" y="445" on="1"/>
        <pt x="926" y="447" on="0"/>
        <pt x="914" y="447" on="1"/>
        <pt x="807" y="447" on="0"/>
        <pt x="609" y="294" on="0"/>
        <pt x="554" y="175" on="1"/>
        <pt x="773" y="175" on="0"/>
        <pt x="865" y="198" on="1"/>
        <pt x="871" y="198" on="0"/>
        <pt x="871" y="193" on="1"/>
        <pt x="871" y="174" on="0"/>
        <pt x="623" y="137" on="0"/>
        <pt x="540" y="135" on="1"/>
        <pt x="536" y="109" on="0"/>
        <pt x="536" y="99" on="1"/>
        <pt x="536" y="33" on="0"/>
        <pt x="626" y="-51" on="0"/>
        <pt x="697" y="-51" on="1"/>
        <pt x="835" y="-51" on="0"/>
        <pt x="945" y="65" on="1"/>
        <pt x="957" y="79" on="0"/>
        <pt x="968" y="79" on="0"/>
        <pt x="968" y="65" on="0"/>
        <pt x="960" y="54" on="1"/>
        <pt x="896" y="-9" on="0"/>
        <pt x="737" y="-76" on="0"/>
        <pt x="588" y="-76" on="0"/>
        <pt x="480" y="21" on="0"/>
        <pt x="480" y="89" on="1"/>
        <pt x="480" y="112" on="0"/>
        <pt x="488" y="138" on="1"/>
        <pt x="474" y="138" on="0"/>
        <pt x="348" y="118" on="0"/>
        <pt x="333" y="114" on="1"/>
        <pt x="169" y="-28" on="0"/>
        <pt x="77" y="-28" on="1"/>
        <pt x="38" y="-28" on="0"/>
        <pt x="17" y="-2" on="1"/>
        <pt x="21" y="-1" on="0"/>
        <pt x="22" y="-1" on="1"/>
        <pt x="51" y="-6" on="1"/>
        <pt x="125" y="-6" on="0"/>
        <pt x="273" y="110" on="1"/>
        <pt x="273" y="111" on="1"/>
        <pt x="219" y="109" on="1"/>
        <pt x="195" y="109" on="0"/>
        <pt x="160" y="136" on="0"/>
        <pt x="160" y="156" on="1"/>
        <pt x="162" y="158" on="1"/>
        <pt x="162" y="159" on="0"/>
        <pt x="163" y="159" on="1"/>
        <pt x="166" y="157" on="1"/>
        <pt x="176" y="147" on="0"/>
        <pt x="249" y="147" on="1"/>
        <pt x="284" y="148" on="1"/>
        <pt x="317" y="148" on="1"/>
        <pt x="362" y="184" on="0"/>
        <pt x="490" y="312" on="0"/>
        <pt x="516" y="350" on="1"/>
        <pt x="547" y="395" on="1"/>
        <pt x="551" y="395" on="0"/>
        <pt x="551" y="384" on="1"/>
        <pt x="551" y="339" on="0"/>
        <pt x="480" y="261" on="1"/>
        <pt x="376" y="151" on="1"/>
        <pt x="408" y="153" on="0"/>
        <pt x="477" y="160" on="1"/>
        <pt x="473" y="173" on="0"/>
        <pt x="473" y="183" on="0"/>
      </contour>
    </TTGlyph>
    <TTGlyph name="Aacute" xMin="17" yMin="-114" xMax="768" yMax="615">
      <contour>
        <pt x="249" y="147" on="1"/>
        <pt x="284" y="148" on="1"/>
        <pt x="317" y="148" on="1"/>
        <pt x="362" y="184" on="0"/>
        <pt x="490" y="312" on="0"/>
        <pt x="516" y="350" on="1"/>
        <pt x="547" y="395" on="1"/>
        <pt x="551" y="395" on="0"/>
        <pt x="551" y="384" on="1"/>
        <pt x="551" y="339" on="0"/>
        <pt x="480" y="261" on="1"/>
        <pt x="376" y="151" on="1"/>
        <pt x="495" y="163" on="1"/>
        <pt x="527" y="232" on="0"/>
        <pt x="603" y="375" on="0"/>
        <pt x="622" y="412" on="0"/>
        <pt x="641" y="449" on="0"/>
        <pt x="665" y="481" on="0"/>
        <pt x="686" y="481" on="0"/>
        <pt x="717" y="468" on="0"/>
        <pt x="717" y="461" on="1"/>
        <pt x="704" y="442" on="0"/>
        <pt x="673" y="390" on="0"/>
        <pt x="655" y="360" on="1"/>
        <pt x="478" y="64" on="0"/>
        <pt x="478" y="-55" on="1"/>
        <pt x="478" y="-69" on="0"/>
        <pt x="486" y="-90" on="1"/>
        <pt x="496" y="-114" on="0"/>
        <pt x="492" y="-114" on="1"/>
        <pt x="472" y="-114" on="0"/>
        <pt x="447" y="-65" on="0"/>
        <pt x="447" y="12" on="0"/>
        <pt x="488" y="138" on="1"/>
        <pt x="474" y="138" on="0"/>
        <pt x="348" y="118" on="0"/>
        <pt x="333" y="114" on="1"/>
        <pt x="169" y="-28" on="0"/>
        <pt x="77" y="-28" on="1"/>
        <pt x="38" y="-28" on="0"/>
        <pt x="17" y="-2" on="1"/>
        <pt x="21" y="-1" on="0"/>
        <pt x="22" y="-1" on="1"/>
        <pt x="51" y="-6" on="1"/>
        <pt x="125" y="-6" on="0"/>
        <pt x="273" y="110" on="1"/>
        <pt x="273" y="111" on="1"/>
        <pt x="219" y="109" on="1"/>
        <pt x="195" y="109" on="0"/>
        <pt x="160" y="136" on="0"/>
        <pt x="160" y="156" on="1"/>
        <pt x="162" y="158" on="1"/>
        <pt x="162" y="159" on="0"/>
        <pt x="163" y="159" on="1"/>
        <pt x="166" y="157" on="1"/>
        <pt x="176" y="147" on="0"/>
      </contour>
      <contour>
        <pt x="636" y="525" on="0"/>
        <pt x="753" y="615" on="0"/>
        <pt x="768" y="615" on="0"/>
        <pt x="768" y="592" on="0"/>
        <pt x="755" y="580" on="0"/>
        <pt x="645" y="514" on="0"/>
        <pt x="636" y="514" on="0"/>
      </contour>
    </TTGlyph>
    <TTGlyph name="Acircumflex" xMin="17" yMin="-114" xMax="782" yMax="615">
      <contour>
        <pt x="249" y="147" on="1"/>
        <pt x="284" y="148" on="1"/>
        <pt x="317" y="148" on="1"/>
        <pt x="362" y="184" on="0"/>
        <pt x="490" y="312" on="0"/>
        <pt x="516" y="350" on="1"/>
        <pt x="547" y="395" on="1"/>
        <pt x="551" y="395" on="0"/>
        <pt x="551" y="384" on="1"/>
        <pt x="551" y="339" on="0"/>
        <pt x="480" y="261" on="1"/>
        <pt x="376" y="151" on="1"/>
        <pt x="495" y="163" on="1"/>
        <pt x="527" y="232" on="0"/>
        <pt x="603" y="375" on="0"/>
        <pt x="622" y="412" on="0"/>
        <pt x="641" y="449" on="0"/>
        <pt x="665" y="481" on="0"/>
        <pt x="686" y="481" on="0"/>
        <pt x="717" y="468" on="0"/>
        <pt x="717" y="461" on="1"/>
        <pt x="704" y="442" on="0"/>
        <pt x="673" y="390" on="0"/>
        <pt x="655" y="360" on="1"/>
        <pt x="478" y="64" on="0"/>
        <pt x="478" y="-55" on="1"/>
        <pt x="478" y="-69" on="0"/>
        <pt x="486" y="-90" on="1"/>
        <pt x="496" y="-114" on="0"/>
        <pt x="492" y="-114" on="1"/>
        <pt x="472" y="-114" on="0"/>
        <pt x="447" y="-65" on="0"/>
        <pt x="447" y="12" on="0"/>
        <pt x="488" y="138" on="1"/>
        <pt x="474" y="138" on="0"/>
        <pt x="348" y="118" on="0"/>
        <pt x="333" y="114" on="1"/>
        <pt x="169" y="-28" on="0"/>
        <pt x="77" y="-28" on="1"/>
        <pt x="38" y="-28" on="0"/>
        <pt x="17" y="-2" on="1"/>
        <pt x="21" y="-1" on="0"/>
        <pt x="22" y="-1" on="1"/>
        <pt x="51" y="-6" on="1"/>
        <pt x="125" y="-6" on="0"/>
        <pt x="273" y="110" on="1"/>
        <pt x="273" y="111" on="1"/>
        <pt x="219" y="109" on="1"/>
        <pt x="195" y="109" on="0"/>
        <pt x="160" y="136" on="0"/>
        <pt x="160" y="156" on="1"/>
        <pt x="162" y="158" on="1"/>
        <pt x="162" y="159" on="0"/>
        <pt x="163" y="159" on="1"/>
        <pt x="166" y="157" on="1"/>
        <pt x="176" y="147" on="0"/>
      </contour>
      <contour>
        <pt x="583" y="522" on="1"/>
        <pt x="577" y="522" on="0"/>
        <pt x="577" y="537" on="0"/>
        <pt x="671" y="613" on="0"/>
        <pt x="679" y="615" on="1"/>
        <pt x="684" y="613" on="1"/>
        <pt x="711" y="582" on="0"/>
        <pt x="778" y="532" on="1"/>
        <pt x="782" y="524" on="1"/>
        <pt x="779" y="519" on="1"/>
        <pt x="765" y="520" on="0"/>
        <pt x="682" y="571" on="0"/>
        <pt x="669" y="585" on="1"/>
        <pt x="591" y="522" on="0"/>
      </contour>
    </TTGlyph>
    <TTGlyph name="Adieresis" xMin="17" yMin="-114" xMax="768" yMax="601">
      <contour>
        <pt x="249" y="147" on="1"/>
        <pt x="284" y="148" on="1"/>
        <pt x="317" y="148" on="1"/>
        <pt x="362" y="184" on="0"/>
        <pt x="490" y="312" on="0"/>
        <pt x="516" y="350" on="1"/>
        <pt x="547" y="395" on="1"/>
        <pt x="551" y="395" on="0"/>
        <pt x="551" y="384" on="1"/>
        <pt x="551" y="339" on="0"/>
        <pt x="480" y="261" on="1"/>
        <pt x="376" y="151" on="1"/>
        <pt x="495" y="163" on="1"/>
        <pt x="527" y="232" on="0"/>
        <pt x="603" y="375" on="0"/>
        <pt x="622" y="412" on="0"/>
        <pt x="641" y="449" on="0"/>
        <pt x="665" y="481" on="0"/>
        <pt x="686" y="481" on="0"/>
        <pt x="717" y="468" on="0"/>
        <pt x="717" y="461" on="1"/>
        <pt x="704" y="442" on="0"/>
        <pt x="673" y="390" on="0"/>
        <pt x="655" y="360" on="1"/>
        <pt x="478" y="64" on="0"/>
        <pt x="478" y="-55" on="1"/>
        <pt x="478" y="-69" on="0"/>
        <pt x="486" y="-90" on="1"/>
        <pt x="496" y="-114" on="0"/>
        <pt x="492" y="-114" on="1"/>
        <pt x="472" y="-114" on="0"/>
        <pt x="447" y="-65" on="0"/>
        <pt x="447" y="12" on="0"/>
        <pt x="488" y="138" on="1"/>
        <pt x="474" y="138" on="0"/>
        <pt x="348" y="118" on="0"/>
        <pt x="333" y="114" on="1"/>
        <pt x="169" y="-28" on="0"/>
        <pt x="77" y="-28" on="1"/>
        <pt x="38" y="-28" on="0"/>
        <pt x="17" y="-2" on="1"/>
        <pt x="21" y="-1" on="0"/>
        <pt x="22" y="-1" on="1"/>
        <pt x="51" y="-6" on="1"/>
        <pt x="125" y="-6" on="0"/>
        <pt x="273" y="110" on="1"/>
        <pt x="273" y="111" on="1"/>
        <pt x="219" y="109" on="1"/>
        <pt x="195" y="109" on="0"/>
        <pt x="160" y="136" on="0"/>
        <pt x="160" y="156" on="1"/>
        <pt x="162" y="158" on="1"/>
        <pt x="162" y="159" on="0"/>
        <pt x="163" y="159" on="1"/>
        <pt x="166" y="157" on="1"/>
        <pt x="176" y="147" on="0"/>
      </contour>
      <contour>
        <pt x="725" y="537" on="1"/>
        <pt x="720" y="537" on="0"/>
        <pt x="709" y="552" on="0"/>
        <pt x="709" y="569" on="0"/>
        <pt x="754" y="601" on="0"/>
        <pt x="766" y="601" on="1"/>
        <pt x="768" y="600" on="1"/>
        <pt x="768" y="601" on="1"/>
        <pt x="768" y="600" on="1"/>
        <pt x="765" y="595" on="0"/>
        <pt x="758" y="587" on="1"/>
        <pt x="746" y="557" on="1"/>
        <pt x="737" y="537" on="0"/>
      </contour>
      <contour>
        <pt x="633" y="537" on="1"/>
        <pt x="629" y="537" on="0"/>
        <pt x="618" y="552" on="0"/>
        <pt x="618" y="569" on="0"/>
        <pt x="663" y="601" on="0"/>
        <pt x="674" y="601" on="1"/>
        <pt x="677" y="600" on="1"/>
        <pt x="677" y="601" on="1"/>
        <pt x="677" y="600" on="1"/>
        <pt x="674" y="595" on="0"/>
        <pt x="667" y="587" on="1"/>
        <pt x="654" y="557" on="1"/>
        <pt x="644" y="537" on="0"/>
      </contour>
    </TTGlyph>
    <TTGlyph name="Agrave" xMin="17" yMin="-114" xMax="717" yMax="622">
      <contour>
        <pt x="249" y="147" on="1"/>
        <pt x="284" y="148" on="1"/>
        <pt x="317" y="148" on="1"/>
        <pt x="362" y="184" on="0"/>
        <pt x="490" y="312" on="0"/>
        <pt x="516" y="350" on="1"/>
        <pt x="547" y="395" on="1"/>
        <pt x="551" y="395" on="0"/>
        <pt x="551" y="384" on="1"/>
        <pt x="551" y="339" on="0"/>
        <pt x="480" y="261" on="1"/>
        <pt x="376" y="151" on="1"/>
        <pt x="495" y="163" on="1"/>
        <pt x="527" y="232" on="0"/>
        <pt x="603" y="375" on="0"/>
        <pt x="622" y="412" on="0"/>
        <pt x="641" y="449" on="0"/>
        <pt x="665" y="481" on="0"/>
        <pt x="686" y="481" on="0"/>
        <pt x="717" y="468" on="0"/>
        <pt x="717" y="461" on="1"/>
        <pt x="704" y="442" on="0"/>
        <pt x="673" y="390" on="0"/>
        <pt x="655" y="360" on="1"/>
        <pt x="478" y="64" on="0"/>
        <pt x="478" y="-55" on="1"/>
        <pt x="478" y="-69" on="0"/>
        <pt x="486" y="-90" on="1"/>
        <pt x="496" y="-114" on="0"/>
        <pt x="492" y="-114" on="1"/>
        <pt x="472" y="-114" on="0"/>
        <pt x="447" y="-65" on="0"/>
        <pt x="447" y="12" on="0"/>
        <pt x="488" y="138" on="1"/>
        <pt x="474" y="138" on="0"/>
        <pt x="348" y="118" on="0"/>
        <pt x="333" y="114" on="1"/>
        <pt x="169" y="-28" on="0"/>
        <pt x="77" y="-28" on="1"/>
        <pt x="38" y="-28" on="0"/>
        <pt x="17" y="-2" on="1"/>
        <pt x="21" y="-1" on="0"/>
        <pt x="22" y="-1" on="1"/>
        <pt x="51" y="-6" on="1"/>
        <pt x="125" y="-6" on="0"/>
        <pt x="273" y="110" on="1"/>
        <pt x="273" y="111" on="1"/>
        <pt x="219" y="109" on="1"/>
        <pt x="195" y="109" on="0"/>
        <pt x="160" y="136" on="0"/>
        <pt x="160" y="156" on="1"/>
        <pt x="162" y="158" on="1"/>
        <pt x="162" y="159" on="0"/>
        <pt x="163" y="159" on="1"/>
        <pt x="166" y="157" on="1"/>
        <pt x="176" y="147" on="0"/>
      </contour>
      <contour>
        <pt x="694" y="529" on="0"/>
        <pt x="694" y="515" on="0"/>
        <pt x="679" y="515" on="0"/>
        <pt x="626" y="549" on="1"/>
        <pt x="571" y="581" on="0"/>
        <pt x="554" y="597" on="0"/>
        <pt x="554" y="622" on="0"/>
        <pt x="564" y="622" on="1"/>
        <pt x="569" y="622" on="0"/>
      </contour>
    </TTGlyph>
    <TTGlyph name="Aring" xMin="17" yMin="-114" xMax="717" yMax="575">
      <contour>
        <pt x="249" y="147" on="1"/>
        <pt x="284" y="148" on="1"/>
        <pt x="317" y="148" on="1"/>
        <pt x="362" y="184" on="0"/>
        <pt x="490" y="312" on="0"/>
        <pt x="516" y="350" on="1"/>
        <pt x="547" y="395" on="1"/>
        <pt x="551" y="395" on="0"/>
        <pt x="551" y="384" on="1"/>
        <pt x="551" y="339" on="0"/>
        <pt x="480" y="261" on="1"/>
        <pt x="376" y="151" on="1"/>
        <pt x="495" y="163" on="1"/>
        <pt x="575" y="332" on="0"/>
        <pt x="655" y="467" on="1"/>
        <pt x="644" y="464" on="0"/>
        <pt x="636" y="464" on="1"/>
        <pt x="605" y="464" on="0"/>
        <pt x="605" y="494" on="1"/>
        <pt x="605" y="519" on="0"/>
        <pt x="647" y="575" on="0"/>
        <pt x="672" y="575" on="1"/>
        <pt x="704" y="575" on="0"/>
        <pt x="704" y="503" on="0"/>
        <pt x="677" y="481" on="1"/>
        <pt x="717" y="475" on="0"/>
        <pt x="717" y="461" on="1"/>
        <pt x="704" y="442" on="0"/>
        <pt x="673" y="390" on="0"/>
        <pt x="655" y="360" on="1"/>
        <pt x="478" y="64" on="0"/>
        <pt x="478" y="-55" on="1"/>
        <pt x="478" y="-69" on="0"/>
        <pt x="486" y="-90" on="1"/>
        <pt x="496" y="-114" on="0"/>
        <pt x="492" y="-114" on="1"/>
        <pt x="472" y="-114" on="0"/>
        <pt x="447" y="-65" on="0"/>
        <pt x="447" y="12" on="0"/>
        <pt x="488" y="138" on="1"/>
        <pt x="474" y="138" on="0"/>
        <pt x="348" y="118" on="0"/>
        <pt x="333" y="114" on="1"/>
        <pt x="169" y="-28" on="0"/>
        <pt x="77" y="-28" on="1"/>
        <pt x="38" y="-28" on="0"/>
        <pt x="17" y="-2" on="1"/>
        <pt x="21" y="-1" on="0"/>
        <pt x="22" y="-1" on="1"/>
        <pt x="51" y="-6" on="1"/>
        <pt x="125" y="-6" on="0"/>
        <pt x="273" y="110" on="1"/>
        <pt x="273" y="111" on="1"/>
        <pt x="219" y="109" on="1"/>
        <pt x="195" y="109" on="0"/>
        <pt x="160" y="136" on="0"/>
        <pt x="160" y="156" on="1"/>
        <pt x="162" y="158" on="1"/>
        <pt x="162" y="159" on="0"/>
        <pt x="163" y="159" on="1"/>
        <pt x="166" y="157" on="1"/>
        <pt x="176" y="147" on="0"/>
      </contour>
      <contour>
        <pt x="661" y="479" on="0"/>
        <pt x="687" y="514" on="0"/>
        <pt x="687" y="560" on="0"/>
        <pt x="670" y="560" on="1"/>
        <pt x="662" y="560" on="0"/>
        <pt x="648" y="551" on="1"/>
        <pt x="656" y="548" on="1"/>
        <pt x="632" y="507" on="0"/>
        <pt x="632" y="479" on="0"/>
      </contour>
    </TTGlyph>
    <TTGlyph name="Atilde" xMin="17" yMin="-114" xMax="794" yMax="599">
      <contour>
        <pt x="249" y="147" on="1"/>
        <pt x="284" y="148" on="1"/>
        <pt x="317" y="148" on="1"/>
        <pt x="362" y="184" on="0"/>
        <pt x="490" y="312" on="0"/>
        <pt x="516" y="350" on="1"/>
        <pt x="547" y="395" on="1"/>
        <pt x="551" y="395" on="0"/>
        <pt x="551" y="384" on="1"/>
        <pt x="551" y="339" on="0"/>
        <pt x="480" y="261" on="1"/>
        <pt x="376" y="151" on="1"/>
        <pt x="495" y="163" on="1"/>
        <pt x="527" y="232" on="0"/>
        <pt x="603" y="375" on="0"/>
        <pt x="622" y="412" on="0"/>
        <pt x="641" y="449" on="0"/>
        <pt x="665" y="481" on="0"/>
        <pt x="686" y="481" on="0"/>
        <pt x="717" y="468" on="0"/>
        <pt x="717" y="461" on="1"/>
        <pt x="704" y="442" on="0"/>
        <pt x="673" y="390" on="0"/>
        <pt x="655" y="360" on="1"/>
        <pt x="478" y="64" on="0"/>
        <pt x="478" y="-55" on="1"/>
        <pt x="478" y="-69" on="0"/>
        <pt x="486" y="-90" on="1"/>
        <pt x="496" y="-114" on="0"/>
        <pt x="492" y="-114" on="1"/>
        <pt x="472" y="-114" on="0"/>
        <pt x="447" y="-65" on="0"/>
        <pt x="447" y="12" on="0"/>
        <pt x="488" y="138" on="1"/>
        <pt x="474" y="138" on="0"/>
        <pt x="348" y="118" on="0"/>
        <pt x="333" y="114" on="1"/>
        <pt x="169" y="-28" on="0"/>
        <pt x="77" y="-28" on="1"/>
        <pt x="38" y="-28" on="0"/>
        <pt x="17" y="-2" on="1"/>
        <pt x="21" y="-1" on="0"/>
        <pt x="22" y="-1" on="1"/>
        <pt x="51" y="-6" on="1"/>
        <pt x="125" y="-6" on="0"/>
        <pt x="273" y="110" on="1"/>
        <pt x="273" y="111" on="1"/>
        <pt x="219" y="109" on="1"/>
        <pt x="195" y="109" on="0"/>
        <pt x="160" y="136" on="0"/>
        <pt x="160" y="156" on="1"/>
        <pt x="162" y="158" on="1"/>
        <pt x="162" y="159" on="0"/>
        <pt x="163" y="159" on="1"/>
        <pt x="166" y="157" on="1"/>
        <pt x="176" y="147" on="0"/>
      </contour>
      <contour>
        <pt x="686" y="599" on="1"/>
        <pt x="758" y="583" on="1"/>
        <pt x="775" y="583" on="0"/>
        <pt x="790" y="599" on="1"/>
        <pt x="794" y="599" on="0"/>
        <pt x="794" y="592" on="0"/>
        <pt x="783" y="575" on="0"/>
        <pt x="758" y="558" on="0"/>
        <pt x="735" y="558" on="0"/>
        <pt x="676" y="579" on="0"/>
        <pt x="662" y="579" on="0"/>
        <pt x="642" y="568" on="0"/>
        <pt x="628" y="558" on="0"/>
        <pt x="627" y="558" on="1"/>
        <pt x="626" y="560" on="1"/>
        <pt x="626" y="564" on="0"/>
        <pt x="641" y="582" on="0"/>
        <pt x="670" y="599" on="0"/>
      </contour>
    </TTGlyph>
    <TTGlyph name="B" xMin="10" yMin="-127" xMax="580" yMax="478">
      <contour>
        <pt x="580" y="380" on="1"/>
        <pt x="580" y="327" on="0"/>
        <pt x="438" y="223" on="0"/>
        <pt x="335" y="198" on="1"/>
        <pt x="412" y="192" on="0"/>
        <pt x="504" y="127" on="0"/>
        <pt x="504" y="16" on="0"/>
        <pt x="393" y="-64" on="0"/>
        <pt x="317" y="-64" on="1"/>
        <pt x="273" y="-64" on="0"/>
        <pt x="187" y="-35" on="0"/>
        <pt x="187" y="-13" on="1"/>
        <pt x="187" y="-11" on="0"/>
        <pt x="189" y="-11" on="1"/>
        <pt x="195" y="-13" on="1"/>
        <pt x="218" y="-28" on="0"/>
        <pt x="253" y="-28" on="1"/>
        <pt x="339" y="-28" on="0"/>
        <pt x="467" y="54" on="0"/>
        <pt x="467" y="129" on="0"/>
        <pt x="366" y="181" on="0"/>
        <pt x="271" y="181" on="0"/>
        <pt x="244" y="170" on="1"/>
        <pt x="234" y="172" on="0"/>
        <pt x="234" y="183" on="1"/>
        <pt x="234" y="197" on="0"/>
        <pt x="255" y="203" on="1"/>
        <pt x="287" y="208" on="1"/>
        <pt x="398" y="238" on="0"/>
        <pt x="522" y="333" on="0"/>
        <pt x="522" y="392" on="1"/>
        <pt x="522" y="421" on="0"/>
        <pt x="456" y="457" on="0"/>
        <pt x="323" y="457" on="0"/>
        <pt x="234" y="434" on="0"/>
        <pt x="30" y="365" on="0"/>
        <pt x="27" y="365" on="1"/>
        <pt x="10" y="365" on="0"/>
        <pt x="10" y="389" on="1"/>
        <pt x="10" y="400" on="0"/>
        <pt x="17" y="403" on="1"/>
        <pt x="205" y="478" on="0"/>
        <pt x="379" y="478" on="1"/>
        <pt x="580" y="478" on="0"/>
      </contour>
      <contour>
        <pt x="307" y="398" on="1"/>
        <pt x="307" y="396" on="0"/>
        <pt x="306" y="395" on="1"/>
        <pt x="90" y="82" on="0"/>
        <pt x="90" y="-68" on="1"/>
        <pt x="90" y="-87" on="0"/>
        <pt x="106" y="-123" on="0"/>
        <pt x="108" y="-123" on="1"/>
        <pt x="108" y="-122" on="1"/>
        <pt x="108" y="-127" on="0"/>
        <pt x="102" y="-127" on="1"/>
        <pt x="85" y="-127" on="0"/>
        <pt x="60" y="-73" on="0"/>
        <pt x="60" y="-37" on="1"/>
        <pt x="60" y="93" on="0"/>
        <pt x="205" y="338" on="1"/>
        <pt x="247" y="417" on="0"/>
        <pt x="275" y="417" on="0"/>
        <pt x="307" y="404" on="0"/>
      </contour>
    </TTGlyph>
    <TTGlyph name="C" xMin="24" yMin="-76" xMax="629" yMax="492">
      <contour>
        <pt x="551" y="438" on="1"/>
        <pt x="574" y="492" on="0"/>
        <pt x="595" y="492" on="1"/>
        <pt x="629" y="492" on="0"/>
        <pt x="629" y="479" on="1"/>
        <pt x="581" y="417" on="0"/>
        <pt x="570" y="402" on="1"/>
        <pt x="511" y="322" on="0"/>
        <pt x="511" y="285" on="1"/>
        <pt x="515" y="270" on="1"/>
        <pt x="515" y="268" on="0"/>
        <pt x="513" y="268" on="1"/>
        <pt x="501" y="268" on="0"/>
        <pt x="501" y="294" on="1"/>
        <pt x="501" y="338" on="0"/>
        <pt x="541" y="420" on="1"/>
        <pt x="510" y="448" on="0"/>
        <pt x="454" y="448" on="1"/>
        <pt x="369" y="448" on="0"/>
        <pt x="189" y="339" on="0"/>
        <pt x="73" y="174" on="0"/>
        <pt x="73" y="32" on="0"/>
        <pt x="163" y="-51" on="0"/>
        <pt x="233" y="-51" on="1"/>
        <pt x="370" y="-51" on="0"/>
        <pt x="480" y="65" on="1"/>
        <pt x="494" y="79" on="0"/>
        <pt x="500" y="79" on="1"/>
        <pt x="504" y="79" on="0"/>
        <pt x="504" y="64" on="0"/>
        <pt x="495" y="54" on="1"/>
        <pt x="441" y="-7" on="0"/>
        <pt x="271" y="-76" on="0"/>
        <pt x="119" y="-76" on="0"/>
        <pt x="24" y="11" on="0"/>
        <pt x="24" y="148" on="0"/>
        <pt x="96" y="284" on="0"/>
        <pt x="212" y="392" on="0"/>
        <pt x="369" y="463" on="0"/>
        <pt x="509" y="463" on="0"/>
      </contour>
    </TTGlyph>
    <TTGlyph name="Ccedilla" xMin="24" yMin="-277" xMax="629" yMax="492">
      <contour>
        <pt x="511" y="285" on="1"/>
        <pt x="515" y="270" on="1"/>
        <pt x="515" y="268" on="0"/>
        <pt x="513" y="268" on="1"/>
        <pt x="501" y="268" on="0"/>
        <pt x="501" y="294" on="1"/>
        <pt x="501" y="338" on="0"/>
        <pt x="541" y="420" on="1"/>
        <pt x="510" y="448" on="0"/>
        <pt x="454" y="448" on="1"/>
        <pt x="369" y="448" on="0"/>
        <pt x="189" y="339" on="0"/>
        <pt x="73" y="174" on="0"/>
        <pt x="73" y="32" on="0"/>
        <pt x="163" y="-51" on="0"/>
        <pt x="233" y="-51" on="1"/>
        <pt x="370" y="-51" on="0"/>
        <pt x="480" y="65" on="1"/>
        <pt x="494" y="79" on="0"/>
        <pt x="500" y="79" on="1"/>
        <pt x="504" y="79" on="0"/>
        <pt x="504" y="64" on="0"/>
        <pt x="495" y="54" on="1"/>
        <pt x="441" y="-7" on="0"/>
        <pt x="271" y="-76" on="0"/>
        <pt x="198" y="-76" on="1"/>
        <pt x="186" y="-76" on="0"/>
        <pt x="180" y="-75" on="1"/>
        <pt x="162" y="-87" on="0"/>
        <pt x="162" y="-118" on="1"/>
        <pt x="162" y="-119" on="0"/>
        <pt x="205" y="-188" on="0"/>
        <pt x="205" y="-202" on="1"/>
        <pt x="205" y="-234" on="0"/>
        <pt x="140" y="-277" on="0"/>
        <pt x="93" y="-277" on="1"/>
        <pt x="87" y="-277" on="0"/>
        <pt x="87" y="-269" on="1"/>
        <pt x="87" y="-266" on="0"/>
        <pt x="93" y="-262" on="1"/>
        <pt x="149" y="-255" on="1"/>
        <pt x="174" y="-248" on="0"/>
        <pt x="174" y="-211" on="1"/>
        <pt x="174" y="-206" on="0"/>
        <pt x="135" y="-140" on="0"/>
        <pt x="135" y="-130" on="1"/>
        <pt x="135" y="-91" on="0"/>
        <pt x="159" y="-73" on="1"/>
        <pt x="96" y="-63" on="0"/>
        <pt x="24" y="21" on="0"/>
        <pt x="24" y="148" on="0"/>
        <pt x="96" y="284" on="0"/>
        <pt x="212" y="392" on="0"/>
        <pt x="369" y="463" on="0"/>
        <pt x="509" y="463" on="0"/>
        <pt x="551" y="438" on="1"/>
        <pt x="574" y="492" on="0"/>
        <pt x="595" y="492" on="1"/>
        <pt x="629" y="492" on="0"/>
        <pt x="629" y="479" on="1"/>
        <pt x="581" y="417" on="0"/>
        <pt x="570" y="402" on="1"/>
        <pt x="511" y="322" on="0"/>
      </contour>
    </TTGlyph>
    <TTGlyph name="D" xMin="21" yMin="-103" xMax="686" yMax="474">
      <contour>
        <pt x="686" y="269" on="1"/>
        <pt x="686" y="212" on="0"/>
        <pt x="621" y="96" on="0"/>
        <pt x="508" y="2" on="0"/>
        <pt x="337" y="-57" on="0"/>
        <pt x="144" y="-57" on="0"/>
        <pt x="144" y="-41" on="1"/>
        <pt x="144" y="-32" on="0"/>
        <pt x="159" y="-32" on="1"/>
        <pt x="175" y="-32" on="1"/>
        <pt x="182" y="-33" on="0"/>
        <pt x="193" y="-33" on="1"/>
        <pt x="292" y="-33" on="0"/>
        <pt x="470" y="29" on="0"/>
        <pt x="585" y="124" on="0"/>
        <pt x="652" y="233" on="0"/>
        <pt x="652" y="282" on="1"/>
        <pt x="652" y="359" on="0"/>
        <pt x="530" y="450" on="0"/>
        <pt x="434" y="450" on="1"/>
        <pt x="427" y="450" on="1"/>
        <pt x="290" y="447" on="0"/>
        <pt x="42" y="356" on="1"/>
        <pt x="21" y="356" on="0"/>
        <pt x="21" y="387" on="1"/>
        <pt x="21" y="397" on="0"/>
        <pt x="39" y="406" on="0"/>
        <pt x="88" y="420" on="1"/>
        <pt x="267" y="474" on="0"/>
        <pt x="416" y="474" on="1"/>
        <pt x="534" y="474" on="0"/>
        <pt x="686" y="362" on="0"/>
      </contour>
      <contour>
        <pt x="124" y="-102" on="1"/>
        <pt x="122" y="-103" on="1"/>
        <pt x="106" y="-103" on="0"/>
        <pt x="86" y="-66" on="0"/>
        <pt x="86" y="-31" on="1"/>
        <pt x="86" y="93" on="0"/>
        <pt x="226" y="339" on="1"/>
        <pt x="226" y="343" on="0"/>
        <pt x="247" y="378" on="0"/>
        <pt x="254" y="390" on="1"/>
        <pt x="268" y="415" on="0"/>
        <pt x="289" y="415" on="0"/>
        <pt x="317" y="404" on="0"/>
        <pt x="317" y="398" on="1"/>
        <pt x="291" y="353" on="0"/>
        <pt x="263" y="310" on="1"/>
        <pt x="110" y="45" on="0"/>
        <pt x="110" y="-52" on="1"/>
        <pt x="110" y="-63" on="0"/>
        <pt x="124" y="-99" on="0"/>
      </contour>
    </TTGlyph>
    <TTGlyph name="E" xMin="9" yMin="-76" xMax="549" yMax="505">
      <contour>
        <pt x="13" y="183" on="1"/>
        <pt x="42" y="177" on="1"/>
        <pt x="83" y="293" on="0"/>
        <pt x="320" y="471" on="0"/>
        <pt x="432" y="471" on="1"/>
        <pt x="471" y="471" on="0"/>
        <pt x="485" y="463" on="1"/>
        <pt x="495" y="499" on="0"/>
        <pt x="507" y="504" on="1"/>
        <pt x="510" y="505" on="0"/>
        <pt x="514" y="505" on="1"/>
        <pt x="549" y="505" on="0"/>
        <pt x="549" y="492" on="1"/>
        <pt x="547" y="492" on="0"/>
        <pt x="506" y="436" on="0"/>
        <pt x="465" y="366" on="0"/>
        <pt x="465" y="351" on="1"/>
        <pt x="469" y="336" on="1"/>
        <pt x="469" y="334" on="0"/>
        <pt x="467" y="334" on="1"/>
        <pt x="452" y="334" on="0"/>
        <pt x="452" y="406" on="0"/>
        <pt x="475" y="445" on="1"/>
        <pt x="461" y="447" on="0"/>
        <pt x="450" y="447" on="1"/>
        <pt x="346" y="447" on="0"/>
        <pt x="126" y="280" on="0"/>
        <pt x="88" y="175" on="1"/>
        <pt x="211" y="175" on="0"/>
        <pt x="276" y="178" on="1"/>
        <pt x="336" y="182" on="0"/>
        <pt x="401" y="198" on="1"/>
        <pt x="408" y="198" on="0"/>
        <pt x="408" y="193" on="1"/>
        <pt x="408" y="174" on="0"/>
        <pt x="160" y="137" on="0"/>
        <pt x="76" y="135" on="1"/>
        <pt x="73" y="116" on="0"/>
        <pt x="73" y="99" on="1"/>
        <pt x="73" y="32" on="0"/>
        <pt x="163" y="-51" on="0"/>
        <pt x="233" y="-51" on="1"/>
        <pt x="373" y="-51" on="0"/>
        <pt x="480" y="65" on="1"/>
        <pt x="494" y="79" on="0"/>
        <pt x="500" y="79" on="1"/>
        <pt x="504" y="79" on="0"/>
        <pt x="504" y="64" on="0"/>
        <pt x="495" y="54" on="1"/>
        <pt x="441" y="-7" on="0"/>
        <pt x="271" y="-76" on="0"/>
        <pt x="119" y="-76" on="0"/>
        <pt x="24" y="11" on="0"/>
        <pt x="24" y="86" on="1"/>
        <pt x="24" y="108" on="0"/>
        <pt x="29" y="138" on="1"/>
        <pt x="24" y="138" on="0"/>
        <pt x="9" y="173" on="0"/>
        <pt x="9" y="183" on="0"/>
      </contour>
    </TTGlyph>
    <TTGlyph name="Eacute" xMin="9" yMin="-76" xMax="587" yMax="643">
      <contour>
        <pt x="13" y="183" on="1"/>
        <pt x="42" y="177" on="1"/>
        <pt x="83" y="293" on="0"/>
        <pt x="320" y="471" on="0"/>
        <pt x="432" y="471" on="1"/>
        <pt x="471" y="471" on="0"/>
        <pt x="485" y="463" on="1"/>
        <pt x="495" y="499" on="0"/>
        <pt x="507" y="504" on="1"/>
        <pt x="510" y="505" on="0"/>
        <pt x="514" y="505" on="1"/>
        <pt x="549" y="505" on="0"/>
        <pt x="549" y="492" on="1"/>
        <pt x="547" y="492" on="0"/>
        <pt x="506" y="436" on="0"/>
        <pt x="465" y="366" on="0"/>
        <pt x="465" y="351" on="1"/>
        <pt x="469" y="336" on="1"/>
        <pt x="469" y="334" on="0"/>
        <pt x="467" y="334" on="1"/>
        <pt x="452" y="334" on="0"/>
        <pt x="452" y="406" on="0"/>
        <pt x="475" y="445" on="1"/>
        <pt x="461" y="447" on="0"/>
        <pt x="450" y="447" on="1"/>
        <pt x="346" y="447" on="0"/>
        <pt x="126" y="280" on="0"/>
        <pt x="88" y="175" on="1"/>
        <pt x="211" y="175" on="0"/>
        <pt x="276" y="178" on="1"/>
        <pt x="336" y="182" on="0"/>
        <pt x="401" y="198" on="1"/>
        <pt x="408" y="198" on="0"/>
        <pt x="408" y="193" on="1"/>
        <pt x="408" y="174" on="0"/>
        <pt x="160" y="137" on="0"/>
        <pt x="76" y="135" on="1"/>
        <pt x="73" y="116" on="0"/>
        <pt x="73" y="99" on="1"/>
        <pt x="73" y="32" on="0"/>
        <pt x="163" y="-51" on="0"/>
        <pt x="233" y="-51" on="1"/>
        <pt x="373" y="-51" on="0"/>
        <pt x="480" y="65" on="1"/>
        <pt x="494" y="79" on="0"/>
        <pt x="500" y="79" on="1"/>
        <pt x="504" y="79" on="0"/>
        <pt x="504" y="64" on="0"/>
        <pt x="495" y="54" on="1"/>
        <pt x="441" y="-7" on="0"/>
        <pt x="271" y="-76" on="0"/>
        <pt x="119" y="-76" on="0"/>
        <pt x="24" y="11" on="0"/>
        <pt x="24" y="86" on="1"/>
        <pt x="24" y="108" on="0"/>
        <pt x="29" y="138" on="1"/>
        <pt x="24" y="138" on="0"/>
        <pt x="9" y="173" on="0"/>
        <pt x="9" y="183" on="0"/>
      </contour>
      <contour>
        <pt x="455" y="553" on="0"/>
        <pt x="572" y="643" on="0"/>
        <pt x="587" y="643" on="0"/>
        <pt x="587" y="620" on="0"/>
        <pt x="576" y="609" on="0"/>
        <pt x="464" y="542" on="0"/>
        <pt x="455" y="542" on="0"/>
      </contour>
    </TTGlyph>
    <TTGlyph name="Ecircumflex" xMin="9" yMin="-76" xMax="591" yMax="637">
      <contour>
        <pt x="13" y="183" on="1"/>
        <pt x="42" y="177" on="1"/>
        <pt x="83" y="293" on="0"/>
        <pt x="320" y="471" on="0"/>
        <pt x="432" y="471" on="1"/>
        <pt x="471" y="471" on="0"/>
        <pt x="485" y="463" on="1"/>
        <pt x="495" y="499" on="0"/>
        <pt x="507" y="504" on="1"/>
        <pt x="510" y="505" on="0"/>
        <pt x="514" y="505" on="1"/>
        <pt x="549" y="505" on="0"/>
        <pt x="549" y="492" on="1"/>
        <pt x="547" y="492" on="0"/>
        <pt x="506" y="436" on="0"/>
        <pt x="465" y="366" on="0"/>
        <pt x="465" y="351" on="1"/>
        <pt x="469" y="336" on="1"/>
        <pt x="469" y="334" on="0"/>
        <pt x="467" y="334" on="1"/>
        <pt x="452" y="334" on="0"/>
        <pt x="452" y="406" on="0"/>
        <pt x="475" y="445" on="1"/>
        <pt x="461" y="447" on="0"/>
        <pt x="450" y="447" on="1"/>
        <pt x="346" y="447" on="0"/>
        <pt x="126" y="280" on="0"/>
        <pt x="88" y="175" on="1"/>
        <pt x="211" y="175" on="0"/>
        <pt x="276" y="178" on="1"/>
        <pt x="336" y="182" on="0"/>
        <pt x="401" y="198" on="1"/>
        <pt x="408" y="198" on="0"/>
        <pt x="408" y="193" on="1"/>
        <pt x="408" y="174" on="0"/>
        <pt x="160" y="137" on="0"/>
        <pt x="76" y="135" on="1"/>
        <pt x="73" y="116" on="0"/>
        <pt x="73" y="99" on="1"/>
        <pt x="73" y="32" on="0"/>
        <pt x="163" y="-51" on="0"/>
        <pt x="233" y="-51" on="1"/>
        <pt x="373" y="-51" on="0"/>
        <pt x="480" y="65" on="1"/>
        <pt x="494" y="79" on="0"/>
        <pt x="500" y="79" on="1"/>
        <pt x="504" y="79" on="0"/>
        <pt x="504" y="64" on="0"/>
        <pt x="495" y="54" on="1"/>
        <pt x="441" y="-7" on="0"/>
        <pt x="271" y="-76" on="0"/>
        <pt x="119" y="-76" on="0"/>
        <pt x="24" y="11" on="0"/>
        <pt x="24" y="86" on="1"/>
        <pt x="24" y="108" on="0"/>
        <pt x="29" y="138" on="1"/>
        <pt x="24" y="138" on="0"/>
        <pt x="9" y="173" on="0"/>
        <pt x="9" y="183" on="0"/>
      </contour>
      <contour>
        <pt x="399" y="544" on="0"/>
        <pt x="385" y="544" on="0"/>
        <pt x="385" y="560" on="0"/>
        <pt x="480" y="635" on="0"/>
        <pt x="488" y="637" on="1"/>
        <pt x="492" y="635" on="1"/>
        <pt x="519" y="605" on="0"/>
        <pt x="586" y="554" on="1"/>
        <pt x="591" y="547" on="1"/>
        <pt x="587" y="541" on="1"/>
        <pt x="573" y="542" on="0"/>
        <pt x="490" y="594" on="0"/>
        <pt x="477" y="608" on="1"/>
      </contour>
    </TTGlyph>
    <TTGlyph name="Edieresis" xMin="9" yMin="-76" xMax="556" yMax="606">
      <contour>
        <pt x="13" y="183" on="1"/>
        <pt x="42" y="177" on="1"/>
        <pt x="83" y="293" on="0"/>
        <pt x="320" y="471" on="0"/>
        <pt x="432" y="471" on="1"/>
        <pt x="471" y="471" on="0"/>
        <pt x="485" y="463" on="1"/>
        <pt x="495" y="499" on="0"/>
        <pt x="507" y="504" on="1"/>
        <pt x="510" y="505" on="0"/>
        <pt x="514" y="505" on="1"/>
        <pt x="549" y="505" on="0"/>
        <pt x="549" y="492" on="1"/>
        <pt x="547" y="492" on="0"/>
        <pt x="506" y="436" on="0"/>
        <pt x="465" y="366" on="0"/>
        <pt x="465" y="351" on="1"/>
        <pt x="469" y="336" on="1"/>
        <pt x="469" y="334" on="0"/>
        <pt x="467" y="334" on="1"/>
        <pt x="452" y="334" on="0"/>
        <pt x="452" y="406" on="0"/>
        <pt x="475" y="445" on="1"/>
        <pt x="461" y="447" on="0"/>
        <pt x="450" y="447" on="1"/>
        <pt x="346" y="447" on="0"/>
        <pt x="126" y="280" on="0"/>
        <pt x="88" y="175" on="1"/>
        <pt x="211" y="175" on="0"/>
        <pt x="276" y="178" on="1"/>
        <pt x="336" y="182" on="0"/>
        <pt x="401" y="198" on="1"/>
        <pt x="408" y="198" on="0"/>
        <pt x="408" y="193" on="1"/>
        <pt x="408" y="174" on="0"/>
        <pt x="160" y="137" on="0"/>
        <pt x="76" y="135" on="1"/>
        <pt x="73" y="116" on="0"/>
        <pt x="73" y="99" on="1"/>
        <pt x="73" y="32" on="0"/>
        <pt x="163" y="-51" on="0"/>
        <pt x="233" y="-51" on="1"/>
        <pt x="373" y="-51" on="0"/>
        <pt x="480" y="65" on="1"/>
        <pt x="494" y="79" on="0"/>
        <pt x="500" y="79" on="1"/>
        <pt x="504" y="79" on="0"/>
        <pt x="504" y="64" on="0"/>
        <pt x="495" y="54" on="1"/>
        <pt x="441" y="-7" on="0"/>
        <pt x="271" y="-76" on="0"/>
        <pt x="119" y="-76" on="0"/>
        <pt x="24" y="11" on="0"/>
        <pt x="24" y="86" on="1"/>
        <pt x="24" y="108" on="0"/>
        <pt x="29" y="138" on="1"/>
        <pt x="24" y="138" on="0"/>
        <pt x="9" y="173" on="0"/>
        <pt x="9" y="183" on="0"/>
      </contour>
      <contour>
        <pt x="514" y="542" on="1"/>
        <pt x="508" y="542" on="0"/>
        <pt x="498" y="557" on="0"/>
        <pt x="498" y="575" on="0"/>
        <pt x="542" y="606" on="0"/>
        <pt x="554" y="606" on="1"/>
        <pt x="556" y="605" on="1"/>
        <pt x="556" y="606" on="1"/>
        <pt x="556" y="605" on="1"/>
        <pt x="552" y="599" on="0"/>
        <pt x="546" y="593" on="1"/>
        <pt x="534" y="563" on="1"/>
        <pt x="526" y="542" on="0"/>
      </contour>
      <contour>
        <pt x="422" y="542" on="1"/>
        <pt x="417" y="542" on="0"/>
        <pt x="407" y="557" on="0"/>
        <pt x="407" y="575" on="0"/>
        <pt x="451" y="606" on="0"/>
        <pt x="462" y="606" on="1"/>
        <pt x="465" y="605" on="1"/>
        <pt x="465" y="606" on="1"/>
        <pt x="465" y="605" on="1"/>
        <pt x="461" y="599" on="0"/>
        <pt x="455" y="593" on="1"/>
        <pt x="442" y="563" on="1"/>
        <pt x="432" y="542" on="0"/>
      </contour>
    </TTGlyph>
    <TTGlyph name="Egrave" xMin="9" yMin="-76" xMax="549" yMax="658">
      <contour>
        <pt x="13" y="183" on="1"/>
        <pt x="42" y="177" on="1"/>
        <pt x="83" y="293" on="0"/>
        <pt x="320" y="471" on="0"/>
        <pt x="432" y="471" on="1"/>
        <pt x="471" y="471" on="0"/>
        <pt x="485" y="463" on="1"/>
        <pt x="495" y="499" on="0"/>
        <pt x="507" y="504" on="1"/>
        <pt x="510" y="505" on="0"/>
        <pt x="514" y="505" on="1"/>
        <pt x="549" y="505" on="0"/>
        <pt x="549" y="492" on="1"/>
        <pt x="547" y="492" on="0"/>
        <pt x="506" y="436" on="0"/>
        <pt x="465" y="366" on="0"/>
        <pt x="465" y="351" on="1"/>
        <pt x="469" y="336" on="1"/>
        <pt x="469" y="334" on="0"/>
        <pt x="467" y="334" on="1"/>
        <pt x="452" y="334" on="0"/>
        <pt x="452" y="406" on="0"/>
        <pt x="475" y="445" on="1"/>
        <pt x="461" y="447" on="0"/>
        <pt x="450" y="447" on="1"/>
        <pt x="346" y="447" on="0"/>
        <pt x="126" y="280" on="0"/>
        <pt x="88" y="175" on="1"/>
        <pt x="211" y="175" on="0"/>
        <pt x="276" y="178" on="1"/>
        <pt x="336" y="182" on="0"/>
        <pt x="401" y="198" on="1"/>
        <pt x="408" y="198" on="0"/>
        <pt x="408" y="193" on="1"/>
        <pt x="408" y="174" on="0"/>
        <pt x="160" y="137" on="0"/>
        <pt x="76" y="135" on="1"/>
        <pt x="73" y="116" on="0"/>
        <pt x="73" y="99" on="1"/>
        <pt x="73" y="32" on="0"/>
        <pt x="163" y="-51" on="0"/>
        <pt x="233" y="-51" on="1"/>
        <pt x="373" y="-51" on="0"/>
        <pt x="480" y="65" on="1"/>
        <pt x="494" y="79" on="0"/>
        <pt x="500" y="79" on="1"/>
        <pt x="504" y="79" on="0"/>
        <pt x="504" y="64" on="0"/>
        <pt x="495" y="54" on="1"/>
        <pt x="441" y="-7" on="0"/>
        <pt x="271" y="-76" on="0"/>
        <pt x="119" y="-76" on="0"/>
        <pt x="24" y="11" on="0"/>
        <pt x="24" y="86" on="1"/>
        <pt x="24" y="108" on="0"/>
        <pt x="29" y="138" on="1"/>
        <pt x="24" y="138" on="0"/>
        <pt x="9" y="173" on="0"/>
        <pt x="9" y="183" on="0"/>
      </contour>
      <contour>
        <pt x="392" y="638" on="1"/>
        <pt x="392" y="645" on="1"/>
        <pt x="392" y="658" on="0"/>
        <pt x="407" y="658" on="0"/>
        <pt x="532" y="563" on="0"/>
        <pt x="532" y="551" on="0"/>
        <pt x="525" y="551" on="1"/>
        <pt x="505" y="558" on="0"/>
        <pt x="433" y="602" on="0"/>
        <pt x="418" y="611" on="0"/>
        <pt x="408" y="619" on="0"/>
        <pt x="400" y="624" on="0"/>
        <pt x="396" y="629" on="0"/>
        <pt x="394" y="630" on="1"/>
        <pt x="392" y="632" on="0"/>
      </contour>
    </TTGlyph>
    <TTGlyph name="Eth" xMin="21" yMin="-103" xMax="686" yMax="474">
      <contour>
        <pt x="686" y="269" on="1"/>
        <pt x="686" y="212" on="0"/>
        <pt x="621" y="96" on="0"/>
        <pt x="508" y="2" on="0"/>
        <pt x="337" y="-57" on="0"/>
        <pt x="144" y="-57" on="0"/>
        <pt x="144" y="-41" on="1"/>
        <pt x="144" y="-32" on="0"/>
        <pt x="159" y="-32" on="1"/>
        <pt x="175" y="-32" on="1"/>
        <pt x="182" y="-33" on="0"/>
        <pt x="193" y="-33" on="1"/>
        <pt x="292" y="-33" on="0"/>
        <pt x="470" y="29" on="0"/>
        <pt x="585" y="124" on="0"/>
        <pt x="652" y="233" on="0"/>
        <pt x="652" y="282" on="1"/>
        <pt x="652" y="359" on="0"/>
        <pt x="530" y="450" on="0"/>
        <pt x="434" y="450" on="1"/>
        <pt x="427" y="450" on="1"/>
        <pt x="290" y="447" on="0"/>
        <pt x="42" y="356" on="1"/>
        <pt x="21" y="356" on="0"/>
        <pt x="21" y="387" on="1"/>
        <pt x="21" y="397" on="0"/>
        <pt x="39" y="406" on="0"/>
        <pt x="88" y="420" on="1"/>
        <pt x="267" y="474" on="0"/>
        <pt x="416" y="474" on="1"/>
        <pt x="534" y="474" on="0"/>
        <pt x="686" y="362" on="0"/>
      </contour>
      <contour>
        <pt x="124" y="-102" on="1"/>
        <pt x="122" y="-103" on="1"/>
        <pt x="106" y="-103" on="0"/>
        <pt x="86" y="-66" on="0"/>
        <pt x="86" y="19" on="0"/>
        <pt x="108" y="89" on="1"/>
        <pt x="105" y="89" on="1"/>
        <pt x="101" y="87" on="0"/>
        <pt x="92" y="87" on="1"/>
        <pt x="47" y="87" on="0"/>
        <pt x="47" y="123" on="0"/>
        <pt x="66" y="123" on="1"/>
        <pt x="120" y="123" on="1"/>
        <pt x="153" y="211" on="0"/>
        <pt x="226" y="339" on="1"/>
        <pt x="226" y="343" on="0"/>
        <pt x="247" y="378" on="0"/>
        <pt x="254" y="390" on="1"/>
        <pt x="268" y="415" on="0"/>
        <pt x="289" y="415" on="0"/>
        <pt x="316" y="404" on="0"/>
        <pt x="317" y="399" on="1"/>
        <pt x="311" y="399" on="0"/>
        <pt x="185" y="171" on="0"/>
        <pt x="165" y="124" on="1"/>
        <pt x="193" y="124" on="1"/>
        <pt x="218" y="124" on="0"/>
        <pt x="248" y="126" on="1"/>
        <pt x="248" y="123" on="1"/>
        <pt x="248" y="110" on="0"/>
        <pt x="185" y="100" on="1"/>
        <pt x="151" y="95" on="1"/>
        <pt x="110" y="3" on="0"/>
        <pt x="110" y="-52" on="1"/>
        <pt x="110" y="-63" on="0"/>
        <pt x="124" y="-99" on="0"/>
      </contour>
    </TTGlyph>
    <TTGlyph name="Euro" xMin="14" yMin="-36" xMax="468" yMax="437">
      <contour>
        <pt x="53" y="290" on="1"/>
        <pt x="73" y="288" on="1"/>
        <pt x="103" y="288" on="0"/>
        <pt x="106" y="291" on="1"/>
        <pt x="237" y="437" on="0"/>
        <pt x="367" y="437" on="1"/>
        <pt x="392" y="437" on="0"/>
        <pt x="431" y="400" on="0"/>
        <pt x="431" y="374" on="1"/>
        <pt x="431" y="371" on="0"/>
        <pt x="426" y="365" on="0"/>
        <pt x="424" y="365" on="1"/>
        <pt x="423" y="366" on="0"/>
        <pt x="423" y="367" on="1"/>
        <pt x="423" y="372" on="1"/>
        <pt x="423" y="397" on="0"/>
        <pt x="324" y="397" on="0"/>
        <pt x="207" y="340" on="0"/>
        <pt x="166" y="298" on="1"/>
        <pt x="166" y="297" on="0"/>
        <pt x="167" y="296" on="1"/>
        <pt x="278" y="296" on="1"/>
        <pt x="379" y="306" on="1"/>
        <pt x="389" y="306" on="0"/>
        <pt x="389" y="302" on="0"/>
        <pt x="385" y="300" on="1"/>
        <pt x="302" y="265" on="0"/>
        <pt x="236" y="249" on="0"/>
        <pt x="121" y="240" on="1"/>
        <pt x="111" y="230" on="0"/>
        <pt x="93" y="198" on="1"/>
        <pt x="94" y="197" on="0"/>
        <pt x="111" y="197" on="1"/>
        <pt x="314" y="206" on="1"/>
        <pt x="318" y="206" on="1"/>
        <pt x="324" y="206" on="0"/>
        <pt x="324" y="203" on="1"/>
        <pt x="323" y="202" on="0"/>
        <pt x="321" y="201" on="1"/>
        <pt x="234" y="161" on="0"/>
        <pt x="73" y="142" on="1"/>
        <pt x="63" y="112" on="0"/>
        <pt x="63" y="87" on="1"/>
        <pt x="63" y="43" on="0"/>
        <pt x="135" y="5" on="0"/>
        <pt x="215" y="5" on="1"/>
        <pt x="257" y="5" on="0"/>
        <pt x="426" y="77" on="0"/>
        <pt x="462" y="109" on="1"/>
        <pt x="467" y="109" on="0"/>
        <pt x="468" y="108" on="1"/>
        <pt x="468" y="105" on="0"/>
        <pt x="467" y="102" on="1"/>
        <pt x="349" y="-36" on="0"/>
        <pt x="189" y="-36" on="1"/>
        <pt x="41" y="-36" on="0"/>
        <pt x="41" y="135" on="1"/>
        <pt x="41" y="142" on="0"/>
        <pt x="35" y="142" on="1"/>
        <pt x="34" y="142" on="1"/>
        <pt x="24" y="142" on="0"/>
        <pt x="18" y="155" on="1"/>
        <pt x="18" y="162" on="1"/>
        <pt x="18" y="178" on="0"/>
        <pt x="14" y="199" on="1"/>
        <pt x="46" y="197" on="0"/>
        <pt x="55" y="197" on="1"/>
        <pt x="57" y="201" on="0"/>
        <pt x="75" y="240" on="1"/>
        <pt x="45" y="266" on="0"/>
        <pt x="45" y="283" on="1"/>
        <pt x="45" y="290" on="0"/>
      </contour>
    </TTGlyph>
    <TTGlyph name="F" xMin="27" yMin="-130" xMax="508" yMax="501">
      <contour>
        <pt x="297" y="-88" on="1"/>
        <pt x="302" y="-125" on="1"/>
        <pt x="302" y="-130" on="0"/>
        <pt x="301" y="-130" on="1"/>
        <pt x="293" y="-130" on="0"/>
        <pt x="281" y="-94" on="0"/>
        <pt x="281" y="-74" on="1"/>
        <pt x="281" y="-7" on="0"/>
        <pt x="370" y="171" on="1"/>
        <pt x="349" y="166" on="0"/>
        <pt x="296" y="157" on="1"/>
        <pt x="188" y="135" on="0"/>
        <pt x="98" y="135" on="0"/>
        <pt x="98" y="180" on="1"/>
        <pt x="98" y="182" on="0"/>
        <pt x="100" y="183" on="1"/>
        <pt x="131" y="175" on="0"/>
        <pt x="260" y="175" on="0"/>
        <pt x="379" y="188" on="1"/>
        <pt x="433" y="298" on="1"/>
        <pt x="465" y="368" on="0"/>
        <pt x="465" y="415" on="1"/>
        <pt x="465" y="484" on="0"/>
        <pt x="388" y="484" on="1"/>
        <pt x="322" y="484" on="0"/>
        <pt x="109" y="382" on="0"/>
        <pt x="47" y="321" on="1"/>
        <pt x="45" y="319" on="0"/>
        <pt x="41" y="319" on="1"/>
        <pt x="27" y="319" on="0"/>
        <pt x="27" y="347" on="1"/>
        <pt x="27" y="381" on="0"/>
        <pt x="171" y="456" on="0"/>
        <pt x="343" y="501" on="0"/>
        <pt x="394" y="501" on="1"/>
        <pt x="508" y="501" on="0"/>
        <pt x="508" y="399" on="1"/>
        <pt x="508" y="353" on="0"/>
        <pt x="482" y="292" on="0"/>
        <pt x="419" y="193" on="1"/>
        <pt x="474" y="204" on="0"/>
        <pt x="493" y="204" on="0"/>
        <pt x="493" y="197" on="0"/>
        <pt x="487" y="193" on="0"/>
        <pt x="470" y="189" on="0"/>
        <pt x="462" y="188" on="1"/>
        <pt x="435" y="182" on="0"/>
        <pt x="411" y="178" on="1"/>
        <pt x="297" y="-5" on="0"/>
      </contour>
    </TTGlyph>
    <TTGlyph name="G" xMin="24" yMin="-246" xMax="623" yMax="498">
      <contour>
        <pt x="297" y="192" on="1"/>
        <pt x="356" y="186" on="1"/>
        <pt x="470" y="186" on="0"/>
        <pt x="530" y="192" on="1"/>
        <pt x="536" y="212" on="0"/>
        <pt x="553" y="212" on="0"/>
        <pt x="575" y="199" on="1"/>
        <pt x="605" y="204" on="1"/>
        <pt x="613" y="204" on="0"/>
        <pt x="613" y="193" on="0"/>
        <pt x="580" y="187" on="1"/>
        <pt x="508" y="5" on="0"/>
        <pt x="331" y="-246" on="0"/>
        <pt x="273" y="-246" on="1"/>
        <pt x="255" y="-246" on="0"/>
        <pt x="255" y="-237" on="1"/>
        <pt x="255" y="-234" on="0"/>
        <pt x="268" y="-229" on="1"/>
        <pt x="313" y="-212" on="0"/>
        <pt x="320" y="-207" on="1"/>
        <pt x="400" y="-137" on="0"/>
        <pt x="483" y="70" on="1"/>
        <pt x="345" y="-76" on="0"/>
        <pt x="198" y="-76" on="1"/>
        <pt x="119" y="-76" on="0"/>
        <pt x="24" y="10" on="0"/>
        <pt x="24" y="148" on="0"/>
        <pt x="95" y="282" on="0"/>
        <pt x="209" y="392" on="0"/>
        <pt x="367" y="463" on="0"/>
        <pt x="503" y="463" on="0"/>
        <pt x="542" y="445" on="1"/>
        <pt x="555" y="468" on="0"/>
        <pt x="560" y="476" on="1"/>
        <pt x="577" y="498" on="0"/>
        <pt x="623" y="498" on="0"/>
        <pt x="623" y="488" on="1"/>
        <pt x="623" y="485" on="0"/>
        <pt x="577" y="442" on="0"/>
        <pt x="568" y="431" on="1"/>
        <pt x="581" y="423" on="0"/>
        <pt x="600" y="404" on="0"/>
        <pt x="600" y="402" on="1"/>
        <pt x="600" y="401" on="0"/>
        <pt x="573" y="368" on="0"/>
        <pt x="560" y="352" on="1"/>
        <pt x="525" y="307" on="0"/>
        <pt x="523" y="293" on="1"/>
        <pt x="526" y="290" on="1"/>
        <pt x="526" y="285" on="0"/>
        <pt x="521" y="285" on="1"/>
        <pt x="506" y="285" on="0"/>
        <pt x="506" y="315" on="1"/>
        <pt x="506" y="371" on="0"/>
        <pt x="534" y="429" on="1"/>
        <pt x="497" y="448" on="0"/>
        <pt x="452" y="448" on="1"/>
        <pt x="362" y="448" on="0"/>
        <pt x="178" y="335" on="0"/>
        <pt x="62" y="169" on="0"/>
        <pt x="62" y="27" on="0"/>
        <pt x="153" y="-51" on="0"/>
        <pt x="228" y="-51" on="1"/>
        <pt x="343" y="-51" on="0"/>
        <pt x="479" y="105" on="1"/>
        <pt x="505" y="133" on="0"/>
        <pt x="513" y="147" on="1"/>
        <pt x="523" y="176" on="1"/>
        <pt x="365" y="145" on="0"/>
        <pt x="325" y="145" on="1"/>
        <pt x="313" y="145" on="0"/>
        <pt x="293" y="169" on="0"/>
        <pt x="293" y="188" on="1"/>
        <pt x="293" y="192" on="0"/>
      </contour>
      <contour>
        <pt x="576" y="401" on="1"/>
        <pt x="565" y="411" on="1"/>
        <pt x="534" y="360" on="0"/>
        <pt x="523" y="323" on="1"/>
        <pt x="538" y="342" on="0"/>
      </contour>
    </TTGlyph>
    <TTGlyph name="H" xMin="9" yMin="-148" xMax="661" yMax="459">
      <contour>
        <pt x="13" y="183" on="1"/>
        <pt x="32" y="178" on="1"/>
        <pt x="136" y="178" on="0"/>
        <pt x="156" y="181" on="1"/>
        <pt x="212" y="311" on="0"/>
        <pt x="294" y="452" on="1"/>
        <pt x="301" y="459" on="0"/>
        <pt x="355" y="459" on="0"/>
        <pt x="355" y="446" on="1"/>
        <pt x="307" y="369" on="1"/>
        <pt x="247" y="267" on="0"/>
        <pt x="208" y="183" on="1"/>
        <pt x="373" y="191" on="1"/>
        <pt x="410" y="193" on="0"/>
        <pt x="477" y="203" on="1"/>
        <pt x="518" y="283" on="0"/>
        <pt x="610" y="430" on="0"/>
        <pt x="634" y="430" on="0"/>
        <pt x="661" y="419" on="0"/>
        <pt x="661" y="413" on="1"/>
        <pt x="650" y="398" on="0"/>
        <pt x="623" y="360" on="0"/>
        <pt x="609" y="341" on="1"/>
        <pt x="459" y="141" on="0"/>
        <pt x="459" y="43" on="1"/>
        <pt x="459" y="-2" on="0"/>
        <pt x="495" y="-2" on="1"/>
        <pt x="529" y="3" on="1"/>
        <pt x="532" y="3" on="0"/>
        <pt x="532" y="1" on="1"/>
        <pt x="532" y="-4" on="0"/>
        <pt x="496" y="-17" on="0"/>
        <pt x="486" y="-17" on="1"/>
        <pt x="463" y="-17" on="0"/>
        <pt x="434" y="23" on="0"/>
        <pt x="434" y="53" on="1"/>
        <pt x="434" y="110" on="0"/>
        <pt x="468" y="181" on="1"/>
        <pt x="306" y="142" on="0"/>
        <pt x="189" y="142" on="1"/>
        <pt x="116" y="-19" on="0"/>
        <pt x="116" y="-98" on="1"/>
        <pt x="116" y="-122" on="0"/>
        <pt x="128" y="-144" on="0"/>
        <pt x="128" y="-148" on="0"/>
        <pt x="123" y="-148" on="1"/>
        <pt x="87" y="-148" on="0"/>
        <pt x="87" y="2" on="0"/>
        <pt x="139" y="137" on="1"/>
        <pt x="81" y="133" on="0"/>
        <pt x="58" y="133" on="1"/>
        <pt x="9" y="133" on="0"/>
        <pt x="9" y="180" on="1"/>
        <pt x="9" y="183" on="0"/>
      </contour>
    </TTGlyph>
    <TTGlyph name="I" xMin="-15" yMin="-68" xMax="459" yMax="481">
      <contour>
        <pt x="-10" y="-11" on="1"/>
        <pt x="49" y="-16" on="1"/>
        <pt x="106" y="-16" on="1"/>
        <pt x="106" y="-8" on="1"/>
        <pt x="106" y="95" on="0"/>
        <pt x="350" y="426" on="1"/>
        <pt x="160" y="410" on="0"/>
        <pt x="124" y="354" on="1"/>
        <pt x="123" y="351" on="0"/>
        <pt x="120" y="340" on="1"/>
        <pt x="116" y="319" on="0"/>
        <pt x="106" y="319" on="1"/>
        <pt x="103" y="319" on="0"/>
        <pt x="103" y="323" on="1"/>
        <pt x="103" y="439" on="0"/>
        <pt x="368" y="450" on="1"/>
        <pt x="381" y="481" on="0"/>
        <pt x="401" y="481" on="1"/>
        <pt x="414" y="481" on="0"/>
        <pt x="448" y="469" on="0"/>
        <pt x="448" y="462" on="1"/>
        <pt x="448" y="459" on="0"/>
        <pt x="441" y="451" on="1"/>
        <pt x="459" y="450" on="0"/>
        <pt x="459" y="448" on="1"/>
        <pt x="459" y="444" on="0"/>
        <pt x="446" y="430" on="0"/>
        <pt x="441" y="430" on="1"/>
        <pt x="423" y="430" on="1"/>
        <pt x="293" y="285" on="0"/>
        <pt x="135" y="37" on="0"/>
        <pt x="132" y="-15" on="1"/>
        <pt x="237" y="-13" on="0"/>
        <pt x="292" y="1" on="1"/>
        <pt x="296" y="2" on="0"/>
        <pt x="307" y="2" on="0"/>
        <pt x="307" y="-2" on="1"/>
        <pt x="307" y="-9" on="0"/>
        <pt x="282" y="-13" on="1"/>
        <pt x="136" y="-41" on="1"/>
        <pt x="144" y="-52" on="0"/>
        <pt x="165" y="-52" on="1"/>
        <pt x="203" y="-45" on="1"/>
        <pt x="208" y="-45" on="0"/>
        <pt x="208" y="-47" on="1"/>
        <pt x="205" y="-54" on="0"/>
        <pt x="163" y="-68" on="0"/>
        <pt x="152" y="-68" on="1"/>
        <pt x="125" y="-68" on="0"/>
        <pt x="113" y="-44" on="1"/>
        <pt x="39" y="-57" on="0"/>
        <pt x="-5" y="-57" on="0"/>
        <pt x="-15" y="-40" on="0"/>
        <pt x="-15" y="-16" on="1"/>
        <pt x="-15" y="-11" on="0"/>
      </contour>
    </TTGlyph>
    <TTGlyph name="Iacute" xMin="-15" yMin="-68" xMax="552" yMax="632">
      <contour>
        <pt x="-10" y="-11" on="1"/>
        <pt x="49" y="-16" on="1"/>
        <pt x="106" y="-16" on="1"/>
        <pt x="106" y="-8" on="1"/>
        <pt x="106" y="95" on="0"/>
        <pt x="350" y="426" on="1"/>
        <pt x="160" y="410" on="0"/>
        <pt x="124" y="354" on="1"/>
        <pt x="123" y="351" on="0"/>
        <pt x="120" y="340" on="1"/>
        <pt x="116" y="319" on="0"/>
        <pt x="106" y="319" on="1"/>
        <pt x="103" y="319" on="0"/>
        <pt x="103" y="323" on="1"/>
        <pt x="103" y="439" on="0"/>
        <pt x="368" y="450" on="1"/>
        <pt x="381" y="481" on="0"/>
        <pt x="401" y="481" on="1"/>
        <pt x="414" y="481" on="0"/>
        <pt x="448" y="469" on="0"/>
        <pt x="448" y="462" on="1"/>
        <pt x="448" y="459" on="0"/>
        <pt x="441" y="451" on="1"/>
        <pt x="459" y="450" on="0"/>
        <pt x="459" y="448" on="1"/>
        <pt x="459" y="444" on="0"/>
        <pt x="446" y="430" on="0"/>
        <pt x="441" y="430" on="1"/>
        <pt x="423" y="430" on="1"/>
        <pt x="293" y="285" on="0"/>
        <pt x="135" y="37" on="0"/>
        <pt x="132" y="-15" on="1"/>
        <pt x="237" y="-13" on="0"/>
        <pt x="292" y="1" on="1"/>
        <pt x="296" y="2" on="0"/>
        <pt x="307" y="2" on="0"/>
        <pt x="307" y="-2" on="1"/>
        <pt x="307" y="-9" on="0"/>
        <pt x="282" y="-13" on="1"/>
        <pt x="136" y="-41" on="1"/>
        <pt x="144" y="-52" on="0"/>
        <pt x="165" y="-52" on="1"/>
        <pt x="203" y="-45" on="1"/>
        <pt x="208" y="-45" on="0"/>
        <pt x="208" y="-47" on="1"/>
        <pt x="205" y="-54" on="0"/>
        <pt x="163" y="-68" on="0"/>
        <pt x="152" y="-68" on="1"/>
        <pt x="125" y="-68" on="0"/>
        <pt x="113" y="-44" on="1"/>
        <pt x="39" y="-57" on="0"/>
        <pt x="-5" y="-57" on="0"/>
        <pt x="-15" y="-40" on="0"/>
        <pt x="-15" y="-16" on="1"/>
        <pt x="-15" y="-11" on="0"/>
      </contour>
      <contour>
        <pt x="542" y="632" on="1"/>
        <pt x="552" y="632" on="0"/>
        <pt x="552" y="609" on="0"/>
        <pt x="539" y="597" on="0"/>
        <pt x="429" y="532" on="0"/>
        <pt x="419" y="532" on="0"/>
        <pt x="419" y="542" on="0"/>
        <pt x="537" y="632" on="0"/>
      </contour>
    </TTGlyph>
    <TTGlyph name="Icircumflex" xMin="-15" yMin="-68" xMax="546" yMax="611">
      <contour>
        <pt x="-10" y="-11" on="1"/>
        <pt x="49" y="-16" on="1"/>
        <pt x="106" y="-16" on="1"/>
        <pt x="106" y="-8" on="1"/>
        <pt x="106" y="95" on="0"/>
        <pt x="350" y="426" on="1"/>
        <pt x="160" y="410" on="0"/>
        <pt x="124" y="354" on="1"/>
        <pt x="123" y="351" on="0"/>
        <pt x="120" y="340" on="1"/>
        <pt x="116" y="319" on="0"/>
        <pt x="106" y="319" on="1"/>
        <pt x="103" y="319" on="0"/>
        <pt x="103" y="323" on="1"/>
        <pt x="103" y="439" on="0"/>
        <pt x="368" y="450" on="1"/>
        <pt x="381" y="481" on="0"/>
        <pt x="401" y="481" on="1"/>
        <pt x="414" y="481" on="0"/>
        <pt x="448" y="469" on="0"/>
        <pt x="448" y="462" on="1"/>
        <pt x="448" y="459" on="0"/>
        <pt x="441" y="451" on="1"/>
        <pt x="459" y="450" on="0"/>
        <pt x="459" y="448" on="1"/>
        <pt x="459" y="444" on="0"/>
        <pt x="446" y="430" on="0"/>
        <pt x="441" y="430" on="1"/>
        <pt x="423" y="430" on="1"/>
        <pt x="293" y="285" on="0"/>
        <pt x="135" y="37" on="0"/>
        <pt x="132" y="-15" on="1"/>
        <pt x="237" y="-13" on="0"/>
        <pt x="292" y="1" on="1"/>
        <pt x="296" y="2" on="0"/>
        <pt x="307" y="2" on="0"/>
        <pt x="307" y="-2" on="1"/>
        <pt x="307" y="-9" on="0"/>
        <pt x="282" y="-13" on="1"/>
        <pt x="136" y="-41" on="1"/>
        <pt x="144" y="-52" on="0"/>
        <pt x="165" y="-52" on="1"/>
        <pt x="203" y="-45" on="1"/>
        <pt x="208" y="-45" on="0"/>
        <pt x="208" y="-47" on="1"/>
        <pt x="205" y="-54" on="0"/>
        <pt x="163" y="-68" on="0"/>
        <pt x="152" y="-68" on="1"/>
        <pt x="125" y="-68" on="0"/>
        <pt x="113" y="-44" on="1"/>
        <pt x="39" y="-57" on="0"/>
        <pt x="-5" y="-57" on="0"/>
        <pt x="-15" y="-40" on="0"/>
        <pt x="-15" y="-16" on="1"/>
        <pt x="-15" y="-11" on="0"/>
      </contour>
      <contour>
        <pt x="432" y="581" on="1"/>
        <pt x="356" y="518" on="0"/>
        <pt x="340" y="518" on="0"/>
        <pt x="340" y="533" on="0"/>
        <pt x="435" y="609" on="0"/>
        <pt x="443" y="611" on="1"/>
        <pt x="447" y="609" on="1"/>
        <pt x="478" y="575" on="0"/>
        <pt x="541" y="527" on="1"/>
        <pt x="546" y="520" on="1"/>
        <pt x="542" y="514" on="1"/>
        <pt x="528" y="516" on="0"/>
        <pt x="445" y="568" on="0"/>
      </contour>
    </TTGlyph>
    <TTGlyph name="Idieresis" xMin="-15" yMin="-68" xMax="516" yMax="600">
      <contour>
        <pt x="-10" y="-11" on="1"/>
        <pt x="49" y="-16" on="1"/>
        <pt x="106" y="-16" on="1"/>
        <pt x="106" y="-8" on="1"/>
        <pt x="106" y="95" on="0"/>
        <pt x="350" y="426" on="1"/>
        <pt x="160" y="410" on="0"/>
        <pt x="124" y="354" on="1"/>
        <pt x="123" y="351" on="0"/>
        <pt x="120" y="340" on="1"/>
        <pt x="116" y="319" on="0"/>
        <pt x="106" y="319" on="1"/>
        <pt x="103" y="319" on="0"/>
        <pt x="103" y="323" on="1"/>
        <pt x="103" y="439" on="0"/>
        <pt x="368" y="450" on="1"/>
        <pt x="381" y="481" on="0"/>
        <pt x="401" y="481" on="1"/>
        <pt x="414" y="481" on="0"/>
        <pt x="448" y="469" on="0"/>
        <pt x="448" y="462" on="1"/>
        <pt x="448" y="459" on="0"/>
        <pt x="441" y="451" on="1"/>
        <pt x="459" y="450" on="0"/>
        <pt x="459" y="448" on="1"/>
        <pt x="459" y="444" on="0"/>
        <pt x="446" y="430" on="0"/>
        <pt x="441" y="430" on="1"/>
        <pt x="423" y="430" on="1"/>
        <pt x="293" y="285" on="0"/>
        <pt x="135" y="37" on="0"/>
        <pt x="132" y="-15" on="1"/>
        <pt x="237" y="-13" on="0"/>
        <pt x="292" y="1" on="1"/>
        <pt x="296" y="2" on="0"/>
        <pt x="307" y="2" on="0"/>
        <pt x="307" y="-2" on="1"/>
        <pt x="307" y="-9" on="0"/>
        <pt x="282" y="-13" on="1"/>
        <pt x="136" y="-41" on="1"/>
        <pt x="144" y="-52" on="0"/>
        <pt x="165" y="-52" on="1"/>
        <pt x="203" y="-45" on="1"/>
        <pt x="208" y="-45" on="0"/>
        <pt x="208" y="-47" on="1"/>
        <pt x="205" y="-54" on="0"/>
        <pt x="163" y="-68" on="0"/>
        <pt x="152" y="-68" on="1"/>
        <pt x="125" y="-68" on="0"/>
        <pt x="113" y="-44" on="1"/>
        <pt x="39" y="-57" on="0"/>
        <pt x="-5" y="-57" on="0"/>
        <pt x="-15" y="-40" on="0"/>
        <pt x="-15" y="-16" on="1"/>
        <pt x="-15" y="-11" on="0"/>
      </contour>
      <contour>
        <pt x="473" y="536" on="1"/>
        <pt x="467" y="536" on="0"/>
        <pt x="457" y="551" on="0"/>
        <pt x="457" y="568" on="0"/>
        <pt x="502" y="600" on="0"/>
        <pt x="514" y="600" on="1"/>
        <pt x="516" y="599" on="1"/>
        <pt x="516" y="600" on="1"/>
        <pt x="516" y="599" on="1"/>
        <pt x="512" y="593" on="0"/>
        <pt x="505" y="586" on="1"/>
        <pt x="493" y="556" on="1"/>
        <pt x="486" y="536" on="0"/>
      </contour>
      <contour>
        <pt x="381" y="536" on="1"/>
        <pt x="376" y="536" on="0"/>
        <pt x="366" y="551" on="0"/>
        <pt x="366" y="568" on="0"/>
        <pt x="411" y="600" on="0"/>
        <pt x="422" y="600" on="1"/>
        <pt x="425" y="599" on="1"/>
        <pt x="425" y="600" on="1"/>
        <pt x="425" y="599" on="1"/>
        <pt x="421" y="593" on="0"/>
        <pt x="414" y="586" on="1"/>
        <pt x="401" y="556" on="1"/>
        <pt x="392" y="536" on="0"/>
      </contour>
    </TTGlyph>
    <TTGlyph name="Igrave" xMin="-15" yMin="-68" xMax="486" yMax="631">
      <contour>
        <pt x="-10" y="-11" on="1"/>
        <pt x="49" y="-16" on="1"/>
        <pt x="106" y="-16" on="1"/>
        <pt x="106" y="-8" on="1"/>
        <pt x="106" y="95" on="0"/>
        <pt x="350" y="426" on="1"/>
        <pt x="160" y="410" on="0"/>
        <pt x="124" y="354" on="1"/>
        <pt x="123" y="351" on="0"/>
        <pt x="120" y="340" on="1"/>
        <pt x="116" y="319" on="0"/>
        <pt x="106" y="319" on="1"/>
        <pt x="103" y="319" on="0"/>
        <pt x="103" y="323" on="1"/>
        <pt x="103" y="439" on="0"/>
        <pt x="368" y="450" on="1"/>
        <pt x="381" y="481" on="0"/>
        <pt x="401" y="481" on="1"/>
        <pt x="414" y="481" on="0"/>
        <pt x="448" y="469" on="0"/>
        <pt x="448" y="462" on="1"/>
        <pt x="448" y="459" on="0"/>
        <pt x="441" y="451" on="1"/>
        <pt x="459" y="450" on="0"/>
        <pt x="459" y="448" on="1"/>
        <pt x="459" y="444" on="0"/>
        <pt x="446" y="430" on="0"/>
        <pt x="441" y="430" on="1"/>
        <pt x="423" y="430" on="1"/>
        <pt x="293" y="285" on="0"/>
        <pt x="135" y="37" on="0"/>
        <pt x="132" y="-15" on="1"/>
        <pt x="237" y="-13" on="0"/>
        <pt x="292" y="1" on="1"/>
        <pt x="296" y="2" on="0"/>
        <pt x="307" y="2" on="0"/>
        <pt x="307" y="-2" on="1"/>
        <pt x="307" y="-9" on="0"/>
        <pt x="282" y="-13" on="1"/>
        <pt x="136" y="-41" on="1"/>
        <pt x="144" y="-52" on="0"/>
        <pt x="165" y="-52" on="1"/>
        <pt x="203" y="-45" on="1"/>
        <pt x="208" y="-45" on="0"/>
        <pt x="208" y="-47" on="1"/>
        <pt x="205" y="-54" on="0"/>
        <pt x="163" y="-68" on="0"/>
        <pt x="152" y="-68" on="1"/>
        <pt x="125" y="-68" on="0"/>
        <pt x="113" y="-44" on="1"/>
        <pt x="39" y="-57" on="0"/>
        <pt x="-5" y="-57" on="0"/>
        <pt x="-15" y="-40" on="0"/>
        <pt x="-15" y="-16" on="1"/>
        <pt x="-15" y="-11" on="0"/>
      </contour>
      <contour>
        <pt x="346" y="612" on="1"/>
        <pt x="346" y="618" on="1"/>
        <pt x="346" y="631" on="0"/>
        <pt x="361" y="631" on="0"/>
        <pt x="486" y="536" on="0"/>
        <pt x="486" y="524" on="0"/>
        <pt x="479" y="524" on="1"/>
        <pt x="460" y="530" on="0"/>
        <pt x="387" y="575" on="0"/>
        <pt x="372" y="584" on="0"/>
        <pt x="362" y="592" on="0"/>
        <pt x="354" y="597" on="0"/>
        <pt x="350" y="602" on="0"/>
        <pt x="348" y="603" on="1"/>
        <pt x="346" y="605" on="0"/>
      </contour>
    </TTGlyph>
    <TTGlyph name="J" xMin="9" yMin="-140" xMax="697" yMax="472">
      <contour>
        <pt x="697" y="357" on="1"/>
        <pt x="697" y="288" on="0"/>
        <pt x="581" y="110" on="0"/>
        <pt x="419" y="-38" on="0"/>
        <pt x="238" y="-140" on="0"/>
        <pt x="177" y="-140" on="1"/>
        <pt x="143" y="-140" on="0"/>
        <pt x="97" y="-110" on="0"/>
        <pt x="97" y="-85" on="1"/>
        <pt x="97" y="13" on="0"/>
        <pt x="276" y="129" on="1"/>
        <pt x="408" y="216" on="0"/>
        <pt x="547" y="262" on="1"/>
        <pt x="549" y="262" on="0"/>
        <pt x="554" y="264" on="0"/>
        <pt x="556" y="264" on="0"/>
        <pt x="556" y="262" on="1"/>
        <pt x="556" y="256" on="0"/>
        <pt x="541" y="249" on="1"/>
        <pt x="119" y="26" on="0"/>
        <pt x="119" y="-87" on="1"/>
        <pt x="119" y="-128" on="0"/>
        <pt x="159" y="-128" on="1"/>
        <pt x="217" y="-128" on="0"/>
        <pt x="296" y="-74" on="1"/>
        <pt x="432" y="19" on="0"/>
        <pt x="651" y="294" on="0"/>
        <pt x="651" y="380" on="1"/>
        <pt x="651" y="457" on="0"/>
        <pt x="541" y="457" on="1"/>
        <pt x="453" y="457" on="0"/>
        <pt x="309" y="395" on="1"/>
        <pt x="203" y="348" on="0"/>
        <pt x="24" y="222" on="0"/>
        <pt x="24" y="186" on="1"/>
        <pt x="24" y="165" on="0"/>
        <pt x="48" y="150" on="1"/>
        <pt x="49" y="150" on="0"/>
        <pt x="49" y="145" on="0"/>
        <pt x="33" y="145" on="0"/>
        <pt x="9" y="179" on="0"/>
        <pt x="9" y="193" on="1"/>
        <pt x="9" y="241" on="0"/>
        <pt x="199" y="375" on="0"/>
        <pt x="447" y="472" on="0"/>
        <pt x="525" y="472" on="1"/>
        <pt x="697" y="472" on="0"/>
      </contour>
    </TTGlyph>
    <TTGlyph name="K" xMin="7" yMin="-128" xMax="593" yMax="438">
      <contour>
        <pt x="593" y="424" on="0"/>
        <pt x="593" y="410" on="0"/>
        <pt x="583" y="410" on="1"/>
        <pt x="557" y="417" on="0"/>
        <pt x="549" y="417" on="1"/>
        <pt x="504" y="417" on="0"/>
        <pt x="372" y="331" on="0"/>
        <pt x="173" y="178" on="0"/>
        <pt x="149" y="160" on="1"/>
        <pt x="205" y="44" on="0"/>
        <pt x="369" y="-101" on="0"/>
        <pt x="422" y="-101" on="1"/>
        <pt x="449" y="-101" on="0"/>
        <pt x="449" y="-76" on="1"/>
        <pt x="449" y="-52" on="0"/>
        <pt x="399" y="22" on="1"/>
        <pt x="401" y="24" on="1"/>
        <pt x="407" y="24" on="0"/>
        <pt x="422" y="9" on="1"/>
        <pt x="470" y="-37" on="0"/>
        <pt x="470" y="-75" on="1"/>
        <pt x="470" y="-98" on="0"/>
        <pt x="429" y="-128" on="0"/>
        <pt x="397" y="-128" on="1"/>
        <pt x="334" y="-128" on="0"/>
        <pt x="205" y="-13" on="0"/>
        <pt x="153" y="82" on="1"/>
        <pt x="117" y="158" on="0"/>
        <pt x="117" y="163" on="0"/>
        <pt x="132" y="183" on="0"/>
        <pt x="141" y="183" on="0"/>
        <pt x="142" y="176" on="1"/>
        <pt x="193" y="210" on="0"/>
        <pt x="261" y="273" on="1"/>
        <pt x="350" y="354" on="1"/>
        <pt x="413" y="405" on="0"/>
        <pt x="491" y="438" on="0"/>
        <pt x="549" y="438" on="0"/>
      </contour>
      <contour>
        <pt x="32" y="-52" on="1"/>
        <pt x="32" y="-64" on="0"/>
        <pt x="39" y="-82" on="1"/>
        <pt x="47" y="-103" on="0"/>
        <pt x="44" y="-103" on="1"/>
        <pt x="29" y="-103" on="0"/>
        <pt x="7" y="-68" on="0"/>
        <pt x="7" y="-31" on="1"/>
        <pt x="7" y="90" on="0"/>
        <pt x="149" y="339" on="1"/>
        <pt x="187" y="415" on="0"/>
        <pt x="201" y="415" on="1"/>
        <pt x="212" y="415" on="0"/>
        <pt x="240" y="402" on="0"/>
        <pt x="240" y="398" on="1"/>
        <pt x="226" y="377" on="0"/>
        <pt x="214" y="357" on="0"/>
        <pt x="195" y="327" on="0"/>
        <pt x="185" y="310" on="1"/>
        <pt x="32" y="45" on="0"/>
      </contour>
    </TTGlyph>
    <TTGlyph name="Kcommaaccent" xMin="7" yMin="-206" xMax="593" yMax="438">
      <contour>
        <pt x="593" y="424" on="0"/>
        <pt x="593" y="410" on="0"/>
        <pt x="583" y="410" on="1"/>
        <pt x="557" y="417" on="0"/>
        <pt x="549" y="417" on="1"/>
        <pt x="504" y="417" on="0"/>
        <pt x="372" y="331" on="0"/>
        <pt x="173" y="178" on="0"/>
        <pt x="149" y="160" on="1"/>
        <pt x="205" y="44" on="0"/>
        <pt x="369" y="-101" on="0"/>
        <pt x="422" y="-101" on="1"/>
        <pt x="449" y="-101" on="0"/>
        <pt x="449" y="-76" on="1"/>
        <pt x="449" y="-52" on="0"/>
        <pt x="399" y="22" on="1"/>
        <pt x="401" y="24" on="1"/>
        <pt x="407" y="24" on="0"/>
        <pt x="422" y="9" on="1"/>
        <pt x="470" y="-37" on="0"/>
        <pt x="470" y="-75" on="1"/>
        <pt x="470" y="-98" on="0"/>
        <pt x="429" y="-128" on="0"/>
        <pt x="397" y="-128" on="1"/>
        <pt x="334" y="-128" on="0"/>
        <pt x="205" y="-13" on="0"/>
        <pt x="153" y="82" on="1"/>
        <pt x="117" y="158" on="0"/>
        <pt x="117" y="163" on="0"/>
        <pt x="132" y="183" on="0"/>
        <pt x="141" y="183" on="0"/>
        <pt x="142" y="176" on="1"/>
        <pt x="193" y="210" on="0"/>
        <pt x="261" y="273" on="1"/>
        <pt x="350" y="354" on="1"/>
        <pt x="413" y="405" on="0"/>
        <pt x="491" y="438" on="0"/>
        <pt x="549" y="438" on="0"/>
      </contour>
      <contour>
        <pt x="32" y="-52" on="1"/>
        <pt x="32" y="-64" on="0"/>
        <pt x="39" y="-82" on="1"/>
        <pt x="47" y="-103" on="0"/>
        <pt x="44" y="-103" on="1"/>
        <pt x="29" y="-103" on="0"/>
        <pt x="7" y="-68" on="0"/>
        <pt x="7" y="-31" on="1"/>
        <pt x="7" y="90" on="0"/>
        <pt x="149" y="339" on="1"/>
        <pt x="187" y="415" on="0"/>
        <pt x="201" y="415" on="1"/>
        <pt x="212" y="415" on="0"/>
        <pt x="240" y="402" on="0"/>
        <pt x="240" y="398" on="1"/>
        <pt x="226" y="377" on="0"/>
        <pt x="214" y="357" on="0"/>
        <pt x="195" y="327" on="0"/>
        <pt x="185" y="310" on="1"/>
        <pt x="32" y="45" on="0"/>
      </contour>
      <contour>
        <pt x="88" y="-204" on="1"/>
        <pt x="120" y="-172" on="0"/>
        <pt x="120" y="-152" on="1"/>
        <pt x="120" y="-144" on="0"/>
        <pt x="100" y="-125" on="0"/>
        <pt x="100" y="-121" on="1"/>
        <pt x="100" y="-99" on="0"/>
        <pt x="122" y="-99" on="1"/>
        <pt x="134" y="-99" on="0"/>
        <pt x="153" y="-113" on="0"/>
        <pt x="153" y="-147" on="0"/>
        <pt x="117" y="-206" on="0"/>
        <pt x="92" y="-206" on="1"/>
        <pt x="88" y="-206" on="0"/>
      </contour>
    </TTGlyph>
    <TTGlyph name="L" xMin="1" yMin="-114" xMax="457" yMax="528">
      <contour>
        <pt x="457" y="-39" on="1"/>
        <pt x="457" y="-48" on="0"/>
        <pt x="430" y="-98" on="0"/>
        <pt x="413" y="-98" on="1"/>
        <pt x="411" y="-96" on="0"/>
        <pt x="411" y="-95" on="1"/>
        <pt x="427" y="-79" on="0"/>
        <pt x="440" y="-50" on="0"/>
        <pt x="440" y="-45" on="1"/>
        <pt x="440" y="2" on="0"/>
        <pt x="316" y="2" on="1"/>
        <pt x="234" y="2" on="0"/>
        <pt x="91" y="-41" on="1"/>
        <pt x="91" y="-59" on="0"/>
        <pt x="106" y="-111" on="0"/>
        <pt x="106" y="-114" on="0"/>
        <pt x="104" y="-114" on="1"/>
        <pt x="68" y="-114" on="0"/>
        <pt x="65" y="-48" on="1"/>
        <pt x="49" y="-53" on="0"/>
        <pt x="10" y="-66" on="1"/>
        <pt x="1" y="-66" on="0"/>
        <pt x="1" y="-53" on="1"/>
        <pt x="1" y="-24" on="0"/>
        <pt x="18" y="-11" on="0"/>
        <pt x="70" y="0" on="1"/>
        <pt x="81" y="86" on="0"/>
        <pt x="181" y="338" on="0"/>
        <pt x="304" y="528" on="0"/>
        <pt x="341" y="528" on="1"/>
        <pt x="365" y="528" on="0"/>
        <pt x="414" y="498" on="0"/>
        <pt x="414" y="481" on="1"/>
        <pt x="414" y="448" on="0"/>
        <pt x="302" y="278" on="0"/>
        <pt x="220" y="182" on="1"/>
        <pt x="217" y="175" on="0"/>
        <pt x="180" y="130" on="0"/>
        <pt x="174" y="130" on="1"/>
        <pt x="171" y="132" on="1"/>
        <pt x="171" y="136" on="0"/>
        <pt x="226" y="206" on="1"/>
        <pt x="382" y="407" on="0"/>
        <pt x="382" y="474" on="1"/>
        <pt x="382" y="494" on="0"/>
        <pt x="369" y="494" on="1"/>
        <pt x="352" y="494" on="0"/>
        <pt x="327" y="459" on="1"/>
        <pt x="251" y="350" on="0"/>
        <pt x="120" y="89" on="0"/>
        <pt x="100" y="6" on="1"/>
        <pt x="215" y="30" on="0"/>
        <pt x="308" y="30" on="1"/>
        <pt x="457" y="30" on="0"/>
      </contour>
    </TTGlyph>
    <TTGlyph name="M" xMin="21" yMin="-117" xMax="712" yMax="481">
      <contour>
        <pt x="676" y="312" on="1"/>
        <pt x="580" y="138" on="0"/>
        <pt x="580" y="19" on="1"/>
        <pt x="580" y="-59" on="0"/>
        <pt x="606" y="-59" on="1"/>
        <pt x="630" y="-59" on="0"/>
        <pt x="675" y="46" on="1"/>
        <pt x="682" y="59" on="0"/>
        <pt x="689" y="59" on="0"/>
        <pt x="689" y="46" on="0"/>
        <pt x="688" y="43" on="1"/>
        <pt x="659" y="-72" on="0"/>
        <pt x="600" y="-72" on="1"/>
        <pt x="572" y="-72" on="0"/>
        <pt x="539" y="-17" on="0"/>
        <pt x="539" y="58" on="0"/>
        <pt x="562" y="175" on="0"/>
        <pt x="602" y="298" on="0"/>
        <pt x="664" y="387" on="0"/>
        <pt x="697" y="387" on="1"/>
        <pt x="712" y="387" on="0"/>
        <pt x="712" y="376" on="0"/>
      </contour>
      <contour>
        <pt x="316" y="0" on="1"/>
        <pt x="309" y="-10" on="0"/>
        <pt x="259" y="-10" on="0"/>
        <pt x="259" y="4" on="1"/>
        <pt x="258" y="4" on="0"/>
        <pt x="411" y="310" on="0"/>
        <pt x="411" y="361" on="1"/>
        <pt x="411" y="389" on="0"/>
        <pt x="389" y="389" on="1"/>
        <pt x="333" y="388" on="0"/>
        <pt x="195" y="260" on="0"/>
        <pt x="132" y="162" on="1"/>
        <pt x="52" y="46" on="0"/>
        <pt x="52" y="-55" on="1"/>
        <pt x="52" y="-78" on="0"/>
        <pt x="60" y="-103" on="0"/>
        <pt x="62" y="-105" on="1"/>
        <pt x="67" y="-110" on="0"/>
        <pt x="67" y="-117" on="0"/>
        <pt x="62" y="-117" on="1"/>
        <pt x="47" y="-117" on="0"/>
        <pt x="21" y="-62" on="0"/>
        <pt x="21" y="-27" on="1"/>
        <pt x="21" y="113" on="0"/>
        <pt x="185" y="396" on="1"/>
        <pt x="192" y="412" on="0"/>
        <pt x="233" y="481" on="0"/>
        <pt x="258" y="481" on="0"/>
        <pt x="289" y="469" on="0"/>
        <pt x="289" y="461" on="1"/>
        <pt x="178" y="279" on="0"/>
        <pt x="146" y="214" on="1"/>
        <pt x="292" y="417" on="0"/>
        <pt x="401" y="417" on="1"/>
        <pt x="454" y="417" on="0"/>
        <pt x="454" y="356" on="1"/>
        <pt x="454" y="279" on="0"/>
        <pt x="361" y="90" on="1"/>
        <pt x="413" y="138" on="0"/>
        <pt x="538" y="266" on="1"/>
        <pt x="547" y="280" on="0"/>
        <pt x="624" y="361" on="0"/>
        <pt x="638" y="361" on="1"/>
        <pt x="641" y="361" on="0"/>
        <pt x="641" y="358" on="1"/>
        <pt x="416" y="110" on="0"/>
        <pt x="335" y="40" on="1"/>
      </contour>
    </TTGlyph>
    <TTGlyph name="N" xMin="29" yMin="-89" xMax="510" yMax="481">
      <contour>
        <pt x="63" y="-47" on="1"/>
        <pt x="63" y="-67" on="0"/>
        <pt x="75" y="-85" on="1"/>
        <pt x="75" y="-89" on="0"/>
        <pt x="70" y="-89" on="1"/>
        <pt x="52" y="-89" on="0"/>
        <pt x="29" y="-32" on="0"/>
        <pt x="29" y="2" on="1"/>
        <pt x="29" y="136" on="0"/>
        <pt x="186" y="399" on="1"/>
        <pt x="227" y="481" on="0"/>
        <pt x="246" y="481" on="1"/>
        <pt x="258" y="481" on="0"/>
        <pt x="289" y="469" on="0"/>
        <pt x="289" y="461" on="1"/>
        <pt x="263" y="417" on="0"/>
        <pt x="204" y="318" on="0"/>
        <pt x="175" y="268" on="0"/>
        <pt x="169" y="258" on="1"/>
        <pt x="100" y="133" on="0"/>
        <pt x="73" y="46" on="1"/>
        <pt x="138" y="152" on="0"/>
        <pt x="379" y="367" on="1"/>
        <pt x="457" y="438" on="1"/>
        <pt x="472" y="451" on="0"/>
        <pt x="498" y="453" on="1"/>
        <pt x="510" y="453" on="0"/>
        <pt x="510" y="446" on="1"/>
        <pt x="509" y="442" on="1"/>
        <pt x="362" y="151" on="0"/>
        <pt x="362" y="14" on="1"/>
        <pt x="362" y="-59" on="0"/>
        <pt x="414" y="-59" on="0"/>
        <pt x="457" y="46" on="1"/>
        <pt x="464" y="59" on="0"/>
        <pt x="472" y="59" on="0"/>
        <pt x="472" y="49" on="0"/>
        <pt x="470" y="43" on="1"/>
        <pt x="438" y="-72" on="0"/>
        <pt x="383" y="-72" on="1"/>
        <pt x="356" y="-72" on="0"/>
        <pt x="321" y="-18" on="0"/>
        <pt x="321" y="79" on="0"/>
        <pt x="372" y="274" on="0"/>
        <pt x="407" y="352" on="1"/>
        <pt x="202" y="167" on="1"/>
        <pt x="63" y="26" on="0"/>
      </contour>
    </TTGlyph>
    <TTGlyph name="Ntilde" xMin="29" yMin="-89" xMax="510" yMax="557">
      <contour>
        <pt x="63" y="-47" on="1"/>
        <pt x="63" y="-67" on="0"/>
        <pt x="75" y="-85" on="1"/>
        <pt x="75" y="-89" on="0"/>
        <pt x="70" y="-89" on="1"/>
        <pt x="52" y="-89" on="0"/>
        <pt x="29" y="-32" on="0"/>
        <pt x="29" y="2" on="1"/>
        <pt x="29" y="136" on="0"/>
        <pt x="186" y="399" on="1"/>
        <pt x="227" y="481" on="0"/>
        <pt x="246" y="481" on="1"/>
        <pt x="258" y="481" on="0"/>
        <pt x="289" y="469" on="0"/>
        <pt x="289" y="461" on="1"/>
        <pt x="263" y="417" on="0"/>
        <pt x="204" y="318" on="0"/>
        <pt x="175" y="268" on="0"/>
        <pt x="169" y="258" on="1"/>
        <pt x="100" y="133" on="0"/>
        <pt x="73" y="46" on="1"/>
        <pt x="138" y="152" on="0"/>
        <pt x="379" y="367" on="1"/>
        <pt x="457" y="438" on="1"/>
        <pt x="472" y="451" on="0"/>
        <pt x="498" y="453" on="1"/>
        <pt x="510" y="453" on="0"/>
        <pt x="510" y="446" on="1"/>
        <pt x="509" y="442" on="1"/>
        <pt x="362" y="151" on="0"/>
        <pt x="362" y="14" on="1"/>
        <pt x="362" y="-59" on="0"/>
        <pt x="414" y="-59" on="0"/>
        <pt x="457" y="46" on="1"/>
        <pt x="464" y="59" on="0"/>
        <pt x="472" y="59" on="0"/>
        <pt x="472" y="49" on="0"/>
        <pt x="470" y="43" on="1"/>
        <pt x="438" y="-72" on="0"/>
        <pt x="383" y="-72" on="1"/>
        <pt x="356" y="-72" on="0"/>
        <pt x="321" y="-18" on="0"/>
        <pt x="321" y="79" on="0"/>
        <pt x="372" y="274" on="0"/>
        <pt x="407" y="352" on="1"/>
        <pt x="202" y="167" on="1"/>
        <pt x="63" y="26" on="0"/>
      </contour>
      <contour>
        <pt x="397" y="557" on="1"/>
        <pt x="469" y="541" on="1"/>
        <pt x="485" y="541" on="0"/>
        <pt x="501" y="557" on="1"/>
        <pt x="505" y="557" on="0"/>
        <pt x="505" y="551" on="0"/>
        <pt x="494" y="534" on="0"/>
        <pt x="469" y="517" on="0"/>
        <pt x="446" y="517" on="0"/>
        <pt x="387" y="537" on="0"/>
        <pt x="373" y="537" on="0"/>
        <pt x="353" y="527" on="0"/>
        <pt x="339" y="517" on="0"/>
        <pt x="338" y="517" on="1"/>
        <pt x="337" y="519" on="1"/>
        <pt x="337" y="522" on="0"/>
        <pt x="352" y="540" on="0"/>
        <pt x="381" y="557" on="0"/>
      </contour>
    </TTGlyph>
    <TTGlyph name="O" xMin="22" yMin="-75" xMax="627" yMax="452">
      <contour>
        <pt x="627" y="350" on="1"/>
        <pt x="627" y="325" on="0"/>
        <pt x="606" y="282" on="1"/>
        <pt x="610" y="270" on="0"/>
        <pt x="610" y="249" on="1"/>
        <pt x="610" y="152" on="0"/>
        <pt x="502" y="56" on="1"/>
        <pt x="420" y="-16" on="0"/>
        <pt x="272" y="-75" on="0"/>
        <pt x="175" y="-75" on="1"/>
        <pt x="109" y="-75" on="0"/>
        <pt x="22" y="13" on="0"/>
        <pt x="22" y="80" on="1"/>
        <pt x="22" y="169" on="0"/>
        <pt x="162" y="344" on="0"/>
        <pt x="373" y="452" on="0"/>
        <pt x="473" y="452" on="1"/>
        <pt x="543" y="452" on="0"/>
        <pt x="627" y="397" on="0"/>
      </contour>
      <contour>
        <pt x="603" y="342" on="1"/>
        <pt x="603" y="385" on="0"/>
        <pt x="532" y="436" on="0"/>
        <pt x="473" y="436" on="1"/>
        <pt x="383" y="436" on="0"/>
        <pt x="199" y="339" on="0"/>
        <pt x="77" y="175" on="0"/>
        <pt x="77" y="89" on="1"/>
        <pt x="77" y="23" on="0"/>
        <pt x="154" y="-49" on="0"/>
        <pt x="289" y="-49" on="0"/>
        <pt x="441" y="20" on="0"/>
        <pt x="559" y="151" on="0"/>
        <pt x="567" y="227" on="1"/>
        <pt x="516" y="170" on="0"/>
        <pt x="431" y="125" on="1"/>
        <pt x="427" y="123" on="0"/>
        <pt x="424" y="123" on="0"/>
        <pt x="424" y="124" on="1"/>
        <pt x="424" y="123" on="0"/>
        <pt x="452" y="146" on="1"/>
        <pt x="528" y="210" on="0"/>
        <pt x="566" y="257" on="1"/>
        <pt x="559" y="296" on="0"/>
        <pt x="498" y="355" on="0"/>
        <pt x="453" y="368" on="1"/>
        <pt x="436" y="372" on="0"/>
        <pt x="347" y="377" on="0"/>
        <pt x="343" y="379" on="1"/>
        <pt x="346" y="381" on="1"/>
        <pt x="381" y="392" on="0"/>
        <pt x="474" y="392" on="0"/>
        <pt x="574" y="345" on="0"/>
        <pt x="596" y="306" on="1"/>
        <pt x="603" y="324" on="0"/>
      </contour>
    </TTGlyph>
    <TTGlyph name="OE" xMin="22" yMin="-76" xMax="1038" yMax="505">
      <contour>
        <pt x="975" y="463" on="1"/>
        <pt x="986" y="503" on="0"/>
        <pt x="1004" y="505" on="1"/>
        <pt x="1038" y="505" on="0"/>
        <pt x="1038" y="492" on="1"/>
        <pt x="1036" y="492" on="0"/>
        <pt x="996" y="436" on="0"/>
        <pt x="956" y="366" on="0"/>
        <pt x="956" y="351" on="1"/>
        <pt x="959" y="336" on="1"/>
        <pt x="959" y="334" on="0"/>
        <pt x="957" y="334" on="1"/>
        <pt x="942" y="334" on="0"/>
        <pt x="942" y="405" on="0"/>
        <pt x="964" y="445" on="1"/>
        <pt x="954" y="447" on="0"/>
        <pt x="941" y="447" on="1"/>
        <pt x="836" y="447" on="0"/>
        <pt x="616" y="281" on="0"/>
        <pt x="578" y="175" on="1"/>
        <pt x="807" y="175" on="0"/>
        <pt x="890" y="198" on="1"/>
        <pt x="898" y="198" on="0"/>
        <pt x="898" y="193" on="1"/>
        <pt x="898" y="175" on="0"/>
        <pt x="650" y="137" on="0"/>
        <pt x="566" y="135" on="1"/>
        <pt x="563" y="116" on="0"/>
        <pt x="563" y="99" on="1"/>
        <pt x="563" y="34" on="0"/>
        <pt x="652" y="-51" on="0"/>
        <pt x="722" y="-51" on="1"/>
        <pt x="862" y="-51" on="0"/>
        <pt x="970" y="65" on="1"/>
        <pt x="984" y="79" on="0"/>
        <pt x="990" y="79" on="1"/>
        <pt x="994" y="79" on="0"/>
        <pt x="994" y="64" on="0"/>
        <pt x="985" y="54" on="1"/>
        <pt x="931" y="-7" on="0"/>
        <pt x="761" y="-76" on="0"/>
        <pt x="614" y="-76" on="0"/>
        <pt x="520" y="1" on="0"/>
        <pt x="514" y="68" on="1"/>
        <pt x="379" y="-75" on="0"/>
        <pt x="175" y="-75" on="1"/>
        <pt x="109" y="-75" on="0"/>
        <pt x="22" y="13" on="0"/>
        <pt x="22" y="80" on="1"/>
        <pt x="22" y="169" on="0"/>
        <pt x="162" y="344" on="0"/>
        <pt x="373" y="452" on="0"/>
        <pt x="473" y="452" on="1"/>
        <pt x="543" y="452" on="0"/>
        <pt x="627" y="397" on="0"/>
        <pt x="627" y="350" on="1"/>
        <pt x="627" y="332" on="0"/>
        <pt x="622" y="321" on="1"/>
        <pt x="686" y="389" on="0"/>
        <pt x="848" y="471" on="0"/>
        <pt x="923" y="471" on="1"/>
        <pt x="961" y="471" on="0"/>
      </contour>
      <contour>
        <pt x="503" y="183" on="1"/>
        <pt x="531" y="177" on="1"/>
        <pt x="533" y="182" on="0"/>
        <pt x="537" y="196" on="1"/>
        <pt x="545" y="224" on="0"/>
        <pt x="566" y="257" on="1"/>
        <pt x="559" y="296" on="0"/>
        <pt x="498" y="355" on="0"/>
        <pt x="453" y="368" on="1"/>
        <pt x="436" y="372" on="0"/>
        <pt x="347" y="377" on="0"/>
        <pt x="343" y="379" on="1"/>
        <pt x="346" y="381" on="1"/>
        <pt x="381" y="392" on="0"/>
        <pt x="474" y="392" on="0"/>
        <pt x="574" y="345" on="0"/>
        <pt x="596" y="306" on="1"/>
        <pt x="603" y="324" on="0"/>
        <pt x="603" y="342" on="1"/>
        <pt x="603" y="385" on="0"/>
        <pt x="532" y="436" on="0"/>
        <pt x="473" y="436" on="1"/>
        <pt x="383" y="436" on="0"/>
        <pt x="199" y="339" on="0"/>
        <pt x="77" y="175" on="0"/>
        <pt x="77" y="89" on="1"/>
        <pt x="77" y="23" on="0"/>
        <pt x="154" y="-49" on="0"/>
        <pt x="223" y="-49" on="1"/>
        <pt x="354" y="-49" on="0"/>
        <pt x="475" y="60" on="1"/>
        <pt x="497" y="79" on="0"/>
        <pt x="513" y="105" on="0"/>
        <pt x="519" y="138" on="1"/>
        <pt x="514" y="138" on="0"/>
        <pt x="499" y="173" on="0"/>
        <pt x="499" y="183" on="0"/>
      </contour>
    </TTGlyph>
    <TTGlyph name="Oacute" xMin="22" yMin="-75" xMax="638" yMax="594">
      <contour>
        <pt x="627" y="350" on="1"/>
        <pt x="627" y="325" on="0"/>
        <pt x="606" y="282" on="1"/>
        <pt x="610" y="270" on="0"/>
        <pt x="610" y="249" on="1"/>
        <pt x="610" y="152" on="0"/>
        <pt x="502" y="56" on="1"/>
        <pt x="420" y="-16" on="0"/>
        <pt x="272" y="-75" on="0"/>
        <pt x="175" y="-75" on="1"/>
        <pt x="109" y="-75" on="0"/>
        <pt x="22" y="13" on="0"/>
        <pt x="22" y="80" on="1"/>
        <pt x="22" y="169" on="0"/>
        <pt x="162" y="344" on="0"/>
        <pt x="373" y="452" on="0"/>
        <pt x="473" y="452" on="1"/>
        <pt x="543" y="452" on="0"/>
        <pt x="627" y="397" on="0"/>
      </contour>
      <contour>
        <pt x="603" y="342" on="1"/>
        <pt x="603" y="385" on="0"/>
        <pt x="532" y="436" on="0"/>
        <pt x="473" y="436" on="1"/>
        <pt x="383" y="436" on="0"/>
        <pt x="199" y="339" on="0"/>
        <pt x="77" y="175" on="0"/>
        <pt x="77" y="89" on="1"/>
        <pt x="77" y="23" on="0"/>
        <pt x="154" y="-49" on="0"/>
        <pt x="289" y="-49" on="0"/>
        <pt x="441" y="20" on="0"/>
        <pt x="559" y="151" on="0"/>
        <pt x="567" y="227" on="1"/>
        <pt x="516" y="170" on="0"/>
        <pt x="431" y="125" on="1"/>
        <pt x="427" y="123" on="0"/>
        <pt x="424" y="123" on="0"/>
        <pt x="424" y="124" on="1"/>
        <pt x="424" y="123" on="0"/>
        <pt x="452" y="146" on="1"/>
        <pt x="528" y="210" on="0"/>
        <pt x="566" y="257" on="1"/>
        <pt x="559" y="296" on="0"/>
        <pt x="498" y="355" on="0"/>
        <pt x="453" y="368" on="1"/>
        <pt x="436" y="372" on="0"/>
        <pt x="347" y="377" on="0"/>
        <pt x="343" y="379" on="1"/>
        <pt x="346" y="381" on="1"/>
        <pt x="381" y="392" on="0"/>
        <pt x="474" y="392" on="0"/>
        <pt x="574" y="345" on="0"/>
        <pt x="596" y="306" on="1"/>
        <pt x="603" y="324" on="0"/>
      </contour>
      <contour>
        <pt x="638" y="594" on="0"/>
        <pt x="638" y="570" on="0"/>
        <pt x="629" y="563" on="1"/>
        <pt x="626" y="559" on="0"/>
        <pt x="515" y="493" on="0"/>
        <pt x="505" y="493" on="0"/>
        <pt x="505" y="504" on="0"/>
        <pt x="623" y="594" on="0"/>
        <pt x="628" y="594" on="1"/>
      </contour>
    </TTGlyph>
    <TTGlyph name="Ocircumflex" xMin="22" yMin="-75" xMax="627" yMax="587">
      <contour>
        <pt x="627" y="350" on="1"/>
        <pt x="627" y="325" on="0"/>
        <pt x="606" y="282" on="1"/>
        <pt x="610" y="270" on="0"/>
        <pt x="610" y="249" on="1"/>
        <pt x="610" y="152" on="0"/>
        <pt x="502" y="56" on="1"/>
        <pt x="420" y="-16" on="0"/>
        <pt x="272" y="-75" on="0"/>
        <pt x="175" y="-75" on="1"/>
        <pt x="109" y="-75" on="0"/>
        <pt x="22" y="13" on="0"/>
        <pt x="22" y="80" on="1"/>
        <pt x="22" y="169" on="0"/>
        <pt x="162" y="344" on="0"/>
        <pt x="373" y="452" on="0"/>
        <pt x="473" y="452" on="1"/>
        <pt x="543" y="452" on="0"/>
        <pt x="627" y="397" on="0"/>
      </contour>
      <contour>
        <pt x="603" y="342" on="1"/>
        <pt x="603" y="385" on="0"/>
        <pt x="532" y="436" on="0"/>
        <pt x="473" y="436" on="1"/>
        <pt x="383" y="436" on="0"/>
        <pt x="199" y="339" on="0"/>
        <pt x="77" y="175" on="0"/>
        <pt x="77" y="89" on="1"/>
        <pt x="77" y="23" on="0"/>
        <pt x="154" y="-49" on="0"/>
        <pt x="289" y="-49" on="0"/>
        <pt x="441" y="20" on="0"/>
        <pt x="559" y="151" on="0"/>
        <pt x="567" y="227" on="1"/>
        <pt x="516" y="170" on="0"/>
        <pt x="431" y="125" on="1"/>
        <pt x="427" y="123" on="0"/>
        <pt x="424" y="123" on="0"/>
        <pt x="424" y="124" on="1"/>
        <pt x="424" y="123" on="0"/>
        <pt x="452" y="146" on="1"/>
        <pt x="528" y="210" on="0"/>
        <pt x="566" y="257" on="1"/>
        <pt x="559" y="296" on="0"/>
        <pt x="498" y="355" on="0"/>
        <pt x="453" y="368" on="1"/>
        <pt x="436" y="372" on="0"/>
        <pt x="347" y="377" on="0"/>
        <pt x="343" y="379" on="1"/>
        <pt x="346" y="381" on="1"/>
        <pt x="381" y="392" on="0"/>
        <pt x="474" y="392" on="0"/>
        <pt x="574" y="345" on="0"/>
        <pt x="596" y="306" on="1"/>
        <pt x="603" y="324" on="0"/>
      </contour>
      <contour>
        <pt x="416" y="494" on="1"/>
        <pt x="410" y="494" on="0"/>
        <pt x="410" y="510" on="0"/>
        <pt x="505" y="585" on="0"/>
        <pt x="513" y="587" on="1"/>
        <pt x="517" y="585" on="1"/>
        <pt x="548" y="551" on="0"/>
        <pt x="611" y="504" on="1"/>
        <pt x="615" y="496" on="1"/>
        <pt x="612" y="491" on="1"/>
        <pt x="598" y="492" on="0"/>
        <pt x="515" y="543" on="0"/>
        <pt x="502" y="557" on="1"/>
        <pt x="424" y="494" on="0"/>
      </contour>
    </TTGlyph>
    <TTGlyph name="Odieresis" xMin="22" yMin="-75" xMax="627" yMax="558">
      <contour>
        <pt x="627" y="350" on="1"/>
        <pt x="627" y="325" on="0"/>
        <pt x="606" y="282" on="1"/>
        <pt x="610" y="270" on="0"/>
        <pt x="610" y="249" on="1"/>
        <pt x="610" y="152" on="0"/>
        <pt x="502" y="56" on="1"/>
        <pt x="420" y="-16" on="0"/>
        <pt x="272" y="-75" on="0"/>
        <pt x="175" y="-75" on="1"/>
        <pt x="109" y="-75" on="0"/>
        <pt x="22" y="13" on="0"/>
        <pt x="22" y="80" on="1"/>
        <pt x="22" y="169" on="0"/>
        <pt x="162" y="344" on="0"/>
        <pt x="373" y="452" on="0"/>
        <pt x="473" y="452" on="1"/>
        <pt x="543" y="452" on="0"/>
        <pt x="627" y="397" on="0"/>
      </contour>
      <contour>
        <pt x="603" y="344" on="1"/>
        <pt x="603" y="385" on="0"/>
        <pt x="532" y="436" on="0"/>
        <pt x="473" y="436" on="1"/>
        <pt x="383" y="436" on="0"/>
        <pt x="199" y="339" on="0"/>
        <pt x="77" y="175" on="0"/>
        <pt x="77" y="89" on="1"/>
        <pt x="77" y="23" on="0"/>
        <pt x="154" y="-49" on="0"/>
        <pt x="289" y="-49" on="0"/>
        <pt x="441" y="20" on="0"/>
        <pt x="559" y="151" on="0"/>
        <pt x="567" y="227" on="1"/>
        <pt x="516" y="170" on="0"/>
        <pt x="431" y="125" on="1"/>
        <pt x="427" y="123" on="0"/>
        <pt x="424" y="123" on="0"/>
        <pt x="424" y="124" on="1"/>
        <pt x="424" y="123" on="0"/>
        <pt x="452" y="146" on="1"/>
        <pt x="528" y="210" on="0"/>
        <pt x="566" y="257" on="1"/>
        <pt x="559" y="296" on="0"/>
        <pt x="498" y="355" on="0"/>
        <pt x="453" y="368" on="1"/>
        <pt x="436" y="372" on="0"/>
        <pt x="347" y="377" on="0"/>
        <pt x="343" y="379" on="1"/>
        <pt x="346" y="381" on="1"/>
        <pt x="381" y="392" on="0"/>
        <pt x="474" y="392" on="0"/>
        <pt x="574" y="345" on="0"/>
        <pt x="596" y="306" on="1"/>
        <pt x="603" y="324" on="0"/>
      </contour>
      <contour>
        <pt x="564" y="494" on="1"/>
        <pt x="558" y="494" on="0"/>
        <pt x="548" y="509" on="0"/>
        <pt x="548" y="527" on="0"/>
        <pt x="593" y="558" on="0"/>
        <pt x="605" y="558" on="1"/>
        <pt x="607" y="557" on="1"/>
        <pt x="607" y="558" on="1"/>
        <pt x="607" y="557" on="1"/>
        <pt x="606" y="556" on="0"/>
        <pt x="604" y="554" on="1"/>
        <pt x="600" y="548" on="0"/>
        <pt x="596" y="544" on="1"/>
        <pt x="584" y="514" on="1"/>
        <pt x="576" y="494" on="0"/>
      </contour>
      <contour>
        <pt x="472" y="494" on="1"/>
        <pt x="467" y="494" on="0"/>
        <pt x="457" y="509" on="0"/>
        <pt x="457" y="527" on="0"/>
        <pt x="502" y="558" on="0"/>
        <pt x="513" y="558" on="1"/>
        <pt x="516" y="557" on="1"/>
        <pt x="516" y="558" on="1"/>
        <pt x="516" y="557" on="1"/>
        <pt x="515" y="556" on="0"/>
        <pt x="514" y="554" on="1"/>
        <pt x="509" y="548" on="0"/>
        <pt x="505" y="544" on="1"/>
        <pt x="492" y="514" on="1"/>
        <pt x="483" y="494" on="0"/>
      </contour>
    </TTGlyph>
    <TTGlyph name="Ograve" xMin="22" yMin="-75" xMax="627" yMax="588">
      <contour>
        <pt x="627" y="350" on="1"/>
        <pt x="627" y="325" on="0"/>
        <pt x="606" y="282" on="1"/>
        <pt x="610" y="270" on="0"/>
        <pt x="610" y="249" on="1"/>
        <pt x="610" y="152" on="0"/>
        <pt x="502" y="56" on="1"/>
        <pt x="420" y="-16" on="0"/>
        <pt x="272" y="-75" on="0"/>
        <pt x="175" y="-75" on="1"/>
        <pt x="109" y="-75" on="0"/>
        <pt x="22" y="13" on="0"/>
        <pt x="22" y="80" on="1"/>
        <pt x="22" y="169" on="0"/>
        <pt x="162" y="344" on="0"/>
        <pt x="373" y="452" on="0"/>
        <pt x="473" y="452" on="1"/>
        <pt x="543" y="452" on="0"/>
        <pt x="627" y="397" on="0"/>
      </contour>
      <contour>
        <pt x="603" y="342" on="1"/>
        <pt x="603" y="385" on="0"/>
        <pt x="532" y="436" on="0"/>
        <pt x="473" y="436" on="1"/>
        <pt x="383" y="436" on="0"/>
        <pt x="199" y="339" on="0"/>
        <pt x="77" y="175" on="0"/>
        <pt x="77" y="89" on="1"/>
        <pt x="77" y="23" on="0"/>
        <pt x="154" y="-49" on="0"/>
        <pt x="289" y="-49" on="0"/>
        <pt x="441" y="20" on="0"/>
        <pt x="559" y="151" on="0"/>
        <pt x="567" y="227" on="1"/>
        <pt x="516" y="170" on="0"/>
        <pt x="431" y="125" on="1"/>
        <pt x="427" y="123" on="0"/>
        <pt x="424" y="123" on="0"/>
        <pt x="424" y="124" on="1"/>
        <pt x="424" y="123" on="0"/>
        <pt x="452" y="146" on="1"/>
        <pt x="528" y="210" on="0"/>
        <pt x="566" y="257" on="1"/>
        <pt x="559" y="296" on="0"/>
        <pt x="498" y="355" on="0"/>
        <pt x="453" y="368" on="1"/>
        <pt x="436" y="372" on="0"/>
        <pt x="347" y="377" on="0"/>
        <pt x="343" y="379" on="1"/>
        <pt x="346" y="381" on="1"/>
        <pt x="381" y="392" on="0"/>
        <pt x="474" y="392" on="0"/>
        <pt x="574" y="345" on="0"/>
        <pt x="596" y="306" on="1"/>
        <pt x="603" y="324" on="0"/>
      </contour>
      <contour>
        <pt x="422" y="568" on="1"/>
        <pt x="422" y="575" on="1"/>
        <pt x="422" y="588" on="0"/>
        <pt x="437" y="588" on="0"/>
        <pt x="562" y="494" on="0"/>
        <pt x="562" y="481" on="0"/>
        <pt x="555" y="481" on="1"/>
        <pt x="536" y="487" on="0"/>
        <pt x="463" y="532" on="0"/>
        <pt x="448" y="541" on="0"/>
        <pt x="438" y="549" on="0"/>
        <pt x="430" y="554" on="0"/>
        <pt x="426" y="559" on="0"/>
        <pt x="424" y="560" on="1"/>
        <pt x="422" y="562" on="0"/>
      </contour>
    </TTGlyph>
    <TTGlyph name="Oslash" xMin="22" yMin="-129" xMax="627" yMax="476">
      <contour>
        <pt x="131" y="-69" on="1"/>
        <pt x="123" y="-85" on="0"/>
        <pt x="123" y="-108" on="0"/>
        <pt x="134" y="-117" on="1"/>
        <pt x="134" y="-129" on="0"/>
        <pt x="97" y="-129" on="0"/>
        <pt x="97" y="-100" on="1"/>
        <pt x="97" y="-87" on="0"/>
        <pt x="106" y="-60" on="1"/>
        <pt x="22" y="-20" on="0"/>
        <pt x="22" y="170" on="0"/>
        <pt x="164" y="345" on="0"/>
        <pt x="374" y="452" on="0"/>
        <pt x="473" y="452" on="1"/>
        <pt x="475" y="452" on="1"/>
        <pt x="498" y="476" on="0"/>
        <pt x="503" y="476" on="1"/>
        <pt x="547" y="476" on="0"/>
        <pt x="547" y="457" on="1"/>
        <pt x="547" y="450" on="0"/>
        <pt x="541" y="443" on="1"/>
        <pt x="627" y="420" on="0"/>
        <pt x="627" y="350" on="1"/>
        <pt x="627" y="325" on="0"/>
        <pt x="606" y="282" on="1"/>
        <pt x="610" y="270" on="0"/>
        <pt x="610" y="249" on="1"/>
        <pt x="610" y="152" on="0"/>
        <pt x="502" y="56" on="1"/>
        <pt x="420" y="-16" on="0"/>
        <pt x="272" y="-75" on="0"/>
        <pt x="175" y="-75" on="1"/>
        <pt x="150" y="-75" on="0"/>
      </contour>
      <contour>
        <pt x="596" y="306" on="1"/>
        <pt x="603" y="324" on="0"/>
        <pt x="603" y="371" on="0"/>
        <pt x="564" y="420" on="0"/>
        <pt x="530" y="430" on="1"/>
        <pt x="489" y="382" on="1"/>
        <pt x="565" y="361" on="0"/>
      </contour>
      <contour>
        <pt x="431" y="125" on="1"/>
        <pt x="427" y="123" on="0"/>
        <pt x="424" y="123" on="0"/>
        <pt x="424" y="124" on="1"/>
        <pt x="424" y="123" on="0"/>
        <pt x="452" y="146" on="1"/>
        <pt x="528" y="210" on="0"/>
        <pt x="566" y="257" on="1"/>
        <pt x="556" y="329" on="0"/>
        <pt x="471" y="361" on="1"/>
        <pt x="285" y="151" on="0"/>
        <pt x="149" y="-36" on="1"/>
        <pt x="175" y="-49" on="0"/>
        <pt x="289" y="-49" on="0"/>
        <pt x="441" y="20" on="0"/>
        <pt x="559" y="151" on="0"/>
        <pt x="567" y="227" on="1"/>
        <pt x="516" y="170" on="0"/>
      </contour>
      <contour>
        <pt x="411" y="374" on="1"/>
        <pt x="398" y="373" on="1"/>
        <pt x="354" y="373" on="0"/>
        <pt x="343" y="379" on="1"/>
        <pt x="346" y="381" on="1"/>
        <pt x="381" y="392" on="0"/>
        <pt x="413" y="392" on="1"/>
        <pt x="425" y="392" on="1"/>
        <pt x="458" y="432" on="0"/>
        <pt x="462" y="436" on="1"/>
        <pt x="375" y="434" on="0"/>
        <pt x="196" y="336" on="0"/>
        <pt x="77" y="175" on="0"/>
        <pt x="77" y="16" on="0"/>
        <pt x="125" y="-22" on="1"/>
        <pt x="151" y="24" on="0"/>
        <pt x="330" y="272" on="0"/>
      </contour>
    </TTGlyph>
    <TTGlyph name="Otilde" xMin="22" yMin="-75" xMax="627" yMax="549">
      <contour>
        <pt x="627" y="350" on="1"/>
        <pt x="627" y="325" on="0"/>
        <pt x="606" y="282" on="1"/>
        <pt x="610" y="270" on="0"/>
        <pt x="610" y="249" on="1"/>
        <pt x="610" y="152" on="0"/>
        <pt x="502" y="56" on="1"/>
        <pt x="420" y="-16" on="0"/>
        <pt x="272" y="-75" on="0"/>
        <pt x="175" y="-75" on="1"/>
        <pt x="109" y="-75" on="0"/>
        <pt x="22" y="13" on="0"/>
        <pt x="22" y="80" on="1"/>
        <pt x="22" y="169" on="0"/>
        <pt x="162" y="344" on="0"/>
        <pt x="373" y="452" on="0"/>
        <pt x="473" y="452" on="1"/>
        <pt x="543" y="452" on="0"/>
        <pt x="627" y="397" on="0"/>
      </contour>
      <contour>
        <pt x="603" y="342" on="1"/>
        <pt x="603" y="385" on="0"/>
        <pt x="532" y="436" on="0"/>
        <pt x="473" y="436" on="1"/>
        <pt x="383" y="436" on="0"/>
        <pt x="199" y="339" on="0"/>
        <pt x="77" y="175" on="0"/>
        <pt x="77" y="89" on="1"/>
        <pt x="77" y="23" on="0"/>
        <pt x="154" y="-49" on="0"/>
        <pt x="289" y="-49" on="0"/>
        <pt x="441" y="20" on="0"/>
        <pt x="559" y="151" on="0"/>
        <pt x="567" y="227" on="1"/>
        <pt x="516" y="170" on="0"/>
        <pt x="431" y="125" on="1"/>
        <pt x="427" y="123" on="0"/>
        <pt x="424" y="123" on="0"/>
        <pt x="424" y="124" on="1"/>
        <pt x="424" y="123" on="0"/>
        <pt x="452" y="146" on="1"/>
        <pt x="528" y="210" on="0"/>
        <pt x="566" y="257" on="1"/>
        <pt x="559" y="296" on="0"/>
        <pt x="498" y="355" on="0"/>
        <pt x="453" y="368" on="1"/>
        <pt x="436" y="372" on="0"/>
        <pt x="347" y="377" on="0"/>
        <pt x="343" y="379" on="1"/>
        <pt x="346" y="381" on="1"/>
        <pt x="381" y="392" on="0"/>
        <pt x="474" y="392" on="0"/>
        <pt x="574" y="345" on="0"/>
        <pt x="596" y="306" on="1"/>
        <pt x="603" y="324" on="0"/>
      </contour>
      <contour>
        <pt x="511" y="549" on="1"/>
        <pt x="583" y="533" on="1"/>
        <pt x="602" y="533" on="0"/>
        <pt x="615" y="549" on="1"/>
        <pt x="620" y="549" on="0"/>
        <pt x="620" y="542" on="0"/>
        <pt x="609" y="525" on="0"/>
        <pt x="583" y="508" on="0"/>
        <pt x="560" y="508" on="0"/>
        <pt x="501" y="528" on="0"/>
        <pt x="487" y="528" on="0"/>
        <pt x="467" y="518" on="0"/>
        <pt x="454" y="508" on="0"/>
        <pt x="453" y="508" on="1"/>
        <pt x="452" y="510" on="1"/>
        <pt x="452" y="513" on="0"/>
        <pt x="466" y="531" on="0"/>
        <pt x="495" y="549" on="0"/>
      </contour>
    </TTGlyph>
    <TTGlyph name="P" xMin="5" yMin="-98" xMax="689" yMax="465">
      <contour>
        <pt x="188" y="-82" on="1"/>
        <pt x="190" y="-94" on="1"/>
        <pt x="190" y="-98" on="0"/>
        <pt x="186" y="-98" on="1"/>
        <pt x="158" y="-98" on="0"/>
        <pt x="158" y="-53" on="1"/>
        <pt x="158" y="34" on="0"/>
        <pt x="297" y="307" on="0"/>
        <pt x="402" y="430" on="1"/>
        <pt x="402" y="431" on="1"/>
        <pt x="159" y="411" on="0"/>
        <pt x="27" y="315" on="1"/>
        <pt x="25" y="313" on="0"/>
        <pt x="21" y="313" on="1"/>
        <pt x="5" y="313" on="0"/>
        <pt x="5" y="363" on="0"/>
        <pt x="46" y="383" on="1"/>
        <pt x="219" y="465" on="0"/>
        <pt x="418" y="465" on="1"/>
        <pt x="545" y="465" on="0"/>
        <pt x="689" y="391" on="0"/>
        <pt x="689" y="257" on="0"/>
        <pt x="496" y="147" on="0"/>
        <pt x="396" y="147" on="1"/>
        <pt x="341" y="147" on="0"/>
        <pt x="286" y="167" on="1"/>
        <pt x="254" y="122" on="0"/>
        <pt x="188" y="-45" on="0"/>
      </contour>
      <contour>
        <pt x="668" y="349" on="1"/>
        <pt x="668" y="431" on="0"/>
        <pt x="419" y="431" on="1"/>
        <pt x="445" y="415" on="0"/>
        <pt x="445" y="413" on="1"/>
        <pt x="292" y="198" on="0"/>
        <pt x="292" y="181" on="1"/>
        <pt x="312" y="175" on="0"/>
        <pt x="407" y="175" on="0"/>
        <pt x="558" y="226" on="0"/>
        <pt x="668" y="309" on="0"/>
      </contour>
    </TTGlyph>
    <TTGlyph name="Q" xMin="32" yMin="-229" xMax="776" yMax="459">
      <contour>
        <pt x="776" y="-166" on="1"/>
        <pt x="776" y="-229" on="0"/>
        <pt x="707" y="-229" on="1"/>
        <pt x="626" y="-229" on="0"/>
        <pt x="522" y="-166" on="1"/>
        <pt x="491" y="-147" on="0"/>
        <pt x="361" y="-47" on="1"/>
        <pt x="290" y="-82" on="0"/>
        <pt x="152" y="-82" on="0"/>
        <pt x="59" y="8" on="0"/>
        <pt x="59" y="81" on="1"/>
        <pt x="59" y="188" on="0"/>
        <pt x="254" y="367" on="0"/>
        <pt x="370" y="367" on="1"/>
        <pt x="414" y="367" on="0"/>
        <pt x="417" y="349" on="1"/>
        <pt x="406" y="355" on="0"/>
        <pt x="379" y="355" on="1"/>
        <pt x="330" y="355" on="0"/>
        <pt x="184" y="254" on="0"/>
        <pt x="75" y="115" on="0"/>
        <pt x="75" y="66" on="1"/>
        <pt x="75" y="-43" on="0"/>
        <pt x="205" y="-43" on="1"/>
        <pt x="257" y="-43" on="0"/>
        <pt x="321" y="-18" on="1"/>
        <pt x="224" y="52" on="0"/>
        <pt x="157" y="52" on="1"/>
        <pt x="120" y="52" on="0"/>
        <pt x="98" y="33" on="1"/>
        <pt x="95" y="33" on="0"/>
        <pt x="95" y="35" on="1"/>
        <pt x="95" y="49" on="0"/>
        <pt x="148" y="71" on="0"/>
        <pt x="167" y="71" on="1"/>
        <pt x="229" y="71" on="0"/>
        <pt x="342" y="-9" on="1"/>
        <pt x="445" y="38" on="0"/>
        <pt x="585" y="214" on="0"/>
        <pt x="585" y="298" on="1"/>
        <pt x="585" y="364" on="0"/>
        <pt x="499" y="435" on="0"/>
        <pt x="425" y="435" on="1"/>
        <pt x="324" y="435" on="0"/>
        <pt x="78" y="309" on="0"/>
        <pt x="37" y="232" on="1"/>
        <pt x="32" y="232" on="0"/>
        <pt x="32" y="249" on="0"/>
        <pt x="62" y="283" on="1"/>
        <pt x="131" y="361" on="0"/>
        <pt x="320" y="459" on="0"/>
        <pt x="414" y="459" on="1"/>
        <pt x="490" y="459" on="0"/>
        <pt x="624" y="340" on="0"/>
        <pt x="624" y="193" on="0"/>
        <pt x="483" y="17" on="0"/>
        <pt x="381" y="-37" on="1"/>
        <pt x="505" y="-126" on="0"/>
        <pt x="632" y="-186" on="0"/>
        <pt x="755" y="-186" on="0"/>
        <pt x="755" y="-140" on="1"/>
        <pt x="755" y="-90" on="0"/>
        <pt x="682" y="-45" on="1"/>
        <pt x="648" y="-24" on="0"/>
        <pt x="545" y="10" on="0"/>
        <pt x="545" y="8" on="1"/>
        <pt x="545" y="10" on="0"/>
        <pt x="556" y="10" on="1"/>
        <pt x="659" y="10" on="0"/>
        <pt x="776" y="-95" on="0"/>
      </contour>
    </TTGlyph>
    <TTGlyph name="R" xMin="1" yMin="-61" xMax="694" yMax="460">
      <contour>
        <pt x="540" y="460" on="0"/>
        <pt x="694" y="397" on="0"/>
        <pt x="694" y="292" on="0"/>
        <pt x="591" y="203" on="0"/>
        <pt x="435" y="152" on="0"/>
        <pt x="357" y="152" on="1"/>
        <pt x="330" y="152" on="0"/>
        <pt x="308" y="155" on="1"/>
        <pt x="427" y="-37" on="0"/>
        <pt x="486" y="-37" on="1"/>
        <pt x="509" y="-37" on="0"/>
        <pt x="515" y="-12" on="1"/>
        <pt x="523" y="30" on="1"/>
        <pt x="533" y="23" on="0"/>
        <pt x="533" y="-18" on="0"/>
        <pt x="496" y="-58" on="0"/>
        <pt x="434" y="-58" on="0"/>
        <pt x="311" y="69" on="0"/>
        <pt x="248" y="169" on="1"/>
        <pt x="168" y="33" on="0"/>
        <pt x="168" y="-33" on="1"/>
        <pt x="168" y="-51" on="0"/>
        <pt x="180" y="-58" on="1"/>
        <pt x="180" y="-61" on="0"/>
        <pt x="175" y="-61" on="1"/>
        <pt x="154" y="-61" on="0"/>
        <pt x="154" y="-3" on="1"/>
        <pt x="154" y="86" on="0"/>
        <pt x="225" y="208" on="1"/>
        <pt x="209" y="237" on="0"/>
        <pt x="209" y="245" on="1"/>
        <pt x="209" y="264" on="0"/>
        <pt x="235" y="264" on="1"/>
        <pt x="246" y="264" on="0"/>
        <pt x="251" y="252" on="1"/>
        <pt x="335" y="378" on="0"/>
        <pt x="422" y="420" on="1"/>
        <pt x="425" y="421" on="0"/>
        <pt x="434" y="421" on="0"/>
        <pt x="452" y="411" on="0"/>
        <pt x="452" y="402" on="0"/>
        <pt x="449" y="402" on="1"/>
        <pt x="403" y="356" on="1"/>
        <pt x="345" y="297" on="0"/>
        <pt x="275" y="209" on="1"/>
        <pt x="290" y="182" on="0"/>
        <pt x="311" y="169" on="0"/>
        <pt x="340" y="169" on="1"/>
        <pt x="408" y="169" on="0"/>
        <pt x="564" y="227" on="0"/>
        <pt x="670" y="313" on="0"/>
        <pt x="670" y="391" on="0"/>
        <pt x="550" y="436" on="0"/>
        <pt x="452" y="436" on="1"/>
        <pt x="195" y="436" on="0"/>
        <pt x="37" y="326" on="1"/>
        <pt x="24" y="318" on="0"/>
        <pt x="17" y="318" on="1"/>
        <pt x="1" y="318" on="0"/>
        <pt x="1" y="334" on="1"/>
        <pt x="1" y="368" on="0"/>
        <pt x="136" y="427" on="0"/>
        <pt x="319" y="459" on="0"/>
        <pt x="402" y="460" on="1"/>
        <pt x="415" y="460" on="1"/>
      </contour>
    </TTGlyph>
    <TTGlyph name="Rcommaaccent" xMin="1" yMin="-194" xMax="694" yMax="460">
      <contour>
        <pt x="540" y="460" on="0"/>
        <pt x="694" y="397" on="0"/>
        <pt x="694" y="292" on="0"/>
        <pt x="591" y="203" on="0"/>
        <pt x="435" y="152" on="0"/>
        <pt x="357" y="152" on="1"/>
        <pt x="330" y="152" on="0"/>
        <pt x="308" y="155" on="1"/>
        <pt x="427" y="-37" on="0"/>
        <pt x="486" y="-37" on="1"/>
        <pt x="509" y="-37" on="0"/>
        <pt x="515" y="-12" on="1"/>
        <pt x="523" y="30" on="1"/>
        <pt x="533" y="23" on="0"/>
        <pt x="533" y="-18" on="0"/>
        <pt x="496" y="-58" on="0"/>
        <pt x="434" y="-58" on="0"/>
        <pt x="311" y="69" on="0"/>
        <pt x="248" y="169" on="1"/>
        <pt x="168" y="33" on="0"/>
        <pt x="168" y="-33" on="1"/>
        <pt x="168" y="-51" on="0"/>
        <pt x="180" y="-58" on="1"/>
        <pt x="180" y="-61" on="0"/>
        <pt x="175" y="-61" on="1"/>
        <pt x="154" y="-61" on="0"/>
        <pt x="154" y="-3" on="1"/>
        <pt x="154" y="86" on="0"/>
        <pt x="225" y="208" on="1"/>
        <pt x="209" y="237" on="0"/>
        <pt x="209" y="245" on="1"/>
        <pt x="209" y="264" on="0"/>
        <pt x="235" y="264" on="1"/>
        <pt x="246" y="264" on="0"/>
        <pt x="251" y="252" on="1"/>
        <pt x="335" y="378" on="0"/>
        <pt x="422" y="420" on="1"/>
        <pt x="425" y="421" on="0"/>
        <pt x="434" y="421" on="0"/>
        <pt x="452" y="411" on="0"/>
        <pt x="452" y="402" on="0"/>
        <pt x="449" y="402" on="1"/>
        <pt x="403" y="356" on="1"/>
        <pt x="345" y="297" on="0"/>
        <pt x="275" y="209" on="1"/>
        <pt x="290" y="182" on="0"/>
        <pt x="311" y="169" on="0"/>
        <pt x="340" y="169" on="1"/>
        <pt x="408" y="169" on="0"/>
        <pt x="564" y="227" on="0"/>
        <pt x="670" y="313" on="0"/>
        <pt x="670" y="391" on="0"/>
        <pt x="550" y="436" on="0"/>
        <pt x="452" y="436" on="1"/>
        <pt x="195" y="436" on="0"/>
        <pt x="37" y="326" on="1"/>
        <pt x="24" y="318" on="0"/>
        <pt x="17" y="318" on="1"/>
        <pt x="1" y="318" on="0"/>
        <pt x="1" y="334" on="1"/>
        <pt x="1" y="368" on="0"/>
        <pt x="136" y="427" on="0"/>
        <pt x="319" y="459" on="0"/>
        <pt x="402" y="460" on="1"/>
        <pt x="415" y="460" on="1"/>
      </contour>
      <contour>
        <pt x="259" y="-87" on="0"/>
        <pt x="278" y="-102" on="0"/>
        <pt x="278" y="-136" on="0"/>
        <pt x="242" y="-194" on="0"/>
        <pt x="217" y="-194" on="1"/>
        <pt x="213" y="-194" on="0"/>
        <pt x="213" y="-192" on="1"/>
        <pt x="241" y="-161" on="0"/>
        <pt x="245" y="-140" on="1"/>
        <pt x="245" y="-132" on="0"/>
        <pt x="225" y="-113" on="0"/>
        <pt x="225" y="-109" on="1"/>
        <pt x="225" y="-87" on="0"/>
        <pt x="247" y="-87" on="1"/>
      </contour>
    </TTGlyph>
    <TTGlyph name="S" xMin="16" yMin="-56" xMax="468" yMax="492">
      <contour>
        <pt x="435" y="434" on="1"/>
        <pt x="435" y="443" on="0"/>
        <pt x="410" y="443" on="1"/>
        <pt x="350" y="443" on="0"/>
        <pt x="212" y="400" on="0"/>
        <pt x="113" y="324" on="0"/>
        <pt x="113" y="249" on="0"/>
        <pt x="287" y="67" on="0"/>
        <pt x="287" y="21" on="1"/>
        <pt x="287" y="-12" on="0"/>
        <pt x="221" y="-56" on="0"/>
        <pt x="175" y="-56" on="1"/>
        <pt x="150" y="-56" on="1"/>
        <pt x="54" y="-56" on="0"/>
        <pt x="16" y="3" on="1"/>
        <pt x="18" y="9" on="1"/>
        <pt x="61" y="-11" on="0"/>
        <pt x="159" y="-11" on="0"/>
        <pt x="256" y="27" on="0"/>
        <pt x="256" y="53" on="1"/>
        <pt x="256" y="68" on="0"/>
        <pt x="213" y="114" on="1"/>
        <pt x="130" y="201" on="0"/>
        <pt x="89" y="263" on="0"/>
        <pt x="89" y="306" on="1"/>
        <pt x="89" y="417" on="0"/>
        <pt x="296" y="471" on="1"/>
        <pt x="388" y="492" on="0"/>
        <pt x="414" y="492" on="0"/>
        <pt x="425" y="489" on="1"/>
        <pt x="450" y="463" on="1"/>
        <pt x="466" y="445" on="0"/>
        <pt x="468" y="433" on="1"/>
        <pt x="468" y="412" on="0"/>
        <pt x="361" y="355" on="0"/>
        <pt x="349" y="355" on="1"/>
        <pt x="348" y="360" on="1"/>
        <pt x="399" y="395" on="1"/>
        <pt x="435" y="419" on="0"/>
      </contour>
    </TTGlyph>
    <TTGlyph name="Scaron" xMin="16" yMin="-56" xMax="468" yMax="625">
      <contour>
        <pt x="435" y="434" on="1"/>
        <pt x="435" y="443" on="0"/>
        <pt x="410" y="443" on="1"/>
        <pt x="350" y="443" on="0"/>
        <pt x="212" y="400" on="0"/>
        <pt x="113" y="324" on="0"/>
        <pt x="113" y="249" on="0"/>
        <pt x="287" y="67" on="0"/>
        <pt x="287" y="21" on="1"/>
        <pt x="287" y="-12" on="0"/>
        <pt x="221" y="-56" on="0"/>
        <pt x="175" y="-56" on="1"/>
        <pt x="150" y="-56" on="1"/>
        <pt x="54" y="-56" on="0"/>
        <pt x="16" y="3" on="1"/>
        <pt x="18" y="9" on="1"/>
        <pt x="61" y="-11" on="0"/>
        <pt x="159" y="-11" on="0"/>
        <pt x="256" y="27" on="0"/>
        <pt x="256" y="53" on="1"/>
        <pt x="256" y="68" on="0"/>
        <pt x="213" y="114" on="1"/>
        <pt x="130" y="201" on="0"/>
        <pt x="89" y="263" on="0"/>
        <pt x="89" y="306" on="1"/>
        <pt x="89" y="417" on="0"/>
        <pt x="296" y="471" on="1"/>
        <pt x="388" y="492" on="0"/>
        <pt x="414" y="492" on="0"/>
        <pt x="425" y="489" on="1"/>
        <pt x="450" y="463" on="1"/>
        <pt x="466" y="445" on="0"/>
        <pt x="468" y="433" on="1"/>
        <pt x="468" y="412" on="0"/>
        <pt x="361" y="355" on="0"/>
        <pt x="349" y="355" on="1"/>
        <pt x="348" y="360" on="1"/>
        <pt x="399" y="395" on="1"/>
        <pt x="435" y="419" on="0"/>
      </contour>
      <contour>
        <pt x="248" y="607" on="0"/>
        <pt x="248" y="621" on="0"/>
        <pt x="254" y="621" on="1"/>
        <pt x="262" y="621" on="0"/>
        <pt x="339" y="558" on="1"/>
        <pt x="353" y="572" on="0"/>
        <pt x="435" y="623" on="0"/>
        <pt x="449" y="625" on="1"/>
        <pt x="452" y="619" on="1"/>
        <pt x="448" y="612" on="1"/>
        <pt x="390" y="568" on="0"/>
        <pt x="350" y="528" on="1"/>
        <pt x="340" y="532" on="0"/>
      </contour>
    </TTGlyph>
    <TTGlyph name="T" xMin="12" yMin="-79" xMax="704" yMax="525">
      <contour>
        <pt x="209" y="336" on="1"/>
        <pt x="228" y="337" on="1"/>
        <pt x="235" y="337" on="0"/>
        <pt x="235" y="333" on="1"/>
        <pt x="235" y="323" on="0"/>
        <pt x="211" y="323" on="1"/>
        <pt x="150" y="323" on="0"/>
        <pt x="12" y="403" on="0"/>
        <pt x="12" y="447" on="1"/>
        <pt x="12" y="505" on="0"/>
        <pt x="70" y="505" on="1"/>
        <pt x="84" y="505" on="0"/>
        <pt x="101" y="502" on="1"/>
        <pt x="440" y="415" on="0"/>
        <pt x="585" y="415" on="1"/>
        <pt x="674" y="415" on="0"/>
        <pt x="674" y="454" on="1"/>
        <pt x="674" y="481" on="0"/>
        <pt x="618" y="499" on="1"/>
        <pt x="564" y="520" on="1"/>
        <pt x="564" y="525" on="0"/>
        <pt x="577" y="525" on="1"/>
        <pt x="616" y="525" on="0"/>
        <pt x="704" y="456" on="0"/>
        <pt x="704" y="422" on="1"/>
        <pt x="704" y="383" on="0"/>
        <pt x="628" y="383" on="1"/>
        <pt x="624" y="383" on="1"/>
        <pt x="521" y="387" on="0"/>
        <pt x="453" y="401" on="1"/>
        <pt x="261" y="440" on="0"/>
        <pt x="209" y="451" on="0"/>
        <pt x="178" y="457" on="0"/>
        <pt x="153" y="461" on="1"/>
        <pt x="109" y="468" on="0"/>
        <pt x="31" y="468" on="0"/>
        <pt x="31" y="447" on="1"/>
        <pt x="31" y="410" on="0"/>
        <pt x="166" y="336" on="0"/>
      </contour>
      <contour>
        <pt x="495" y="374" on="1"/>
        <pt x="495" y="371" on="0"/>
        <pt x="490" y="361" on="1"/>
        <pt x="427" y="298" on="1"/>
        <pt x="256" y="107" on="0"/>
        <pt x="256" y="-40" on="1"/>
        <pt x="256" y="-68" on="0"/>
        <pt x="285" y="-68" on="1"/>
        <pt x="305" y="-68" on="0"/>
        <pt x="333" y="-54" on="1"/>
        <pt x="358" y="-40" on="1"/>
        <pt x="362" y="-40" on="0"/>
        <pt x="362" y="-42" on="1"/>
        <pt x="362" y="-54" on="0"/>
        <pt x="298" y="-79" on="0"/>
        <pt x="287" y="-79" on="1"/>
        <pt x="260" y="-79" on="0"/>
        <pt x="230" y="-42" on="0"/>
        <pt x="230" y="35" on="0"/>
        <pt x="311" y="227" on="0"/>
        <pt x="430" y="389" on="0"/>
        <pt x="472" y="389" on="1"/>
        <pt x="495" y="389" on="0"/>
      </contour>
    </TTGlyph>
    <TTGlyph name="Thorn" xMin="-109" yMin="-267" xMax="276" yMax="494">
      <contour>
        <pt x="105" y="480" on="1"/>
        <pt x="70" y="473" on="1"/>
        <pt x="63" y="473" on="0"/>
        <pt x="63" y="479" on="1"/>
        <pt x="63" y="494" on="0"/>
        <pt x="137" y="494" on="0"/>
        <pt x="179" y="468" on="0"/>
        <pt x="179" y="422" on="0"/>
        <pt x="140" y="344" on="1"/>
        <pt x="134" y="346" on="1"/>
        <pt x="168" y="369" on="0"/>
        <pt x="207" y="369" on="1"/>
        <pt x="276" y="369" on="0"/>
        <pt x="276" y="225" on="0"/>
        <pt x="129" y="40" on="0"/>
        <pt x="63" y="40" on="1"/>
        <pt x="39" y="40" on="0"/>
        <pt x="17" y="54" on="1"/>
        <pt x="-76" y="-196" on="0"/>
        <pt x="-76" y="-232" on="1"/>
        <pt x="-76" y="-256" on="0"/>
        <pt x="-58" y="-256" on="1"/>
        <pt x="-53" y="-256" on="0"/>
        <pt x="-29" y="-245" on="0"/>
        <pt x="-25" y="-245" on="0"/>
        <pt x="-25" y="-247" on="1"/>
        <pt x="-25" y="-254" on="0"/>
        <pt x="-53" y="-267" on="0"/>
        <pt x="-79" y="-267" on="0"/>
        <pt x="-109" y="-231" on="0"/>
        <pt x="-109" y="-212" on="1"/>
        <pt x="-109" y="-159" on="0"/>
        <pt x="-34" y="36" on="1"/>
        <pt x="-15" y="87" on="1"/>
        <pt x="-19" y="87" on="0"/>
        <pt x="-19" y="96" on="0"/>
        <pt x="-17" y="98" on="1"/>
        <pt x="-13" y="95" on="1"/>
        <pt x="53" y="264" on="0"/>
        <pt x="100" y="372" on="1"/>
        <pt x="123" y="439" on="0"/>
        <pt x="123" y="480" on="0"/>
      </contour>
      <contour>
        <pt x="208" y="349" on="1"/>
        <pt x="165" y="349" on="0"/>
        <pt x="112" y="273" on="1"/>
        <pt x="47" y="135" on="0"/>
        <pt x="26" y="77" on="1"/>
        <pt x="38" y="75" on="0"/>
        <pt x="44" y="75" on="1"/>
        <pt x="110" y="75" on="0"/>
        <pt x="229" y="238" on="0"/>
        <pt x="229" y="318" on="1"/>
        <pt x="229" y="349" on="0"/>
      </contour>
    </TTGlyph>
    <TTGlyph name="U" xMin="5" yMin="-229" xMax="585" yMax="461">
      <contour>
        <pt x="585" y="441" on="1"/>
        <pt x="585" y="410" on="0"/>
        <pt x="546" y="363" on="1"/>
        <pt x="523" y="336" on="0"/>
        <pt x="500" y="311" on="1"/>
        <pt x="439" y="246" on="0"/>
        <pt x="348" y="144" on="1"/>
        <pt x="332" y="118" on="0"/>
        <pt x="297" y="-25" on="0"/>
        <pt x="297" y="-59" on="1"/>
        <pt x="297" y="-180" on="0"/>
        <pt x="339" y="-225" on="1"/>
        <pt x="340" y="-225" on="0"/>
        <pt x="339" y="-228" on="0"/>
        <pt x="337" y="-229" on="1"/>
        <pt x="312" y="-229" on="0"/>
        <pt x="264" y="-84" on="0"/>
        <pt x="264" y="26" on="0"/>
        <pt x="280" y="76" on="1"/>
        <pt x="186" y="-39" on="0"/>
        <pt x="131" y="-39" on="1"/>
        <pt x="104" y="-39" on="0"/>
        <pt x="57" y="20" on="0"/>
        <pt x="57" y="47" on="1"/>
        <pt x="57" y="114" on="0"/>
        <pt x="121" y="223" on="1"/>
        <pt x="224" y="390" on="1"/>
        <pt x="174" y="374" on="0"/>
        <pt x="114" y="334" on="1"/>
        <pt x="8" y="260" on="0"/>
        <pt x="6" y="260" on="1"/>
        <pt x="5" y="261" on="1"/>
        <pt x="7" y="265" on="1"/>
        <pt x="37" y="303" on="0"/>
        <pt x="192" y="410" on="0"/>
        <pt x="221" y="410" on="1"/>
        <pt x="237" y="410" on="0"/>
        <pt x="264" y="385" on="0"/>
        <pt x="264" y="355" on="0"/>
        <pt x="138" y="155" on="0"/>
        <pt x="93" y="61" on="0"/>
        <pt x="93" y="15" on="1"/>
        <pt x="93" y="-2" on="0"/>
        <pt x="107" y="-2" on="1"/>
        <pt x="133" y="-2" on="0"/>
        <pt x="304" y="150" on="0"/>
        <pt x="332" y="205" on="1"/>
        <pt x="390" y="324" on="0"/>
        <pt x="513" y="461" on="0"/>
        <pt x="563" y="461" on="1"/>
        <pt x="585" y="461" on="0"/>
      </contour>
      <contour>
        <pt x="568" y="441" on="1"/>
        <pt x="568" y="446" on="0"/>
        <pt x="562" y="446" on="1"/>
        <pt x="533" y="446" on="0"/>
        <pt x="402" y="289" on="0"/>
        <pt x="360" y="203" on="1"/>
        <pt x="360" y="201" on="1"/>
        <pt x="360" y="200" on="0"/>
        <pt x="361" y="198" on="1"/>
        <pt x="434" y="269" on="0"/>
        <pt x="568" y="425" on="0"/>
      </contour>
    </TTGlyph>
    <TTGlyph name="Uacute" xMin="5" yMin="-229" xMax="585" yMax="548">
      <contour>
        <pt x="585" y="441" on="1"/>
        <pt x="585" y="410" on="0"/>
        <pt x="546" y="363" on="1"/>
        <pt x="523" y="336" on="0"/>
        <pt x="500" y="311" on="1"/>
        <pt x="439" y="246" on="0"/>
        <pt x="348" y="144" on="1"/>
        <pt x="332" y="118" on="0"/>
        <pt x="297" y="-25" on="0"/>
        <pt x="297" y="-59" on="1"/>
        <pt x="297" y="-180" on="0"/>
        <pt x="339" y="-225" on="1"/>
        <pt x="340" y="-225" on="0"/>
        <pt x="339" y="-228" on="0"/>
        <pt x="337" y="-229" on="1"/>
        <pt x="312" y="-229" on="0"/>
        <pt x="264" y="-84" on="0"/>
        <pt x="264" y="26" on="0"/>
        <pt x="280" y="76" on="1"/>
        <pt x="186" y="-39" on="0"/>
        <pt x="131" y="-39" on="1"/>
        <pt x="104" y="-39" on="0"/>
        <pt x="57" y="20" on="0"/>
        <pt x="57" y="47" on="1"/>
        <pt x="57" y="114" on="0"/>
        <pt x="121" y="223" on="1"/>
        <pt x="224" y="390" on="1"/>
        <pt x="174" y="374" on="0"/>
        <pt x="114" y="334" on="1"/>
        <pt x="8" y="260" on="0"/>
        <pt x="6" y="260" on="1"/>
        <pt x="5" y="261" on="1"/>
        <pt x="7" y="265" on="1"/>
        <pt x="37" y="303" on="0"/>
        <pt x="192" y="410" on="0"/>
        <pt x="221" y="410" on="1"/>
        <pt x="237" y="410" on="0"/>
        <pt x="264" y="385" on="0"/>
        <pt x="264" y="355" on="0"/>
        <pt x="138" y="155" on="0"/>
        <pt x="93" y="61" on="0"/>
        <pt x="93" y="15" on="1"/>
        <pt x="93" y="-2" on="0"/>
        <pt x="107" y="-2" on="1"/>
        <pt x="133" y="-2" on="0"/>
        <pt x="304" y="150" on="0"/>
        <pt x="332" y="205" on="1"/>
        <pt x="390" y="324" on="0"/>
        <pt x="513" y="461" on="0"/>
        <pt x="563" y="461" on="1"/>
        <pt x="585" y="461" on="0"/>
      </contour>
      <contour>
        <pt x="568" y="441" on="1"/>
        <pt x="568" y="446" on="0"/>
        <pt x="562" y="446" on="1"/>
        <pt x="533" y="446" on="0"/>
        <pt x="402" y="289" on="0"/>
        <pt x="360" y="203" on="1"/>
        <pt x="360" y="201" on="1"/>
        <pt x="360" y="200" on="0"/>
        <pt x="361" y="198" on="1"/>
        <pt x="434" y="269" on="0"/>
        <pt x="568" y="425" on="0"/>
      </contour>
      <contour>
        <pt x="332" y="458" on="0"/>
        <pt x="449" y="548" on="0"/>
        <pt x="464" y="548" on="0"/>
        <pt x="464" y="525" on="0"/>
        <pt x="453" y="513" on="0"/>
        <pt x="341" y="447" on="0"/>
        <pt x="332" y="447" on="0"/>
      </contour>
    </TTGlyph>
    <TTGlyph name="Ucircumflex" xMin="5" yMin="-229" xMax="585" yMax="545">
      <contour>
        <pt x="585" y="441" on="1"/>
        <pt x="585" y="410" on="0"/>
        <pt x="546" y="363" on="1"/>
        <pt x="523" y="336" on="0"/>
        <pt x="500" y="311" on="1"/>
        <pt x="439" y="246" on="0"/>
        <pt x="348" y="144" on="1"/>
        <pt x="332" y="118" on="0"/>
        <pt x="297" y="-25" on="0"/>
        <pt x="297" y="-59" on="1"/>
        <pt x="297" y="-180" on="0"/>
        <pt x="339" y="-225" on="1"/>
        <pt x="340" y="-225" on="0"/>
        <pt x="339" y="-228" on="0"/>
        <pt x="337" y="-229" on="1"/>
        <pt x="312" y="-229" on="0"/>
        <pt x="264" y="-84" on="0"/>
        <pt x="264" y="26" on="0"/>
        <pt x="280" y="76" on="1"/>
        <pt x="186" y="-39" on="0"/>
        <pt x="131" y="-39" on="1"/>
        <pt x="104" y="-39" on="0"/>
        <pt x="57" y="20" on="0"/>
        <pt x="57" y="47" on="1"/>
        <pt x="57" y="114" on="0"/>
        <pt x="121" y="223" on="1"/>
        <pt x="224" y="390" on="1"/>
        <pt x="174" y="374" on="0"/>
        <pt x="114" y="334" on="1"/>
        <pt x="8" y="260" on="0"/>
        <pt x="6" y="260" on="1"/>
        <pt x="5" y="261" on="1"/>
        <pt x="7" y="265" on="1"/>
        <pt x="37" y="303" on="0"/>
        <pt x="192" y="410" on="0"/>
        <pt x="221" y="410" on="1"/>
        <pt x="237" y="410" on="0"/>
        <pt x="264" y="385" on="0"/>
        <pt x="264" y="355" on="0"/>
        <pt x="138" y="155" on="0"/>
        <pt x="93" y="61" on="0"/>
        <pt x="93" y="15" on="1"/>
        <pt x="93" y="-2" on="0"/>
        <pt x="107" y="-2" on="1"/>
        <pt x="133" y="-2" on="0"/>
        <pt x="304" y="150" on="0"/>
        <pt x="332" y="205" on="1"/>
        <pt x="390" y="324" on="0"/>
        <pt x="513" y="461" on="0"/>
        <pt x="563" y="461" on="1"/>
        <pt x="585" y="461" on="0"/>
      </contour>
      <contour>
        <pt x="568" y="441" on="1"/>
        <pt x="568" y="446" on="0"/>
        <pt x="562" y="446" on="1"/>
        <pt x="533" y="446" on="0"/>
        <pt x="402" y="289" on="0"/>
        <pt x="360" y="203" on="1"/>
        <pt x="360" y="201" on="1"/>
        <pt x="360" y="200" on="0"/>
        <pt x="361" y="198" on="1"/>
        <pt x="434" y="269" on="0"/>
        <pt x="568" y="425" on="0"/>
      </contour>
      <contour>
        <pt x="280" y="452" on="0"/>
        <pt x="266" y="452" on="0"/>
        <pt x="266" y="468" on="0"/>
        <pt x="361" y="543" on="0"/>
        <pt x="369" y="545" on="1"/>
        <pt x="373" y="543" on="1"/>
        <pt x="407" y="508" on="0"/>
        <pt x="468" y="462" on="1"/>
        <pt x="472" y="454" on="1"/>
        <pt x="469" y="449" on="1"/>
        <pt x="454" y="450" on="0"/>
        <pt x="371" y="501" on="0"/>
        <pt x="358" y="515" on="1"/>
      </contour>
    </TTGlyph>
    <TTGlyph name="Udieresis" xMin="5" yMin="-229" xMax="585" yMax="532">
      <contour>
        <pt x="585" y="441" on="1"/>
        <pt x="585" y="410" on="0"/>
        <pt x="546" y="363" on="1"/>
        <pt x="523" y="336" on="0"/>
        <pt x="500" y="311" on="1"/>
        <pt x="439" y="246" on="0"/>
        <pt x="348" y="144" on="1"/>
        <pt x="332" y="118" on="0"/>
        <pt x="297" y="-25" on="0"/>
        <pt x="297" y="-59" on="1"/>
        <pt x="297" y="-180" on="0"/>
        <pt x="339" y="-225" on="1"/>
        <pt x="340" y="-225" on="0"/>
        <pt x="339" y="-228" on="0"/>
        <pt x="337" y="-229" on="1"/>
        <pt x="312" y="-229" on="0"/>
        <pt x="264" y="-84" on="0"/>
        <pt x="264" y="26" on="0"/>
        <pt x="280" y="76" on="1"/>
        <pt x="186" y="-39" on="0"/>
        <pt x="131" y="-39" on="1"/>
        <pt x="104" y="-39" on="0"/>
        <pt x="57" y="20" on="0"/>
        <pt x="57" y="47" on="1"/>
        <pt x="57" y="114" on="0"/>
        <pt x="121" y="223" on="1"/>
        <pt x="224" y="390" on="1"/>
        <pt x="174" y="374" on="0"/>
        <pt x="114" y="334" on="1"/>
        <pt x="8" y="260" on="0"/>
        <pt x="6" y="260" on="1"/>
        <pt x="5" y="261" on="1"/>
        <pt x="7" y="265" on="1"/>
        <pt x="37" y="303" on="0"/>
        <pt x="192" y="410" on="0"/>
        <pt x="221" y="410" on="1"/>
        <pt x="237" y="410" on="0"/>
        <pt x="264" y="385" on="0"/>
        <pt x="264" y="355" on="0"/>
        <pt x="138" y="155" on="0"/>
        <pt x="93" y="61" on="0"/>
        <pt x="93" y="15" on="1"/>
        <pt x="93" y="-2" on="0"/>
        <pt x="107" y="-2" on="1"/>
        <pt x="133" y="-2" on="0"/>
        <pt x="304" y="150" on="0"/>
        <pt x="332" y="205" on="1"/>
        <pt x="390" y="324" on="0"/>
        <pt x="513" y="461" on="0"/>
        <pt x="563" y="461" on="1"/>
        <pt x="585" y="461" on="0"/>
      </contour>
      <contour>
        <pt x="568" y="441" on="1"/>
        <pt x="568" y="446" on="0"/>
        <pt x="562" y="446" on="1"/>
        <pt x="533" y="446" on="0"/>
        <pt x="402" y="289" on="0"/>
        <pt x="360" y="203" on="1"/>
        <pt x="360" y="201" on="1"/>
        <pt x="360" y="200" on="0"/>
        <pt x="361" y="198" on="1"/>
        <pt x="434" y="269" on="0"/>
        <pt x="568" y="425" on="0"/>
      </contour>
      <contour>
        <pt x="431" y="467" on="1"/>
        <pt x="426" y="467" on="0"/>
        <pt x="415" y="482" on="0"/>
        <pt x="415" y="500" on="0"/>
        <pt x="460" y="532" on="0"/>
        <pt x="472" y="532" on="1"/>
        <pt x="474" y="530" on="1"/>
        <pt x="474" y="532" on="1"/>
        <pt x="474" y="530" on="1"/>
        <pt x="470" y="524" on="0"/>
        <pt x="463" y="518" on="1"/>
        <pt x="452" y="488" on="1"/>
        <pt x="443" y="467" on="0"/>
      </contour>
      <contour>
        <pt x="339" y="467" on="1"/>
        <pt x="334" y="467" on="0"/>
        <pt x="324" y="482" on="0"/>
        <pt x="324" y="500" on="0"/>
        <pt x="369" y="532" on="0"/>
        <pt x="380" y="532" on="1"/>
        <pt x="383" y="530" on="1"/>
        <pt x="383" y="532" on="1"/>
        <pt x="383" y="530" on="1"/>
        <pt x="379" y="524" on="0"/>
        <pt x="372" y="518" on="1"/>
        <pt x="360" y="488" on="1"/>
        <pt x="350" y="467" on="0"/>
      </contour>
    </TTGlyph>
    <TTGlyph name="Ugrave" xMin="5" yMin="-229" xMax="585" yMax="560">
      <contour>
        <pt x="585" y="441" on="1"/>
        <pt x="585" y="410" on="0"/>
        <pt x="546" y="363" on="1"/>
        <pt x="523" y="336" on="0"/>
        <pt x="500" y="311" on="1"/>
        <pt x="439" y="246" on="0"/>
        <pt x="348" y="144" on="1"/>
        <pt x="332" y="118" on="0"/>
        <pt x="297" y="-25" on="0"/>
        <pt x="297" y="-59" on="1"/>
        <pt x="297" y="-180" on="0"/>
        <pt x="339" y="-225" on="1"/>
        <pt x="340" y="-225" on="0"/>
        <pt x="339" y="-228" on="0"/>
        <pt x="337" y="-229" on="1"/>
        <pt x="312" y="-229" on="0"/>
        <pt x="264" y="-84" on="0"/>
        <pt x="264" y="26" on="0"/>
        <pt x="280" y="76" on="1"/>
        <pt x="186" y="-39" on="0"/>
        <pt x="131" y="-39" on="1"/>
        <pt x="104" y="-39" on="0"/>
        <pt x="57" y="20" on="0"/>
        <pt x="57" y="47" on="1"/>
        <pt x="57" y="114" on="0"/>
        <pt x="121" y="223" on="1"/>
        <pt x="224" y="390" on="1"/>
        <pt x="174" y="374" on="0"/>
        <pt x="114" y="334" on="1"/>
        <pt x="8" y="260" on="0"/>
        <pt x="6" y="260" on="1"/>
        <pt x="5" y="261" on="1"/>
        <pt x="7" y="265" on="1"/>
        <pt x="37" y="303" on="0"/>
        <pt x="192" y="410" on="0"/>
        <pt x="221" y="410" on="1"/>
        <pt x="237" y="410" on="0"/>
        <pt x="264" y="385" on="0"/>
        <pt x="264" y="355" on="0"/>
        <pt x="138" y="155" on="0"/>
        <pt x="93" y="61" on="0"/>
        <pt x="93" y="15" on="1"/>
        <pt x="93" y="-2" on="0"/>
        <pt x="107" y="-2" on="1"/>
        <pt x="133" y="-2" on="0"/>
        <pt x="304" y="150" on="0"/>
        <pt x="332" y="205" on="1"/>
        <pt x="390" y="324" on="0"/>
        <pt x="513" y="461" on="0"/>
        <pt x="563" y="461" on="1"/>
        <pt x="585" y="461" on="0"/>
      </contour>
      <contour>
        <pt x="568" y="441" on="1"/>
        <pt x="568" y="446" on="0"/>
        <pt x="562" y="446" on="1"/>
        <pt x="533" y="446" on="0"/>
        <pt x="402" y="289" on="0"/>
        <pt x="360" y="203" on="1"/>
        <pt x="360" y="201" on="1"/>
        <pt x="360" y="200" on="0"/>
        <pt x="361" y="198" on="1"/>
        <pt x="434" y="269" on="0"/>
        <pt x="568" y="425" on="0"/>
      </contour>
      <contour>
        <pt x="275" y="542" on="1"/>
        <pt x="275" y="548" on="1"/>
        <pt x="275" y="560" on="0"/>
        <pt x="285" y="560" on="1"/>
        <pt x="290" y="560" on="0"/>
        <pt x="415" y="466" on="0"/>
        <pt x="415" y="453" on="0"/>
        <pt x="409" y="453" on="1"/>
        <pt x="393" y="458" on="0"/>
        <pt x="335" y="494" on="0"/>
        <pt x="317" y="505" on="0"/>
        <pt x="301" y="514" on="0"/>
        <pt x="291" y="522" on="0"/>
        <pt x="283" y="527" on="0"/>
        <pt x="279" y="532" on="0"/>
        <pt x="278" y="533" on="1"/>
        <pt x="275" y="535" on="0"/>
      </contour>
    </TTGlyph>
    <TTGlyph name="V" xMin="26" yMin="-64" xMax="791" yMax="483">
      <contour>
        <pt x="791" y="440" on="1"/>
        <pt x="791" y="433" on="0"/>
        <pt x="789" y="433" on="1"/>
        <pt x="778" y="451" on="1"/>
        <pt x="767" y="468" on="0"/>
        <pt x="744" y="468" on="1"/>
        <pt x="695" y="468" on="0"/>
        <pt x="515" y="304" on="0"/>
        <pt x="366" y="121" on="0"/>
        <pt x="319" y="49" on="1"/>
        <pt x="262" y="-64" on="0"/>
        <pt x="246" y="-64" on="1"/>
        <pt x="236" y="-64" on="0"/>
        <pt x="210" y="-50" on="0"/>
        <pt x="210" y="-43" on="1"/>
        <pt x="242" y="59" on="1"/>
        <pt x="303" y="252" on="0"/>
        <pt x="305" y="366" on="1"/>
        <pt x="305" y="460" on="0"/>
        <pt x="251" y="460" on="1"/>
        <pt x="220" y="460" on="0"/>
        <pt x="120" y="389" on="0"/>
        <pt x="76" y="338" on="1"/>
        <pt x="70" y="326" on="0"/>
        <pt x="36" y="279" on="0"/>
        <pt x="28" y="279" on="1"/>
        <pt x="26" y="279" on="0"/>
        <pt x="26" y="288" on="0"/>
        <pt x="30" y="295" on="1"/>
        <pt x="74" y="372" on="0"/>
        <pt x="194" y="477" on="0"/>
        <pt x="240" y="477" on="1"/>
        <pt x="342" y="477" on="0"/>
        <pt x="342" y="331" on="1"/>
        <pt x="342" y="283" on="0"/>
        <pt x="315" y="171" on="0"/>
        <pt x="281" y="63" on="1"/>
        <pt x="433" y="287" on="0"/>
        <pt x="640" y="483" on="0"/>
        <pt x="724" y="483" on="1"/>
        <pt x="752" y="483" on="0"/>
        <pt x="791" y="460" on="0"/>
      </contour>
    </TTGlyph>
    <TTGlyph name="W" xMin="11" yMin="-104" xMax="725" yMax="459">
      <contour>
        <pt x="532" y="298" on="1"/>
        <pt x="526" y="206" on="0"/>
        <pt x="526" y="162" on="1"/>
        <pt x="526" y="-31" on="0"/>
        <pt x="616" y="-31" on="0"/>
        <pt x="686" y="147" on="0"/>
        <pt x="686" y="227" on="1"/>
        <pt x="686" y="348" on="0"/>
        <pt x="624" y="368" on="1"/>
        <pt x="621" y="370" on="0"/>
        <pt x="621" y="371" on="1"/>
        <pt x="621" y="381" on="0"/>
        <pt x="685" y="381" on="0"/>
        <pt x="725" y="298" on="0"/>
        <pt x="725" y="228" on="1"/>
        <pt x="725" y="116" on="0"/>
        <pt x="635" y="-48" on="0"/>
        <pt x="566" y="-48" on="1"/>
        <pt x="484" y="-48" on="0"/>
        <pt x="484" y="120" on="1"/>
        <pt x="484" y="184" on="0"/>
        <pt x="496" y="273" on="1"/>
        <pt x="468" y="244" on="0"/>
        <pt x="263" y="-1" on="0"/>
        <pt x="135" y="-104" on="0"/>
        <pt x="82" y="-104" on="1"/>
        <pt x="52" y="-104" on="0"/>
        <pt x="11" y="-52" on="0"/>
        <pt x="11" y="-17" on="1"/>
        <pt x="11" y="59" on="0"/>
        <pt x="173" y="291" on="0"/>
        <pt x="373" y="459" on="0"/>
        <pt x="427" y="459" on="1"/>
        <pt x="445" y="459" on="0"/>
        <pt x="445" y="448" on="1"/>
        <pt x="445" y="444" on="0"/>
        <pt x="440" y="442" on="1"/>
        <pt x="378" y="410" on="0"/>
        <pt x="267" y="314" on="0"/>
        <pt x="121" y="149" on="0"/>
        <pt x="40" y="2" on="0"/>
        <pt x="40" y="-79" on="0"/>
        <pt x="71" y="-79" on="1"/>
        <pt x="99" y="-79" on="0"/>
        <pt x="140" y="-62" on="0"/>
        <pt x="253" y="38" on="0"/>
        <pt x="503" y="310" on="0"/>
        <pt x="532" y="310" on="0"/>
      </contour>
    </TTGlyph>
    <TTGlyph name="X" xMin="-2" yMin="-104" xMax="580" yMax="489">
      <contour>
        <pt x="157" y="359" on="1"/>
        <pt x="158" y="354" on="1"/>
        <pt x="155" y="352" on="1"/>
        <pt x="150" y="354" on="0"/>
        <pt x="150" y="410" on="1"/>
        <pt x="150" y="448" on="0"/>
        <pt x="182" y="448" on="1"/>
        <pt x="195" y="448" on="0"/>
        <pt x="258" y="274" on="0"/>
        <pt x="269" y="249" on="1"/>
        <pt x="536" y="489" on="0"/>
        <pt x="552" y="489" on="1"/>
        <pt x="560" y="489" on="0"/>
        <pt x="580" y="471" on="0"/>
        <pt x="580" y="462" on="1"/>
        <pt x="580" y="465" on="0"/>
        <pt x="342" y="264" on="0"/>
        <pt x="281" y="211" on="1"/>
        <pt x="322" y="102" on="1"/>
        <pt x="348" y="35" on="0"/>
        <pt x="383" y="-2" on="1"/>
        <pt x="396" y="-16" on="0"/>
        <pt x="411" y="-16" on="0"/>
        <pt x="418" y="-13" on="0"/>
        <pt x="445" y="37" on="0"/>
        <pt x="465" y="92" on="1"/>
        <pt x="469" y="81" on="0"/>
        <pt x="469" y="71" on="1"/>
        <pt x="469" y="25" on="0"/>
        <pt x="420" y="-32" on="0"/>
        <pt x="381" y="-32" on="1"/>
        <pt x="344" y="-32" on="0"/>
        <pt x="311" y="34" on="1"/>
        <pt x="286" y="83" on="0"/>
        <pt x="248" y="181" on="1"/>
        <pt x="107" y="58" on="0"/>
        <pt x="11" y="-92" on="1"/>
        <pt x="3" y="-104" on="0"/>
        <pt x="-2" y="-104" on="0"/>
        <pt x="-2" y="-74" on="0"/>
        <pt x="4" y="-59" on="1"/>
        <pt x="17" y="-24" on="0"/>
        <pt x="195" y="196" on="0"/>
        <pt x="231" y="221" on="1"/>
        <pt x="207" y="293" on="0"/>
        <pt x="168" y="385" on="1"/>
        <pt x="167" y="385" on="1"/>
        <pt x="157" y="385" on="0"/>
      </contour>
    </TTGlyph>
    <TTGlyph name="Y" xMin="16" yMin="-251" xMax="579" yMax="502">
      <contour>
        <pt x="542" y="323" on="1"/>
        <pt x="557" y="328" on="0"/>
        <pt x="579" y="328" on="0"/>
        <pt x="579" y="321" on="0"/>
        <pt x="570" y="313" on="0"/>
        <pt x="564" y="310" on="1"/>
        <pt x="544" y="299" on="0"/>
        <pt x="536" y="295" on="1"/>
        <pt x="505" y="200" on="0"/>
        <pt x="386" y="33" on="1"/>
        <pt x="277" y="-127" on="0"/>
        <pt x="159" y="-251" on="0"/>
        <pt x="123" y="-251" on="1"/>
        <pt x="76" y="-251" on="0"/>
        <pt x="76" y="-207" on="1"/>
        <pt x="76" y="-180" on="0"/>
        <pt x="160" y="-36" on="0"/>
        <pt x="216" y="25" on="1"/>
        <pt x="243" y="55" on="0"/>
        <pt x="409" y="203" on="0"/>
        <pt x="476" y="268" on="1"/>
        <pt x="484" y="275" on="0"/>
        <pt x="510" y="391" on="0"/>
        <pt x="510" y="445" on="0"/>
        <pt x="496" y="445" on="1"/>
        <pt x="456" y="445" on="0"/>
        <pt x="208" y="100" on="1"/>
        <pt x="159" y="32" on="1"/>
        <pt x="146" y="5" on="0"/>
        <pt x="102" y="5" on="0"/>
        <pt x="102" y="25" on="1"/>
        <pt x="102" y="28" on="1"/>
        <pt x="172" y="193" on="1"/>
        <pt x="206" y="273" on="0"/>
        <pt x="240" y="407" on="0"/>
        <pt x="241" y="433" on="1"/>
        <pt x="241" y="494" on="0"/>
        <pt x="202" y="494" on="1"/>
        <pt x="183" y="494" on="0"/>
        <pt x="92" y="425" on="0"/>
        <pt x="18" y="355" on="0"/>
        <pt x="18" y="349" on="1"/>
        <pt x="19" y="349" on="1"/>
        <pt x="16" y="349" on="0"/>
        <pt x="16" y="354" on="0"/>
        <pt x="19" y="359" on="1"/>
        <pt x="60" y="419" on="0"/>
        <pt x="162" y="502" on="0"/>
        <pt x="198" y="502" on="1"/>
        <pt x="271" y="502" on="0"/>
        <pt x="271" y="410" on="1"/>
        <pt x="271" y="306" on="0"/>
        <pt x="179" y="96" on="1"/>
        <pt x="330" y="307" on="1"/>
        <pt x="454" y="475" on="0"/>
        <pt x="517" y="475" on="0"/>
        <pt x="517" y="462" on="1"/>
        <pt x="516" y="460" on="0"/>
        <pt x="511" y="456" on="1"/>
        <pt x="550" y="417" on="0"/>
        <pt x="550" y="374" on="1"/>
        <pt x="550" y="350" on="0"/>
      </contour>
      <contour>
        <pt x="119" y="-192" on="1"/>
        <pt x="108" y="-216" on="0"/>
        <pt x="108" y="-229" on="0"/>
        <pt x="113" y="-229" on="1"/>
        <pt x="113" y="-229" on="0"/>
        <pt x="121" y="-229" on="0"/>
        <pt x="141" y="-212" on="1"/>
        <pt x="216" y="-149" on="0"/>
        <pt x="403" y="110" on="0"/>
        <pt x="460" y="229" on="1"/>
        <pt x="200" y="-6" on="0"/>
      </contour>
    </TTGlyph>
    <TTGlyph name="Yacute" xMin="16" yMin="-251" xMax="579" yMax="581">
      <contour>
        <pt x="542" y="323" on="1"/>
        <pt x="557" y="328" on="0"/>
        <pt x="579" y="328" on="0"/>
        <pt x="579" y="321" on="0"/>
        <pt x="570" y="313" on="0"/>
        <pt x="564" y="310" on="1"/>
        <pt x="544" y="299" on="0"/>
        <pt x="536" y="295" on="1"/>
        <pt x="505" y="200" on="0"/>
        <pt x="386" y="33" on="1"/>
        <pt x="277" y="-127" on="0"/>
        <pt x="159" y="-251" on="0"/>
        <pt x="123" y="-251" on="1"/>
        <pt x="76" y="-251" on="0"/>
        <pt x="76" y="-207" on="1"/>
        <pt x="76" y="-180" on="0"/>
        <pt x="160" y="-36" on="0"/>
        <pt x="216" y="25" on="1"/>
        <pt x="243" y="55" on="0"/>
        <pt x="409" y="203" on="0"/>
        <pt x="476" y="268" on="1"/>
        <pt x="484" y="275" on="0"/>
        <pt x="510" y="391" on="0"/>
        <pt x="510" y="445" on="0"/>
        <pt x="496" y="445" on="1"/>
        <pt x="456" y="445" on="0"/>
        <pt x="208" y="100" on="1"/>
        <pt x="159" y="32" on="1"/>
        <pt x="146" y="5" on="0"/>
        <pt x="102" y="5" on="0"/>
        <pt x="102" y="25" on="1"/>
        <pt x="102" y="28" on="1"/>
        <pt x="172" y="193" on="1"/>
        <pt x="206" y="273" on="0"/>
        <pt x="240" y="407" on="0"/>
        <pt x="241" y="433" on="1"/>
        <pt x="241" y="494" on="0"/>
        <pt x="202" y="494" on="1"/>
        <pt x="183" y="494" on="0"/>
        <pt x="92" y="425" on="0"/>
        <pt x="18" y="355" on="0"/>
        <pt x="18" y="349" on="1"/>
        <pt x="19" y="349" on="1"/>
        <pt x="16" y="349" on="0"/>
        <pt x="16" y="354" on="0"/>
        <pt x="19" y="359" on="1"/>
        <pt x="60" y="419" on="0"/>
        <pt x="162" y="502" on="0"/>
        <pt x="198" y="502" on="1"/>
        <pt x="271" y="502" on="0"/>
        <pt x="271" y="410" on="1"/>
        <pt x="271" y="306" on="0"/>
        <pt x="179" y="96" on="1"/>
        <pt x="330" y="307" on="1"/>
        <pt x="454" y="475" on="0"/>
        <pt x="517" y="475" on="0"/>
        <pt x="517" y="462" on="1"/>
        <pt x="516" y="460" on="0"/>
        <pt x="511" y="456" on="1"/>
        <pt x="550" y="417" on="0"/>
        <pt x="550" y="374" on="1"/>
        <pt x="550" y="350" on="0"/>
      </contour>
      <contour>
        <pt x="119" y="-192" on="1"/>
        <pt x="108" y="-216" on="0"/>
        <pt x="108" y="-229" on="0"/>
        <pt x="113" y="-229" on="1"/>
        <pt x="113" y="-229" on="0"/>
        <pt x="121" y="-229" on="0"/>
        <pt x="141" y="-212" on="1"/>
        <pt x="216" y="-149" on="0"/>
        <pt x="403" y="110" on="0"/>
        <pt x="460" y="229" on="1"/>
        <pt x="200" y="-6" on="0"/>
      </contour>
      <contour>
        <pt x="481" y="581" on="1"/>
        <pt x="491" y="581" on="0"/>
        <pt x="491" y="558" on="0"/>
        <pt x="479" y="546" on="0"/>
        <pt x="368" y="480" on="0"/>
        <pt x="358" y="480" on="0"/>
        <pt x="358" y="491" on="0"/>
        <pt x="476" y="581" on="0"/>
      </contour>
    </TTGlyph>
    <TTGlyph name="Ydieresis" xMin="16" yMin="-251" xMax="579" yMax="590">
      <contour>
        <pt x="542" y="323" on="1"/>
        <pt x="557" y="328" on="0"/>
        <pt x="579" y="328" on="0"/>
        <pt x="579" y="321" on="0"/>
        <pt x="570" y="313" on="0"/>
        <pt x="564" y="310" on="1"/>
        <pt x="544" y="299" on="0"/>
        <pt x="536" y="295" on="1"/>
        <pt x="505" y="200" on="0"/>
        <pt x="386" y="33" on="1"/>
        <pt x="277" y="-127" on="0"/>
        <pt x="159" y="-251" on="0"/>
        <pt x="123" y="-251" on="1"/>
        <pt x="76" y="-251" on="0"/>
        <pt x="76" y="-207" on="1"/>
        <pt x="76" y="-180" on="0"/>
        <pt x="160" y="-36" on="0"/>
        <pt x="216" y="25" on="1"/>
        <pt x="243" y="55" on="0"/>
        <pt x="409" y="203" on="0"/>
        <pt x="476" y="268" on="1"/>
        <pt x="484" y="275" on="0"/>
        <pt x="510" y="391" on="0"/>
        <pt x="510" y="445" on="0"/>
        <pt x="496" y="445" on="1"/>
        <pt x="456" y="445" on="0"/>
        <pt x="208" y="100" on="1"/>
        <pt x="159" y="32" on="1"/>
        <pt x="146" y="5" on="0"/>
        <pt x="102" y="5" on="0"/>
        <pt x="102" y="25" on="1"/>
        <pt x="102" y="28" on="1"/>
        <pt x="172" y="193" on="1"/>
        <pt x="206" y="273" on="0"/>
        <pt x="240" y="407" on="0"/>
        <pt x="241" y="433" on="1"/>
        <pt x="241" y="494" on="0"/>
        <pt x="202" y="494" on="1"/>
        <pt x="183" y="494" on="0"/>
        <pt x="92" y="425" on="0"/>
        <pt x="18" y="355" on="0"/>
        <pt x="18" y="349" on="1"/>
        <pt x="19" y="349" on="1"/>
        <pt x="16" y="349" on="0"/>
        <pt x="16" y="354" on="0"/>
        <pt x="19" y="359" on="1"/>
        <pt x="60" y="419" on="0"/>
        <pt x="162" y="502" on="0"/>
        <pt x="198" y="502" on="1"/>
        <pt x="271" y="502" on="0"/>
        <pt x="271" y="410" on="1"/>
        <pt x="271" y="306" on="0"/>
        <pt x="179" y="96" on="1"/>
        <pt x="330" y="307" on="1"/>
        <pt x="454" y="475" on="0"/>
        <pt x="517" y="475" on="0"/>
        <pt x="517" y="462" on="1"/>
        <pt x="516" y="460" on="0"/>
        <pt x="511" y="456" on="1"/>
        <pt x="550" y="417" on="0"/>
        <pt x="550" y="374" on="1"/>
        <pt x="550" y="350" on="0"/>
      </contour>
      <contour>
        <pt x="119" y="-192" on="1"/>
        <pt x="108" y="-216" on="0"/>
        <pt x="108" y="-229" on="0"/>
        <pt x="113" y="-229" on="1"/>
        <pt x="113" y="-229" on="0"/>
        <pt x="121" y="-229" on="0"/>
        <pt x="141" y="-212" on="1"/>
        <pt x="216" y="-149" on="0"/>
        <pt x="403" y="110" on="0"/>
        <pt x="460" y="229" on="1"/>
        <pt x="200" y="-6" on="0"/>
      </contour>
      <contour>
        <pt x="453" y="525" on="1"/>
        <pt x="448" y="525" on="0"/>
        <pt x="437" y="541" on="0"/>
        <pt x="437" y="559" on="0"/>
        <pt x="482" y="590" on="0"/>
        <pt x="493" y="590" on="1"/>
        <pt x="496" y="589" on="1"/>
        <pt x="496" y="588" on="1"/>
        <pt x="492" y="584" on="0"/>
        <pt x="486" y="575" on="1"/>
        <pt x="473" y="545" on="1"/>
        <pt x="465" y="525" on="0"/>
      </contour>
      <contour>
        <pt x="362" y="525" on="1"/>
        <pt x="357" y="525" on="0"/>
        <pt x="346" y="541" on="0"/>
        <pt x="346" y="557" on="0"/>
        <pt x="390" y="590" on="0"/>
        <pt x="402" y="590" on="1"/>
        <pt x="406" y="589" on="1"/>
        <pt x="406" y="588" on="1"/>
        <pt x="403" y="586" on="0"/>
        <pt x="394" y="575" on="1"/>
        <pt x="382" y="545" on="1"/>
        <pt x="374" y="525" on="0"/>
      </contour>
    </TTGlyph>
    <TTGlyph name="Z" xMin="2" yMin="-173" xMax="669" yMax="446">
      <contour>
        <pt x="669" y="-44" on="1"/>
        <pt x="669" y="-112" on="0"/>
        <pt x="596" y="-159" on="1"/>
        <pt x="573" y="-173" on="0"/>
        <pt x="561" y="-173" on="0"/>
        <pt x="561" y="-170" on="1"/>
        <pt x="562" y="-169" on="0"/>
        <pt x="562" y="-168" on="1"/>
        <pt x="648" y="-91" on="0"/>
        <pt x="648" y="-41" on="1"/>
        <pt x="648" y="17" on="0"/>
        <pt x="457" y="17" on="1"/>
        <pt x="366" y="17" on="0"/>
        <pt x="151" y="-13" on="0"/>
        <pt x="20" y="-46" on="0"/>
        <pt x="20" y="-53" on="1"/>
        <pt x="21" y="-53" on="1"/>
        <pt x="4" y="-53" on="0"/>
        <pt x="4" y="-29" on="1"/>
        <pt x="3" y="-21" on="1"/>
        <pt x="3" y="-17" on="0"/>
        <pt x="15" y="-11" on="0"/>
        <pt x="53" y="0" on="1"/>
        <pt x="52" y="7" on="1"/>
        <pt x="52" y="22" on="0"/>
        <pt x="157" y="103" on="0"/>
        <pt x="270" y="174" on="0"/>
        <pt x="368" y="230" on="1"/>
        <pt x="607" y="365" on="0"/>
        <pt x="609" y="371" on="1"/>
        <pt x="577" y="407" on="0"/>
        <pt x="465" y="407" on="1"/>
        <pt x="434" y="407" on="0"/>
        <pt x="239" y="387" on="0"/>
        <pt x="221" y="387" on="1"/>
        <pt x="180" y="387" on="0"/>
        <pt x="180" y="411" on="1"/>
        <pt x="180" y="421" on="0"/>
        <pt x="189" y="428" on="1"/>
        <pt x="198" y="420" on="0"/>
        <pt x="213" y="420" on="0"/>
        <pt x="437" y="446" on="0"/>
        <pt x="505" y="446" on="1"/>
        <pt x="607" y="446" on="0"/>
        <pt x="628" y="349" on="1"/>
        <pt x="638" y="338" on="0"/>
        <pt x="638" y="314" on="1"/>
        <pt x="638" y="308" on="0"/>
        <pt x="586" y="287" on="1"/>
        <pt x="523" y="260" on="1"/>
        <pt x="379" y="192" on="0"/>
        <pt x="189" y="74" on="1"/>
        <pt x="82" y="9" on="1"/>
        <pt x="330" y="51" on="0"/>
        <pt x="493" y="51" on="1"/>
        <pt x="571" y="51" on="0"/>
        <pt x="669" y="0" on="0"/>
      </contour>
    </TTGlyph>
    <TTGlyph name="Zcaron" xMin="2" yMin="-173" xMax="669" yMax="605">
      <contour>
        <pt x="669" y="-44" on="1"/>
        <pt x="669" y="-112" on="0"/>
        <pt x="596" y="-159" on="1"/>
        <pt x="573" y="-173" on="0"/>
        <pt x="561" y="-173" on="0"/>
        <pt x="561" y="-170" on="1"/>
        <pt x="562" y="-169" on="0"/>
        <pt x="562" y="-168" on="1"/>
        <pt x="648" y="-91" on="0"/>
        <pt x="648" y="-41" on="1"/>
        <pt x="648" y="17" on="0"/>
        <pt x="457" y="17" on="1"/>
        <pt x="366" y="17" on="0"/>
        <pt x="151" y="-13" on="0"/>
        <pt x="20" y="-46" on="0"/>
        <pt x="20" y="-53" on="1"/>
        <pt x="21" y="-53" on="1"/>
        <pt x="4" y="-53" on="0"/>
        <pt x="4" y="-29" on="1"/>
        <pt x="3" y="-21" on="1"/>
        <pt x="3" y="-17" on="0"/>
        <pt x="15" y="-11" on="0"/>
        <pt x="53" y="0" on="1"/>
        <pt x="52" y="7" on="1"/>
        <pt x="52" y="22" on="0"/>
        <pt x="157" y="103" on="0"/>
        <pt x="270" y="174" on="0"/>
        <pt x="368" y="230" on="1"/>
        <pt x="607" y="365" on="0"/>
        <pt x="609" y="371" on="1"/>
        <pt x="577" y="407" on="0"/>
        <pt x="465" y="407" on="1"/>
        <pt x="434" y="407" on="0"/>
        <pt x="239" y="387" on="0"/>
        <pt x="221" y="387" on="1"/>
        <pt x="180" y="387" on="0"/>
        <pt x="180" y="411" on="1"/>
        <pt x="180" y="421" on="0"/>
        <pt x="189" y="428" on="1"/>
        <pt x="198" y="420" on="0"/>
        <pt x="213" y="420" on="0"/>
        <pt x="437" y="446" on="0"/>
        <pt x="505" y="446" on="1"/>
        <pt x="607" y="446" on="0"/>
        <pt x="628" y="349" on="1"/>
        <pt x="638" y="338" on="0"/>
        <pt x="638" y="314" on="1"/>
        <pt x="638" y="308" on="0"/>
        <pt x="586" y="287" on="1"/>
        <pt x="523" y="260" on="1"/>
        <pt x="379" y="192" on="0"/>
        <pt x="189" y="74" on="1"/>
        <pt x="82" y="9" on="1"/>
        <pt x="330" y="51" on="0"/>
        <pt x="493" y="51" on="1"/>
        <pt x="571" y="51" on="0"/>
        <pt x="669" y="0" on="0"/>
      </contour>
      <contour>
        <pt x="420" y="512" on="0"/>
        <pt x="327" y="587" on="0"/>
        <pt x="327" y="602" on="0"/>
        <pt x="333" y="602" on="1"/>
        <pt x="341" y="602" on="0"/>
        <pt x="418" y="539" on="1"/>
        <pt x="434" y="554" on="0"/>
        <pt x="515" y="604" on="0"/>
        <pt x="529" y="605" on="1"/>
        <pt x="531" y="600" on="1"/>
        <pt x="528" y="593" on="1"/>
        <pt x="457" y="539" on="0"/>
        <pt x="433" y="512" on="1"/>
        <pt x="429" y="509" on="1"/>
      </contour>
    </TTGlyph>
    <TTGlyph name="a" xMin="6" yMin="-38" xMax="312" yMax="273">
      <contour>
        <pt x="269" y="-29" on="1"/>
        <pt x="279" y="-27" on="1"/>
        <pt x="281" y="-28" on="1"/>
        <pt x="281" y="-37" on="0"/>
        <pt x="232" y="-37" on="0"/>
        <pt x="201" y="7" on="0"/>
        <pt x="201" y="82" on="0"/>
        <pt x="215" y="130" on="1"/>
        <pt x="215" y="127" on="0"/>
        <pt x="188" y="89" on="1"/>
        <pt x="106" y="-38" on="0"/>
        <pt x="59" y="-38" on="1"/>
        <pt x="39" y="-38" on="0"/>
        <pt x="6" y="-1" on="0"/>
        <pt x="6" y="58" on="0"/>
        <pt x="77" y="179" on="0"/>
        <pt x="177" y="273" on="0"/>
        <pt x="213" y="273" on="1"/>
        <pt x="223" y="273" on="1"/>
        <pt x="260" y="273" on="0"/>
        <pt x="312" y="244" on="0"/>
        <pt x="312" y="220" on="1"/>
        <pt x="312" y="209" on="0"/>
        <pt x="303" y="209" on="1"/>
        <pt x="300" y="209" on="0"/>
        <pt x="300" y="212" on="1"/>
        <pt x="283" y="249" on="0"/>
        <pt x="251" y="249" on="1"/>
        <pt x="195" y="249" on="0"/>
        <pt x="48" y="62" on="0"/>
        <pt x="48" y="13" on="1"/>
        <pt x="48" y="-6" on="0"/>
        <pt x="58" y="-6" on="1"/>
        <pt x="103" y="-6" on="0"/>
        <pt x="247" y="197" on="1"/>
        <pt x="249" y="199" on="0"/>
        <pt x="258" y="199" on="0"/>
        <pt x="290" y="180" on="0"/>
        <pt x="290" y="173" on="1"/>
        <pt x="290" y="173" on="0"/>
        <pt x="276" y="147" on="1"/>
        <pt x="243" y="77" on="0"/>
        <pt x="243" y="-29" on="0"/>
      </contour>
    </TTGlyph>
    <TTGlyph name="aacute" xMin="6" yMin="-38" xMax="349" yMax="422">
      <contour>
        <pt x="269" y="-29" on="1"/>
        <pt x="279" y="-27" on="1"/>
        <pt x="281" y="-28" on="1"/>
        <pt x="281" y="-37" on="0"/>
        <pt x="232" y="-37" on="0"/>
        <pt x="201" y="7" on="0"/>
        <pt x="201" y="82" on="0"/>
        <pt x="215" y="130" on="1"/>
        <pt x="215" y="127" on="0"/>
        <pt x="188" y="89" on="1"/>
        <pt x="106" y="-38" on="0"/>
        <pt x="59" y="-38" on="1"/>
        <pt x="39" y="-38" on="0"/>
        <pt x="6" y="-1" on="0"/>
        <pt x="6" y="58" on="0"/>
        <pt x="76" y="178" on="0"/>
        <pt x="176" y="272" on="0"/>
        <pt x="213" y="273" on="1"/>
        <pt x="223" y="273" on="1"/>
        <pt x="260" y="273" on="0"/>
        <pt x="312" y="244" on="0"/>
        <pt x="312" y="220" on="1"/>
        <pt x="312" y="209" on="0"/>
        <pt x="303" y="209" on="1"/>
        <pt x="300" y="209" on="0"/>
        <pt x="300" y="212" on="1"/>
        <pt x="283" y="249" on="0"/>
        <pt x="251" y="249" on="1"/>
        <pt x="195" y="249" on="0"/>
        <pt x="48" y="62" on="0"/>
        <pt x="48" y="13" on="1"/>
        <pt x="48" y="-6" on="0"/>
        <pt x="58" y="-6" on="1"/>
        <pt x="103" y="-6" on="0"/>
        <pt x="247" y="197" on="1"/>
        <pt x="249" y="199" on="0"/>
        <pt x="258" y="199" on="0"/>
        <pt x="290" y="180" on="0"/>
        <pt x="290" y="173" on="1"/>
        <pt x="290" y="173" on="0"/>
        <pt x="276" y="147" on="1"/>
        <pt x="243" y="77" on="0"/>
        <pt x="243" y="-29" on="0"/>
      </contour>
      <contour>
        <pt x="349" y="422" on="0"/>
        <pt x="349" y="400" on="0"/>
        <pt x="335" y="387" on="0"/>
        <pt x="227" y="322" on="0"/>
        <pt x="216" y="322" on="0"/>
        <pt x="216" y="333" on="0"/>
        <pt x="334" y="422" on="0"/>
      </contour>
    </TTGlyph>
    <TTGlyph name="acircumflex" xMin="6" yMin="-38" xMax="353" yMax="397">
      <contour>
        <pt x="269" y="-29" on="1"/>
        <pt x="279" y="-27" on="1"/>
        <pt x="281" y="-28" on="1"/>
        <pt x="281" y="-37" on="0"/>
        <pt x="232" y="-37" on="0"/>
        <pt x="201" y="7" on="0"/>
        <pt x="201" y="82" on="0"/>
        <pt x="215" y="130" on="1"/>
        <pt x="215" y="127" on="0"/>
        <pt x="188" y="89" on="1"/>
        <pt x="106" y="-38" on="0"/>
        <pt x="59" y="-38" on="1"/>
        <pt x="39" y="-38" on="0"/>
        <pt x="6" y="-1" on="0"/>
        <pt x="6" y="58" on="0"/>
        <pt x="76" y="178" on="0"/>
        <pt x="176" y="272" on="0"/>
        <pt x="213" y="273" on="1"/>
        <pt x="223" y="273" on="1"/>
        <pt x="260" y="273" on="0"/>
        <pt x="312" y="244" on="0"/>
        <pt x="312" y="220" on="1"/>
        <pt x="312" y="209" on="0"/>
        <pt x="303" y="209" on="1"/>
        <pt x="300" y="209" on="0"/>
        <pt x="300" y="212" on="1"/>
        <pt x="283" y="249" on="0"/>
        <pt x="251" y="249" on="1"/>
        <pt x="195" y="249" on="0"/>
        <pt x="48" y="62" on="0"/>
        <pt x="48" y="13" on="1"/>
        <pt x="48" y="-6" on="0"/>
        <pt x="58" y="-6" on="1"/>
        <pt x="103" y="-6" on="0"/>
        <pt x="247" y="197" on="1"/>
        <pt x="249" y="199" on="0"/>
        <pt x="258" y="199" on="0"/>
        <pt x="290" y="180" on="0"/>
        <pt x="290" y="173" on="1"/>
        <pt x="290" y="173" on="0"/>
        <pt x="276" y="147" on="1"/>
        <pt x="243" y="77" on="0"/>
        <pt x="243" y="-29" on="0"/>
      </contour>
      <contour>
        <pt x="154" y="304" on="1"/>
        <pt x="149" y="304" on="0"/>
        <pt x="149" y="319" on="0"/>
        <pt x="243" y="395" on="0"/>
        <pt x="251" y="397" on="1"/>
        <pt x="256" y="395" on="1"/>
        <pt x="281" y="366" on="0"/>
        <pt x="350" y="313" on="1"/>
        <pt x="353" y="306" on="1"/>
        <pt x="350" y="300" on="1"/>
        <pt x="336" y="302" on="0"/>
        <pt x="254" y="354" on="0"/>
        <pt x="241" y="367" on="1"/>
        <pt x="163" y="304" on="0"/>
      </contour>
    </TTGlyph>
    <TTGlyph name="acute" xMin="29" yMin="162" xMax="162" yMax="263">
      <contour>
        <pt x="152" y="263" on="1"/>
        <pt x="162" y="263" on="0"/>
        <pt x="162" y="241" on="0"/>
        <pt x="150" y="229" on="0"/>
        <pt x="38" y="162" on="0"/>
        <pt x="29" y="162" on="0"/>
        <pt x="29" y="173" on="0"/>
        <pt x="147" y="263" on="0"/>
      </contour>
    </TTGlyph>
    <TTGlyph name="adieresis" xMin="6" yMin="-38" xMax="342" yMax="370">
      <contour>
        <pt x="269" y="-29" on="1"/>
        <pt x="279" y="-27" on="1"/>
        <pt x="281" y="-28" on="1"/>
        <pt x="281" y="-37" on="0"/>
        <pt x="232" y="-37" on="0"/>
        <pt x="201" y="7" on="0"/>
        <pt x="201" y="82" on="0"/>
        <pt x="215" y="130" on="1"/>
        <pt x="215" y="127" on="0"/>
        <pt x="188" y="89" on="1"/>
        <pt x="106" y="-38" on="0"/>
        <pt x="59" y="-38" on="1"/>
        <pt x="39" y="-38" on="0"/>
        <pt x="6" y="-1" on="0"/>
        <pt x="6" y="58" on="0"/>
        <pt x="76" y="178" on="0"/>
        <pt x="176" y="272" on="0"/>
        <pt x="213" y="273" on="1"/>
        <pt x="223" y="273" on="1"/>
        <pt x="260" y="273" on="0"/>
        <pt x="312" y="244" on="0"/>
        <pt x="312" y="220" on="1"/>
        <pt x="312" y="209" on="0"/>
        <pt x="303" y="209" on="1"/>
        <pt x="300" y="209" on="0"/>
        <pt x="300" y="212" on="1"/>
        <pt x="283" y="249" on="0"/>
        <pt x="251" y="249" on="1"/>
        <pt x="195" y="249" on="0"/>
        <pt x="48" y="62" on="0"/>
        <pt x="48" y="13" on="1"/>
        <pt x="48" y="-6" on="0"/>
        <pt x="58" y="-6" on="1"/>
        <pt x="103" y="-6" on="0"/>
        <pt x="247" y="197" on="1"/>
        <pt x="249" y="199" on="0"/>
        <pt x="258" y="199" on="0"/>
        <pt x="290" y="180" on="0"/>
        <pt x="290" y="173" on="1"/>
        <pt x="290" y="173" on="0"/>
        <pt x="276" y="147" on="1"/>
        <pt x="243" y="77" on="0"/>
        <pt x="243" y="-29" on="0"/>
      </contour>
      <contour>
        <pt x="299" y="306" on="1"/>
        <pt x="294" y="306" on="0"/>
        <pt x="282" y="321" on="0"/>
        <pt x="282" y="337" on="0"/>
        <pt x="327" y="370" on="0"/>
        <pt x="339" y="370" on="1"/>
        <pt x="342" y="369" on="1"/>
        <pt x="342" y="370" on="1"/>
        <pt x="342" y="369" on="1"/>
        <pt x="338" y="363" on="0"/>
        <pt x="331" y="356" on="1"/>
        <pt x="319" y="326" on="1"/>
        <pt x="312" y="306" on="0"/>
      </contour>
      <contour>
        <pt x="208" y="306" on="1"/>
        <pt x="202" y="306" on="0"/>
        <pt x="192" y="321" on="0"/>
        <pt x="192" y="338" on="0"/>
        <pt x="236" y="370" on="0"/>
        <pt x="248" y="370" on="1"/>
        <pt x="251" y="369" on="1"/>
        <pt x="251" y="370" on="1"/>
        <pt x="251" y="369" on="1"/>
        <pt x="250" y="368" on="0"/>
        <pt x="243" y="359" on="0"/>
        <pt x="240" y="356" on="1"/>
        <pt x="228" y="326" on="1"/>
        <pt x="221" y="306" on="0"/>
      </contour>
    </TTGlyph>
    <TTGlyph name="ae" xMin="6" yMin="-41" xMax="465" yMax="273">
      <contour>
        <pt x="223" y="273" on="1"/>
        <pt x="288" y="273" on="0"/>
        <pt x="309" y="232" on="1"/>
        <pt x="354" y="273" on="0"/>
        <pt x="407" y="273" on="0"/>
        <pt x="445" y="242" on="0"/>
        <pt x="445" y="220" on="1"/>
        <pt x="445" y="181" on="0"/>
        <pt x="351" y="108" on="0"/>
        <pt x="307" y="108" on="1"/>
        <pt x="296" y="108" on="0"/>
        <pt x="296" y="112" on="1"/>
        <pt x="301" y="117" on="1"/>
        <pt x="416" y="153" on="0"/>
        <pt x="416" y="235" on="1"/>
        <pt x="416" y="247" on="0"/>
        <pt x="407" y="247" on="1"/>
        <pt x="396" y="247" on="0"/>
        <pt x="368" y="224" on="1"/>
        <pt x="319" y="184" on="0"/>
        <pt x="247" y="65" on="0"/>
        <pt x="247" y="-18" on="0"/>
        <pt x="277" y="-18" on="1"/>
        <pt x="311" y="-18" on="0"/>
        <pt x="355" y="19" on="1"/>
        <pt x="379" y="39" on="0"/>
        <pt x="461" y="125" on="1"/>
        <pt x="465" y="125" on="0"/>
        <pt x="465" y="114" on="0"/>
        <pt x="463" y="112" on="1"/>
        <pt x="360" y="-41" on="0"/>
        <pt x="292" y="-41" on="1"/>
        <pt x="279" y="-41" on="0"/>
        <pt x="259" y="-37" on="1"/>
        <pt x="258" y="-37" on="1"/>
        <pt x="231" y="-37" on="0"/>
        <pt x="201" y="8" on="0"/>
        <pt x="201" y="82" on="0"/>
        <pt x="215" y="130" on="1"/>
        <pt x="215" y="127" on="0"/>
        <pt x="188" y="89" on="1"/>
        <pt x="106" y="-38" on="0"/>
        <pt x="59" y="-38" on="1"/>
        <pt x="39" y="-38" on="0"/>
        <pt x="6" y="-1" on="0"/>
        <pt x="6" y="58" on="0"/>
        <pt x="76" y="178" on="0"/>
        <pt x="176" y="272" on="0"/>
        <pt x="213" y="273" on="1"/>
      </contour>
      <contour>
        <pt x="251" y="249" on="1"/>
        <pt x="195" y="249" on="0"/>
        <pt x="48" y="62" on="0"/>
        <pt x="48" y="13" on="1"/>
        <pt x="48" y="-6" on="0"/>
        <pt x="58" y="-6" on="1"/>
        <pt x="103" y="-6" on="0"/>
        <pt x="247" y="197" on="1"/>
        <pt x="249" y="199" on="0"/>
        <pt x="256" y="199" on="0"/>
        <pt x="272" y="191" on="1"/>
        <pt x="281" y="204" on="0"/>
        <pt x="296" y="219" on="1"/>
        <pt x="282" y="249" on="0"/>
      </contour>
    </TTGlyph>
    <TTGlyph name="agrave" xMin="6" yMin="-38" xMax="318" yMax="428">
      <contour>
        <pt x="269" y="-29" on="1"/>
        <pt x="279" y="-27" on="1"/>
        <pt x="281" y="-28" on="1"/>
        <pt x="281" y="-37" on="0"/>
        <pt x="232" y="-37" on="0"/>
        <pt x="201" y="7" on="0"/>
        <pt x="201" y="82" on="0"/>
        <pt x="215" y="130" on="1"/>
        <pt x="215" y="127" on="0"/>
        <pt x="188" y="89" on="1"/>
        <pt x="106" y="-38" on="0"/>
        <pt x="59" y="-38" on="1"/>
        <pt x="39" y="-38" on="0"/>
        <pt x="6" y="-1" on="0"/>
        <pt x="6" y="58" on="0"/>
        <pt x="76" y="178" on="0"/>
        <pt x="176" y="272" on="0"/>
        <pt x="213" y="273" on="1"/>
        <pt x="223" y="273" on="1"/>
        <pt x="260" y="273" on="0"/>
        <pt x="312" y="244" on="0"/>
        <pt x="312" y="220" on="1"/>
        <pt x="312" y="209" on="0"/>
        <pt x="303" y="209" on="1"/>
        <pt x="300" y="209" on="0"/>
        <pt x="300" y="212" on="1"/>
        <pt x="283" y="249" on="0"/>
        <pt x="251" y="249" on="1"/>
        <pt x="195" y="249" on="0"/>
        <pt x="48" y="62" on="0"/>
        <pt x="48" y="13" on="1"/>
        <pt x="48" y="-6" on="0"/>
        <pt x="58" y="-6" on="1"/>
        <pt x="103" y="-6" on="0"/>
        <pt x="247" y="197" on="1"/>
        <pt x="249" y="199" on="0"/>
        <pt x="258" y="199" on="0"/>
        <pt x="290" y="180" on="0"/>
        <pt x="290" y="173" on="1"/>
        <pt x="290" y="173" on="0"/>
        <pt x="276" y="147" on="1"/>
        <pt x="243" y="77" on="0"/>
        <pt x="243" y="-29" on="0"/>
      </contour>
      <contour>
        <pt x="193" y="428" on="0"/>
        <pt x="318" y="335" on="0"/>
        <pt x="318" y="321" on="0"/>
        <pt x="311" y="321" on="1"/>
        <pt x="296" y="325" on="0"/>
        <pt x="218" y="373" on="0"/>
        <pt x="191" y="389" on="0"/>
        <pt x="177" y="404" on="0"/>
        <pt x="177" y="406" on="1"/>
        <pt x="177" y="415" on="1"/>
        <pt x="177" y="428" on="0"/>
      </contour>
    </TTGlyph>
    <TTGlyph name="ampersand" xMin="17" yMin="-108" xMax="475" yMax="435">
      <contour>
        <pt x="439" y="300" on="1"/>
        <pt x="439" y="304" on="0"/>
        <pt x="445" y="306" on="1"/>
        <pt x="470" y="306" on="0"/>
        <pt x="470" y="282" on="1"/>
        <pt x="470" y="247" on="0"/>
        <pt x="403" y="213" on="1"/>
        <pt x="326" y="177" on="1"/>
        <pt x="372" y="150" on="0"/>
        <pt x="372" y="107" on="1"/>
        <pt x="372" y="48" on="0"/>
        <pt x="240" y="-36" on="0"/>
        <pt x="157" y="-36" on="1"/>
        <pt x="137" y="-34" on="0"/>
        <pt x="131" y="-34" on="1"/>
        <pt x="149" y="-58" on="0"/>
        <pt x="208" y="-95" on="0"/>
        <pt x="248" y="-95" on="0"/>
        <pt x="258" y="-91" on="0"/>
        <pt x="259" y="-92" on="1"/>
        <pt x="259" y="-98" on="0"/>
        <pt x="233" y="-108" on="0"/>
        <pt x="221" y="-108" on="1"/>
        <pt x="157" y="-108" on="0"/>
        <pt x="113" y="-30" on="1"/>
        <pt x="64" y="-25" on="0"/>
        <pt x="17" y="35" on="0"/>
        <pt x="17" y="74" on="1"/>
        <pt x="17" y="132" on="0"/>
        <pt x="125" y="228" on="0"/>
        <pt x="208" y="245" on="1"/>
        <pt x="180" y="249" on="1"/>
        <pt x="158" y="255" on="0"/>
        <pt x="158" y="272" on="1"/>
        <pt x="158" y="307" on="0"/>
        <pt x="303" y="384" on="0"/>
        <pt x="392" y="384" on="1"/>
        <pt x="438" y="435" on="0"/>
        <pt x="475" y="435" on="0"/>
        <pt x="475" y="419" on="1"/>
        <pt x="465" y="404" on="0"/>
        <pt x="429" y="368" on="0"/>
        <pt x="402" y="337" on="0"/>
        <pt x="386" y="320" on="0"/>
        <pt x="376" y="300" on="0"/>
        <pt x="376" y="298" on="1"/>
        <pt x="371" y="285" on="0"/>
        <pt x="371" y="277" on="1"/>
        <pt x="355" y="280" on="0"/>
        <pt x="355" y="336" on="0"/>
        <pt x="386" y="376" on="1"/>
        <pt x="331" y="373" on="0"/>
        <pt x="234" y="323" on="0"/>
        <pt x="189" y="275" on="0"/>
        <pt x="189" y="266" on="1"/>
        <pt x="189" y="253" on="0"/>
        <pt x="213" y="253" on="1"/>
        <pt x="288" y="261" on="1"/>
        <pt x="320" y="261" on="0"/>
        <pt x="320" y="243" on="1"/>
        <pt x="320" y="232" on="0"/>
        <pt x="315" y="232" on="1"/>
        <pt x="302" y="234" on="1"/>
        <pt x="289" y="234" on="1"/>
        <pt x="276" y="235" on="1"/>
        <pt x="198" y="235" on="0"/>
        <pt x="47" y="123" on="0"/>
        <pt x="47" y="7" on="0"/>
        <pt x="106" y="-15" on="1"/>
        <pt x="101" y="0" on="0"/>
        <pt x="101" y="32" on="0"/>
        <pt x="110" y="57" on="0"/>
        <pt x="133" y="82" on="0"/>
        <pt x="150" y="100" on="0"/>
        <pt x="192" y="126" on="0"/>
        <pt x="210" y="137" on="0"/>
        <pt x="264" y="167" on="0"/>
        <pt x="271" y="171" on="1"/>
        <pt x="269" y="175" on="0"/>
        <pt x="259" y="175" on="1"/>
        <pt x="229" y="175" on="0"/>
        <pt x="157" y="134" on="0"/>
        <pt x="152" y="116" on="1"/>
        <pt x="150" y="118" on="0"/>
        <pt x="150" y="125" on="1"/>
        <pt x="150" y="147" on="0"/>
        <pt x="218" y="189" on="0"/>
        <pt x="272" y="189" on="1"/>
        <pt x="281" y="189" on="0"/>
        <pt x="301" y="187" on="1"/>
        <pt x="336" y="196" on="0"/>
        <pt x="450" y="283" on="0"/>
        <pt x="450" y="293" on="1"/>
        <pt x="450" y="296" on="0"/>
        <pt x="439" y="299" on="0"/>
      </contour>
      <contour>
        <pt x="346" y="126" on="1"/>
        <pt x="346" y="140" on="0"/>
        <pt x="317" y="168" on="0"/>
        <pt x="303" y="168" on="1"/>
        <pt x="277" y="168" on="0"/>
        <pt x="121" y="23" on="0"/>
        <pt x="121" y="-11" on="1"/>
        <pt x="121" y="-18" on="1"/>
        <pt x="132" y="-21" on="0"/>
        <pt x="147" y="-21" on="1"/>
        <pt x="215" y="-21" on="0"/>
        <pt x="346" y="73" on="0"/>
      </contour>
    </TTGlyph>
</ttFont>
